<svg xmlns="http://www.w3.org/2000/svg" viewBox="0 0 15000 4076.9"><defs><style>.cls-1{fill:#e7dedb}.cls-3{fill:#ee5f2f}.cls-4{fill:#ffbb0f}.cls-5{fill:#99401e}.cls-6{fill:#9e2500}.cls-7{fill:#cdbcb5}.cls-8{fill:#aa4623}.cls-9{fill:#ce5228}.cls-10{fill:#5b200a}.cls-11{fill:#782c10}</style></defs><g id="dark_shadows"><path d="M6962 3821c21 7 24 6 33-11 37-4-3 15-4 31 20 23 54 15 76 0 20 8 22 7 35-9 44 12-122 88-139 116-31 76-97 43-154 90-26 22-61 16-91 25-26 11-75 30-81-13-2-21 4-38 25-48 47-14 57-62 90-90 24-14 50-21 77-24 49-13 81-58 133-67ZM9471 3136c-1-20 6-38 19-54 18-23 42-39 69-51 16-8 32-13 49-20 34-14 69-19 106-17 6 0 14 2 18-7 3-7-4-10-8-15-27-36-45-76-62-117-16-39-34-76-58-111 14 1 28-3 41 4 4 21 16 36 30 51 21 21 40 42 67 56 26 13 49 32 73 49 25 18 52 35 66 66 12 24 34 37 62 39 8 1 17 1 24 5-30 8-61 11-92 10l-14 2-115 28c-40 8-81 13-121 21-43 9-86 21-125 41-11 5-20 13-29 20Zm267-131c19 0 26-8 30-32-17 0-24 7-30 32ZM8358 3553l-5-43c-1-8 2-13 10-18 17-9 32-23 43-39 10 0 19 0 29 2 7 2 15 3 18-7 8 25 35 21 57 9 16 22 40 33 64 42 16 5 30 11 42 22 14 14 30 22 49 24 12 1 23 6 32 14 8 8 17 16 13 29-4 11-21 24-33 22-59-7-118-7-178-7-8 0-16-3-24-4-43-6-84 0-126 4 3-9 12-11 19-15-1-7-9-5-10-10 17 0 33-4 49-13-17-4-35-2-49-12ZM8411 2838c-12-36-93-27-120-13-10 5-21 6-32 7-21 1-42 5-60 17-30 22-69 19-100 38-13 8-28 14-43 21l2 57c-10 19-12 17-30 25-7 7 5 11 11 9 46-12 89-34 139-30 58-3 111-35 162-59 18-8 33-24 51-34 16-9 23-25 20-38ZM7498 3790l4 1c36 27 77 17 115 14a364 364 0 0 0 106-24c9-4 12-9 13-19 1-11 5-22 11-31 6 11 19 11 27 19 3 4 11 6 12 12 4 26 29 37 43 56 12 18 28 33 24 57-1 5 3 9 5 14 11 24-2 41-29 38-20-2-41-3-62-8-41-8-83-16-120-36l-37-23c-7-5-16-10-24-12-34-10-58-35-85-54l-3-4ZM4522 3068c6 25 324 189 333 189-26 3-50 14-76 18-27 4-54 14-81 17-56 6-111 3-164-18-44-17-72-70-56-124 8-31 24-57 44-82ZM8549 2677c0-42 13-83 21-124 22 15 47 16 73 13 11-1 21-3 31 3 16 33 32 66 52 97 10 15 23 25 36 37l-17 29c-9-17-25-20-42-19-28 3-53 17-79 26-28 11-58 19-87 26 3-6 3-14 4-21 12-9 26-14 41-15 21-2 41-7 61-11 16-2 32-6 46-18l-17-22c-4-6-10-10-18-7-34 10-70 5-105 7ZM8203 2748c7 0 12-2 12-11l1-18c27-4 52-15 79-19s53-16 75-34c6-5 12-10 10-19-8-33 3-57 36-70 28 6 56 14 86 3 9-3 14 1 14 11-6 32-13 65-13 99 0 3-1 7-3 9l-2-18-55 11c-7 1-14 3-21 2-49-6-93 13-136 30-23 9-46 16-67 28-6 4-12 3-16-4ZM6381 3272c31 101 105 81 192 83-61 33-130 20-195 31-31 8-168 6-124-52 31-25 71-38 106-58 7-4 14-4 21-4ZM6086 3680c-15 1-32 4-49 7l-2-1c-10-1-19-1-29 3l-2 2c-26 1-52-4-69-26-85 16-100 78 1 70 22-6 171-42 150-55ZM6764 2761c-6 21-7 44-19 64-9 2-17-10-27-4-5 4-1 6-3 11-9-12-23-20-35-30-19-15-14-31 8-39 14-5 27-4 41-2h35ZM8028 3432c19 0 37 3 55 9 17 6 36 10 55 12 32 3 63 11 94 24 17 7 35 11 54 11 16 0 22 7 21 23-8 0-17-1-26-4-48-11-95-21-142-37-37-13-75-23-111-38ZM8023 3833c20-4 35-18 48-32 6-7 8-21 19-27 3 3 4 8 8 9 18 7 18 27 26 41 4 9-5 15-13 18-13 5-27 5-39 2l-49-11ZM6602 2715c6 6 3 14 4 21 0 9 4 17 9 25l-2-1c-47-26-99-39-147-63-4-2-10-2-10-10 20 6 39 11 57 18 24 9 48 13 73 17 7 2 14 1 16-8ZM5627 2939c16 23 39 35 66 38h-93c-12-1-27 0-34-14 1-8 8-9 14-10l32-5c7-1 13-1 15-9ZM6845 2889c23 3 45 1 67-10 37 96-16 41-67 10ZM5877 3023c3 22 12 42 33 54-38 1-70-11-77-29 7-6 17-7 25-7 13 0 19-6 19-19ZM5317 2978c15-4 31-7 45-14 8-4 13-2 17 5-6 11-3 21 5 29-22-7-45-10-67-20ZM6771 2851c44-95 12-20 52 24-21-1-34-18-52-24ZM7375 2984c20 9 41 14 58 28l1 9c-20-2-39 0-59 4-1-4-2-8-5-11-8-12-6-21 5-30ZM7504 3081c-5-9-8-19-9-30 35 8 56 35 83 53-8 0-15 0-22-4-17-9-34-14-52-19ZM7674 3076c46-12 3-68-4-61-46 12-63 89 3 61ZM7461 3148c16 8 33 4 50 2-15 19-31 18-50-2Z" class="cls-7"/></g><g id="Trees_far_background"><path d="M6247 1621c13-108-38-208-42-319-3-128 8-276-118-277-173 18-189 139-256 269-50 79-55 176-74 264-55 241-81 485-83 731 0 122-2 250 37 367 25 112 104 59 184 59 218 6 301-215 326-399 23-148 25-207 9-476-3-56-3-55 17-219ZM9801 2838ZM10178 1934c-14-70-34-141-76-199-87-77-216-121-296-5-107 154-99 359-152 536a829 829 0 0 0 56 479c22 32 68 77 89 92 11 10 24 39 49 44 81 63 149 207 259 98 112-117 107-286 109-441-11-204 10-406-38-604Z" class="cls-8"/></g><g id="Trees_far_background_shadows"><path d="M9967 3014c-7-4-16-4-24-4-27-3-50-16-62-40-14-31-41-48-66-66-24-17-47-36-73-49-27-14-46-35-67-56a97 97 0 0 1-30-51c13-5 26-7 40-8 15-2 30-2 44-8 12-1 24-2 36-6 9-4 23 0 35-3 27 21 36 50 39 82 2 15 8 25 22 34 32 24 65 49 77 90 1 6 6 9 10 13 16 15 28 32 36 53-1 8-5 15-9 21l-8-2ZM6240 2102c0-63-3-142-10-263-3-55-3-54 17-218 2-19 2-38 1-57-50 20-124 118-159 142-39 28-60 47-102 70l-53 505c-17-13-67-61-78-26a448 448 0 0 0-156 367l10 34c26 112 105 59 185 59 139 4 223-85 272-198 37-135 57-275 73-415Z" class="cls-5"/></g><path id="Trees_background" d="M6418 2499c-16-21 41-413-41-367-8-29-16-57-17-87 4-106 56-314-93-334-79-1-159 227-167 295-12 78-70 141-58 224-24 63-38 132-5 195 9 70 24 137 85 184 54 37 151 28 208-6 61-36 58-53 88-104Z" class="cls-3"/><g id="Trees_mid"><path d="m6569 2033 1 8-1-8ZM5873 2192c5-25 5-50 1-76-7-41-51-140-113-219-23-29-29-68-27-107l3-12c25-100 111-180 100-293 1-74-20-113-42-166-10-23-19-47-32-69-39-76-5-173-19-256 8-109-118-221-222-168-97 48-129 157-162 253-5 27-7 55-10 82l-1 9a73 73 0 0 0-1 6 1233 1233 0 0 1-10 55c-5 21-10 42-17 63-72 72-154 147-164 253-10 133-32 266-26 399 1 26 0 51-13 76-15 31-42 54-60 84-1 3-9 3-8 1-222 423 181 818 167 858 17 7 34 13 52 12 149 12 164-87 289-124 60-16 116-35 169-70 11-9 39-48 42-59 13-39 24-79 22-120 4-43-21-86-12-132 18-97 86-189 94-280Zm-177-511v-2 2Z" class="cls-4"/><path d="M8338 2165c-9-43-9-87-10-130-30-65-125-30-160 18-57 60-73 141-105 215-18 32-19 68-31 101l-1 1c-1 3 6 105 15 105 1 7 3 13 8 18s13 9 20 8c2 0 28 24 37 37 9 18 19 36 37 47 9 5 19 7 30 9 10 1 21 1 30 6l18 1c15-17 120-419 112-436ZM8328 2035Z" class="cls-3"/><path d="M9414 1640c-3-16-7-31-13-46 1-9-2-19-9-32-21-60-63-111-69-176-2-47-10-94-30-135-42-83-47-197-126-254-62-32-140-3-183 49-82 90-51 218-120 313-15 20-33 43-38 65-5 5-8 12-7 19 0 11 6 20 15 25 15 48 23 99 34 148 22 207 100 408 121 615 28 300-84 275 118 275 54-3 111 13 164 1-29 5-49 1-63-9 18-10 32-28 40-47 11-27 12-57 16-86 5-38 13-74 23-110 11-37 26-73 40-109 15-39 21-79 26-120a1213 1213 0 0 0 10-188c-1-22-2-43 0-65l6-30c10-2 19-9 21-20l8-49c13-6 19-20 16-34Zm-297-564c-1-4 0-4 2-1l-2 1Z" class="cls-8"/><path d="M10370 2277c144-336-210-1139-303-365 13 114-33 219-62 327-15 118-32 251 34 358 23 41 68 55 112 56 21 82 115 32 118-34 28-118 118-216 101-342Z" class="cls-3"/></g><g id="Trees_mid_shadows"><path d="M8356 2528c-16-41 18-401-23-344-26 14-44 30-57 49l-5 4c-19 15-31 37-43 58-13 23-26 46-35 71a282 282 0 0 0-11 150c5 26 15 52 31 73a73 73 0 0 0 7 8l-1 6c47 2 158-34 137-75Z" class="cls-8"/><path d="M9025 1998c0-13-9-44-12-52-10-27-4-88-4-96 1-28-3-54-12-80-8-25-20-45-42-62-21-17-62-73-60-80-13-70-22-143-74-197-25 61-3 131-43 187-48 142-122 926-103 954 16 32 31 64 52 94 9 15 22 26 35 37l104-180 11-18c9-14 21-17 36-14 25 6 52 8 78 7-1-36 0-72 7-108 5-29 8-58 9-87 1-34 3-69 8-103 3-16-1-33 0-50 3-51 8-101 10-152Z" class="cls-5"/><path d="M10315 2130c-17-57-61-106-112-134l-42-21-20-11-7-5-3-2a158 158 0 0 1-19-19l-1-2-2-2-6-10-22-38-8-17-6 43c13 114-33 219-62 327-15 118-32 251 34 358 23 41 68 55 112 56 3 9 6 17 10 23 6-4 11-9 13-16 2-6 1-13-1-19l3-10c3-10 2-19 2-29l-1-27-1-52c-1-18-2-35-1-52l1-11v-1l2-8 7-23 3-6 5-10 13-21 14-18 1-2 4-5 8-10 34-44c20-26 38-56 47-88 9-31 9-64 0-94Zm-210 488 2 2-2-2Zm29-458c-3-4-1-2 0 0Zm6 452 4 2-4-2Z" class="cls-9"/></g><g id="Trees_front"><path d="M8918 2044c-7-38-27-69-52-97-42-58 34-146-37-204-16-10-25-28-47-24-47 2 21-93-18-130-75-55-4-60-48-132-43-72-137-23-130 53-2 37-55 17-75 41-29 16-26 45-27 74-34 15-56 37-65 74-8 22-5 51-22 67-64 49-24 134-27 200-66 100-62 101-34 219-30 51-45 113-8 164 6 49-40 50-21 120 28 125 182 126 259 103 112-7 210-13 243-146 16-49-57-97-3-141 72-56 140-144 112-241ZM10619 2819c-2-90-141-125-115-219 8-36 11-73 12-109-33-147-159-223-263-82-32 61-43 131-63 197 1 113-163 103-188 221-16 30 12 68-11 95-6 24 9 53-7 73-69 105 16 170 42 269 67 131 292 126 359-11 35-52 96-75 136-123 68-84 109-202 98-311Zm-300 336 1-2c1 2 1 2-1 2ZM6857 2086c-10-7-22-18-21-29 2-15-5-24-9-36-7-22-16-42-36-54 2-14 10-23 15-33 11-23 18-47 7-70-13-28-34-51-57-71-9-7-17-14-16-26l5-37c4-28-1-53-22-75-20-19-47-21-68-2-18 16-32 35-33 60 0 6-1 11-6 15-10 0-19-1-29 1-44 9-61 50-58 93 1 12 0 18-13 23-18 6-29 26-28 46 0 11 2 22 4 34-13 3-23 11-34 17-14 7-16 19-16 33 1 8 4 16 8 24l24 46c-23 16-18 41-19 67-34-18-57-6-77 18l-2 1-1 19c-8 27-3 55 2 82 1 8 6 15 11 22 7 8 12 18 13 30 2 12-2 22-14 29-32 21-41 46-29 84 1 4 4 9 4 13-1 43 20 77 44 110l26 29c18 22 36 42 65 53 88 41 176 14 262-15 31-14 56-50 50-84-2-16-9-31-15-48 14-8 25-20 36-31 25-27 45-56 35-97-4-18-7-35-15-52-13-26-11-50 13-71 10-10 21-21 23-36 4-33 2-62-29-83Z" class="cls-4"/><path d="M5234 2841c-3-121-142-203-112-327 5-50 8-67 12-139 8-131-94-369-201-348-90 3-143 73-198 135-124 116-130 296-139 455 8 68-41 117-63 176-33 93-34 194-11 289 34 176 278 222 426 154 141-66 308-210 286-395Zm-580 329-2 2 2-2Zm476-724v1-1ZM9976 1867c-30-39-78-60-104-102-37-58-53-125-67-189-17-46-68-67-79-114-11-80 10-190-80-226-162-15-131 205-186 304-25 52-73 80-109 125-116 123-34 165-58 292-46 107 37 229-52 323-55 53-93 169-29 226 75 51 183-3 262 42 109 77 57 141 212 165 168 78 262-117 241-261 1-59-37-111-50-167-37-144 237-213 99-418Z" class="cls-3"/></g><path id="Trees_front_shadows" d="M9724 2717c-23-22-56-16-83-28-40-16-84-41-107-75-76-38 15 123 49 126 30 25 69 6 103 0 20-5 78-1 38-23Z" class="cls-9"/><g id="Tree_stalks"><path d="M9846 1752c12 15 28 25 44 36 10 8 23 13 27 27-7 7-15 9-25 6-27-9-53-22-76-38-36-25-65-57-95-87-30-29-56-60-68-101 0-2-2-5-6-4l-2 6-16 117c0 6 2 12 6 17 46 59 97 113 163 150 5 2 11 4 9 14-85-19-132-83-178-148-5 8-4 15-4 22-2 35 3 71-3 106-2 11 4 14 13 17 20 9 41 16 61 27 74 39 152 65 237 71 7 1 14 0 18 8-7 9-17 10-26 13-34 8-68 4-101-3a522 522 0 0 1-202-104c-4 38-4 75-10 109-7 33 7 49 32 65 49 32 100 58 159 63 13 1 27 4 38 13-42 3-84 5-125-11-39-17-75-40-109-70-6 25-10 47-11 69-4 52-15 104-24 156-7 37-12 75-17 113-7 45-12 92-10 138 1 14-2 27-12 37-8-9-12-20-17-30 6-8 8-17 8-26 0-27 3-54 4-81 2-35 4-70 11-105 2-9 3-19 0-33-65 57-141 79-223 82-6 1-11-2-14-9 4-10 14-13 23-15 49-8 96-26 143-43 21-7 42-14 62-23 7-2 14-5 15-13l3-76c-45 47-94 83-161 91 3-8 10-9 15-11 38-16 73-36 103-65 12-12 26-23 40-34 5-4 8-8 9-15 6-61 16-122 24-183 1-2 0-4-1-8-30 33-68 50-107 66-58 24-103 36-122 30 16-19 38-26 58-35 34-16 65-35 97-53 24-12 47-26 67-44 7-6 13-12 13-21 1-48 15-94 19-142 7-76 26-150 23-227-1-26 5-53 7-79 1-5 1-9-2-18l-43 60c-27 38-56 75-96 102l-39 28-14 10c-6 3-14 5-19-2-5-8 1-13 6-18l35-27c47-32 84-76 120-120l43-59c7-11 13-23 13-36 1-56 8-112 10-168 4-2 7-1 8 4-2 67 6 134 4 202 0 9 1 17 8 24 38 36 70 78 115 105 3 1 4 4 1 10-58-16-91-62-126-108 0 23-8 45 2 65 16 29 31 59 52 85 40 49 89 88 136 129ZM8516 2591c9-30 11-61 18-94-38 1-74 10-109-11 8-9 17-9 25-9h63c24-1 26-4 28-27l10-95c2-12 4-24 1-37-33-11-65-22-90-46 31 8 58 27 93 34l7-73c0-8-7-11-13-13-49-19-87-52-125-87-5-4-10-9-11-18 10 0 17 6 23 11 35 25 70 51 108 72 5 3 10 8 18 7 7-8 4-18 4-27 0-16 5-35-2-49s-25-19-39-27a248 248 0 0 1-79-90v-8c14 3 22 12 31 20l47 42 39 29c5-8 5-18 5-26 2-32 6-64 10-95 2-18-3-28-18-40-28-21-48-50-64-81-10-17-21-34-23-55 36 45 60 100 106 141 5-23 4-43 7-64 6-54 5-54-27-98-4-6-10-9-16-13-21-13-39-30-62-48 27-1 41 19 62 25-8-25-16-49-19-73 0-3 0-6 5-10 30 36 37 84 67 123 8-25 9-48 11-71 1-18 0-36 4-54 2-9 4-16 14-19 10 7 14 17 15 28 5 38 6 76 0 114-8 45-12 91-16 136-1 15-7 30-2 48 40-36 72-77 112-115 4 13-3 20-8 27-29 39-62 77-99 109-8 7-14 13-15 24-7 37-12 75-16 113 0 3 0 6 4 8l49-36 108-79c13-9 25-20 44-14 2 13-6 21-14 29-49 50-101 95-165 126-21 10-30 23-27 46 1 6-1 13 3 21 45-34 87-70 131-110 2 11-3 15-6 19-36 43-78 81-119 119-9 8-15 16-16 28l-2 27c0 24 1 49-3 73-1 7-1 14 2 22 32-15 63-30 95-42 33-11 62-32 99-34-2 15-9 23-19 30-34 26-73 42-111 60-16 8-33 13-50 17-17 3-20 6-20 25 0 22-2 44-5 66-2 10-5 20-4 31-8 41-21 82-21 125-6 21-9 43-8 66-1 7-1 15-4 21-28 8-41-2-42-29-1-13 5-24 5-37 2-2 3-6 3-9 0-34 7-66 13-99ZM10176 3366c56-276 39-560 99-835 42-82 9 292 5 316 0 174-18 344-71 510-12 54-48 102-52 157-48-6 19-117 19-148ZM8220 2373c7-20 2-41 3-62 0-6-5-9-9-13-20-19-35-43-50-66l-5-9c-2-5-3-10 2-14s10-1 15 2c8 7 15 15 21 24l28 40c13-52 4-107 29-156 11 8 11 17 11 26 0 24 2 47-3 71-1 5-1 11 4 16 8 0 12-8 17-13 13-11 24-25 39-35 4-2 8-8 14-3v4c-22 17-41 36-60 54a59 59 0 0 0-18 34l-8 43c0 5-2 10 5 14 20-7 41-17 60-28 8-2 16-8 28-6-11 10-22 13-32 19l-44 22c-21 10-26 25-19 49l4-1 72-49c9-2 15-10 27-12-4 14-15 17-23 24-23 17-47 33-72 48-11 6-15 15-16 27-3 26-2 52-7 78-1 4-3 10 4 14l70-63c11-9 20-20 37-30-10 22-24 34-37 47-18 22-42 38-64 56-10 8-14 16-9 28 9 2 14-3 20-6l58-28c7-3 13-6 20 0-26 18-52 36-82 46-21 7-27 18-26 38-6 38-7 77-8 115l-1 19c0 8-6 10-12 11-7-6-6-14-5-22 1-31 6-62 5-94-1-7 3-14 4-22 5-7 3-14 4-22 0-26-2-52 4-78v-8c-2-16 3-32 4-48s-4-27-17-36c-23-16-43-33-64-50-6-5-13-9-17-21 35 20 63 45 96 66 3-14 12-26-2-36l4-4ZM8991 2498c17-225 30-451 46-676 32-143 47-273 40-426-5-105 22-210 11-315 78-88 24 281 22 315-19 254-47 507-48 762-6 84-9 168-22 251-11 35 8 108-49 89Z" class="cls-11"/><path d="M9296 1956c44-20 88-40 123-75 10-10 20-20 34-24 7 8 3 14 1 20-16 39-43 68-80 90-32 19-66 35-99 52-15 3-28 13-43 15-12 2-24 3-35 1-7-2-13-6-15-13-1-8 5-11 10-14 32-22 69-34 103-52ZM9287 1777a716 716 0 0 0 271-133c3 9-2 12-6 16-30 33-67 55-105 77-49 28-102 42-156 57-13 4-26 9-40 9-7 0-12-2-14-11 17-4 35-4 50-15ZM8414 2280c9-5 18-2 26 3 31 20 61 43 94 61 3 2 5 4 5 8-35 14-120-35-125-72ZM8632 2472c39 6 76 6 115 14-30 19-87 12-115-14ZM10319 3155c7-20 132-133 153-139 2 11-4 19-10 26-34 43-76 78-122 109-6 4-6 3-21 4ZM10132 2954c-6 8-14 7-22 5-25-6-45-19-61-38-14-18-24-37-33-58-3-7-3-14 3-21 10 1 17 7 22 14 25 35 52 68 88 92 2 1 2 4 3 6ZM9996 2961c-21-15-29-32-23-55 11 6 13 20 23 26 25 28 57 48 89 66 10 5 21 8 29 17-8 8-16 5-23 3-32-6-57-25-81-44l-14-13ZM10473 2930c-33 55-72 103-121 143 9-32 34-53 54-77 19-24 36-52 67-66ZM9391 2494c-15 6-32 5-48 9l-23 4c5-27 26-41 42-58 15-15 34-27 48-42 8-8 17-12 27-16 18-6 36 5 40 22 2 8-3 12-9 15-16 8-29 21-43 32-13 11-28 20-42 29 1 6 5 5 8 5ZM9925 2436c-11-1-21 3-31 4-23 2-45 8-68 0l-1 4 88 63c-9 14-20 13-31 9-23-8-45-18-66-31-37-24-74-49-108-78-19-16-34-36-48-56-3-4-4-8-5-12-1-8 2-12 11-11 7 1 12 6 18 10l73 58c26 23 58 29 91 31 23 2 46 0 68 0 5 1 10-1 13 3 1 3-2 4-4 6ZM9892 2331c-9-5-20-6-30-7-41-4-76-21-108-45-40-30-75-65-109-100-7-7-7-8-10-23 23 10 41 26 61 40 43 32 87 64 136 87l35 15c16 6 33 8 47 20-3 12-13 12-22 13ZM9808 2715c-29-14-58-26-86-41-27-14-53-29-75-51-7-7-14-14-11-26 11-5 19 2 28 8 55 37 116 64 176 92l6 2c12 7 26 9 38 14 7 3 15 4 18 15-5 6-13 8-20 6-22-5-46-3-66-17l-8-2ZM8220 2373l-5 4c-31-27-64-52-89-88 13 5 76 62 94 84ZM8215 2502v9c-29-10-50-32-73-51-9-7-18-16-26-25 20 6 35 20 50 33 16 13 31 26 49 34ZM5626 814c-22 100-45 199-52 301 54 8 98-23 150-22-9 25-96 58-156 60-28 198-74 403-73 601 81-16 162-51 234-94 29-18 55-44 88-55 36 15-4 44-20 57-73 66-167 95-258 129-16 7-31 15-51 6 3 16-4 30 4 45 79-20 156-37 230-72 13-6 24-22 39-10-16 33-57 44-86 63-60 32-123 42-190 56 2 77-2 153-9 228-4 27 18 36 39 42 34 6 69 14 104 16 28 21 304-58 220-5a412 412 0 0 1-365 12c-22 129-30 260-49 390-9 121-1 242-3 364v47c10 43-61 34-43-4-18-372 91-310-137-303 33-22 126-13 146-46 0-9 3-19 0-28-95 14-182-10-266-48-12-9-41-18-36-36 4-7 11-5 16-3 86 38 178 47 269 62 18 2 21 1 22-15 15-98 18-196 31-294 4-79 14-70-56-110-35-27-211-194-179-231 33-5 75 77 104 98 42 43 79 98 136 123 18-115 19-240 39-358 27-183 29-370 59-553 1-14-4-22-17-27-34-16-94-72-65-110 40 20 42 71 85 95 24-78 34-156 50-235 4-34 59-259 46-136Z" class="cls-11"/><path d="M5135 2869c-39-7-80-11-117-27l-57-21c-24-10-46-22-67-38-7-6-10-12-10-21-1-14 3-27 4-41 0-47 4-93 8-139s10-91 20-136c8-37 19-74 25-111 10-65 16-130 22-195 4-34 8-69 21-101 24-55-9-58-24-32-5 7-4 17-9 25l-22 69c-4 13-13 23-24 31-24 19-50 35-79 45-4 1-10 1-11 8 40 5 69-22 103-34 4 7 3 14 2 20-5 50-14 100-12 151v10c-10 62-21 123-37 184-11 38-19 78-20 118-1 20-5 39-12 57l-22 56c-22 51-46 101-94 135-41 30-78 65-131 73l-3 4c4 15 16 21 30 22 17 2 33-1 49-9 30-15 57-35 82-56 39-32 72-68 85-118 1-2 2-3 6-2-4 25-3 51-3 76 0 31 3 63-1 94-4 33-2 66 1 99 1 8 1 17 12 20 10-7 8-18 9-27 0-28-1-57 4-85l15-90c3-18 1-36 10-54 30 18 63 27 93 41 55 27 112 32 171 28 9 0 18-2 23-14-11-12-26-12-40-15ZM6184 2632l1-108c0-14-4-24-14-33-20-20-41-38-54-65 25 15 41 39 66 58 3-23 0-44 2-64 3-26-6-45-26-62-25-22-46-49-66-77-4-6-11-11-10-21 24 9 33 31 49 46l49 46c-21-30-41-61-56-95 22 19 38 44 56 68 7-7 8-15 8-22 0-35 6-69 11-103 3-16-5-25-14-35l-58-71c-2-2-3-5-3-8 27 19 47 46 75 69 7-21 9-40 13-59 5-19 4-36-7-54-10-15-15-33-22-49-3-7-5-15-1-24 13 9 14 25 20 37l21 40c12-20 8-43 24-63 11 51-8 98-5 147 8 0 10-6 13-10 17-20 37-37 52-59 5-8 10-10 19-5 1 11-5 19-11 26-21 24-42 48-66 69-6 6-10 11-10 20-1 35-5 70-6 107l37-46c14-17 28-35 44-50 6-4 10-12 22-9-6 20-18 36-31 51l-61 66a67 67 0 0 0-19 46l-11 136c-2 19-1 39-1 63 40-35 71-75 116-99 3 9-3 14-8 18-24 25-49 49-76 71l-24 20c-6 5-8 11-9 18-2 23-4 46-3 69 1 18-4 37-5 55-1 38 5 76 7 114l2 25c0 23-4 25-25 14l-4-25-1-29v-154ZM6644 2478c-5 39-4 78-4 117-1 9-2 19 2 27-6 12-4 25-2 36 7 34 2 67 3 101-11 3-20 1-28 2-5-8-9-16-10-25 0-7 3-15-3-21l-1-83c-2-58 2-116 9-174 6-43 3-87 8-130 6-45 9-90 11-135 3-82 19-162 28-244 8-71 12-144 33-213 5-18 7-37 22-52 6 24 0 44-4 65-14 86-24 173-36 259l-18 126c-2 7-2 15-2 23-3 59-5 119-5 179-4 5-4 11-3 18v124ZM5372 1206c20 45 44 88 77 125 5 7 13 11 8 22-8 6-15 0-23-3-25-12-41-32-55-55l-24-39c-7-22-21-42-29-63-5-11-8-21 2-31 23 7 30 29 44 44ZM5451 901c14 10 20 25 27 40 16 36 34 71 51 107 4 7 7 13 1 22-14-1-22-11-29-21-23-33-46-66-58-105l-4-9c-2-9-8-16-3-27 2-4 9-5 14-7ZM5742 1031c-27 32-60 57-100 70l-10 4c-6 1-11 0-14-6-3-5-1-9 2-13l12-11 40-29c26-18 51-36 71-61 3-2 5-4 10-2 6 18-4 33-11 48Z" class="cls-11"/><path d="M4851 2229c-1 11-6 13-11 14l-61 15c-23 6-43-1-62-15 45 0 89-17 134-14ZM5284 1362c13-3 18 6 24 13 18 24 33 48 47 74 20 37 46 71 73 103 7 8 14 16 19 25 6 11 0 18-12 17-9-1-15-6-22-11-39-28-68-65-91-107-17-29-33-59-53-87-4-6-8-13-3-21 5-7 11-7 18-6ZM5152 2143c30 16 56 30 84 38 28 9 58 8 89 21-51 12-144-11-173-59ZM5264 1550c35 24 69 48 103 74 3 2 0 8-4 6-41-16-76-40-104-75-2-3 2-7 5-5ZM6150 1630c2-1 4 1 3 3-15 30-39 52-63 73-26 22-50 47-77 68-24 19-32 43-33 71-1 10-3 20-2 31s3 2 4 1c47-64 107-113 170-160 2-1 5 1 3 3-15 24-36 42-54 63-19 21-39 40-59 60s1 5 3 4c22-13 41-31 65-44 2-1 4 1 3 3-2 7-8 10-11 14-5 6-45 38-55 48-20 17-39 35-60 51-11 8-16 18-15 32 1 45-2 89-8 133 0 4 0 9 4 14s1 1 2 0c31-18 53-48 87-65 1 0 3 1 3 3-2 10-9 14-14 20l-18 18c-7 5-17 21-22 26l-39 37c-12 10-11 26-10 39 0 27-5 53-7 79-3 47-5 94 1 141 1 9-1 18 2 27s1 1 2 1c7 2 11-2 15-5l52-37c7-6 15-9 24-9s1 1 2 1c6 9 1 17-5 24-12 9-23 20-36 28-17 10-31 23-46 35-5 4-10 9-9 16 4 22-7 43-5 66 2 18-3 36-4 55-1 12-7 17-19 17-12-1-20-9-19-20 2-22-3-44 4-66 3-10 1-22 1-33 0-7-2-12-10-14-27-8-53-18-80-25-16-4-30-12-43-21-8-6-18-11-19-22s0-1 0-1c6-9 15-7 22-6h1c44 13 83 37 124 57s3 0 3-2c3-7 1-14 2-21 0-15-4-30 0-45s-2-21-15-26c-23-8-45-18-65-31-5-3-10-5-8-12 29 12 58 26 89 33l2-4-81-54c-25-18-53-30-74-53-5-5-11-3-16-1-41 18-85 26-130 27-25 1-51-1-76-2-3 0-7 0-9-4s0-2 1-3c5-4 12-5 19-6 52-12 106-19 159-33 24-6 49-13 73-23 10-4 21-8 34-5s1 2 1 3c-3 10-12 15-21 21-7 5-17 8-26 16s-1 2 0 3c22 20 47 34 72 48 20 11 62 47 76 54 1 0 2 0 3-2 5-16 5-33 8-49 1-6-1-12-6-15-18-13-34-30-56-38s0 0-1-1l-11-15c-4-5 0-3 1-3 3-1 5 1 7 2 14 6 27 14 39 24 7 6 15 12 27 14s2-1 2-2l11-62c5-31 1-61 4-92 2-11-3-20-10-28-40-47-76-98-105-152l-10-18c-3-6 2-4 4-2 20 25 37 52 55 78l65 89c22 30 2 1 3-1 4-5 2-11 3-16 1-33-2-65 3-98 3-17-3-33-14-48-41-51-81-103-114-159-3-5-7-9-7-16s1-2 3-2c6 1 9 7 12 11 22 31 44 63 67 93l49 58c1 1 3 1 3-1l10-79c2-15 2-32 6-47 7-26-3-43-22-58-25-18-45-41-64-65-1-2 1-5 3-3 27 20 49 47 79 67s3 0 4-1c2-14-4-22-12-30-30-32-54-68-77-105-2-2 1-5 3-3 26 31 48 66 78 95s2 1 3 0c5-4 3-10 3-14 2-38-2-75 4-113 5-32-14-58-27-85-8-16-15-32-21-49s2-4 3-2c6 7 9 15 13 23l16 31 16 33c6 12 3 1 4 0 8-14 7-29 9-42 7-42 11-85 21-126 5-19 15-37 22-56 3-6 8-10 15-10 8 1 10 7 11 13 3 8 3 15 1 23-11 41-17 82-23 124l-17 111c-1 4-1 8 2 13s2 2 3 1c48-29 85-72 136-102 2-1 3 0 3 2 2 18-12 25-17 36-6 11-20 13-26 25s0 3 2 3c20-3 37-12 56-17s2 0 2 1c2 7-2 8-5 10-14 8-29 14-45 16-31 5-54 24-79 41a86 86 0 0 0-42 89c3 23-1 47-5 70-2 16 1 30 3 45s1 2 2 2c6-1 8-5 11-8 32-36 72-63 109-94 10-8 18-21 30-28Z" class="cls-11"/><path d="M5545 2074c86-15 171-18 255-30 3 0 6 2 8 6 0 11-9 16-18 21-29 15-60 22-92 25-34 3-69 7-104 6-28-1-38-7-49-28ZM5573 1420c1-12 9-18 17-25 35-29 75-52 113-78 16-11 30-24 46-37 9 13 1 22-5 31-13 19-31 33-49 47-31 22-62 43-96 59-8 4-16 9-26 3ZM4594 3166c0-6 4-9 9-11 39-17 66-47 93-78 17-19 36-36 56-53 6-4 12-7 19-2 6 6 5 13 2 19a357 357 0 0 1-123 132c-23 14-38 11-55-8ZM5134 2406c19 8 41 9 60 23-15 21-34 14-51 15-23-6-47-8-68-20-22-14-45-27-65-44-13-11-13-12-13-29 11-5 21-3 31 3 15 7 30 15 44 24 19 13 41 21 62 28ZM4850 2296c0 10-5 17-11 24-27 32-63 47-103 53l-21 3c-7 1-14-2-17-9-3-9 3-13 10-16l44-22c24-9 46-22 67-38 5-4 10-8 16-9 11-1 16 3 15 14ZM4640 2690c53-10 103-20 145-56 2 24-7 38-22 48-23 17-50 26-79 28-15 1-30-1-44-20ZM5134 2335c7 3 15 2 20 10-3 11-12 11-20 12-46-4-92-9-129-44 11-10 21-7 31-4l98 26ZM6258 2423c-13-1-19-11-14-21 4-8 11-14 18-20 16-16 35-30 55-41l13-5c13-1 20 8 16 20-1 5-4 8-8 12-21 21-44 37-70 51l-11 4ZM10143 2276c11 11 14 22 14 38 2 42-1 84 4 125l1 12c0 31 3 61 4 91 2 37-6 73-3 110l-4 25c11-10 19-22 25-36-3-23 5-46 4-69-3-46 5-91 9-137 6-63 11-127 12-190 0-41-2-82 3-123 2-17 5-35 2-54-3-29-12-58-17-87l-31-155c-5-25-13-49-30-70-1 37 8 72 6 108s7 72 5 109c-9-14-18-26-28-37-16-20-25-45-44-63 0 6 2 12 5 18 21 40 42 80 71 114 14 16 13 37 15 56 3 24-2 49-5 78-32-39-57-79-86-116l-4 8c23 44 45 88 77 126l6 8c7 27 7 55 5 85-13-6-19-14-25-22l-48-63c-4-5-8-10-16-11-5 11-3 21 3 30 20 33 41 65 70 92ZM6664 2447c6-21 114-134 132-139 3 11-3 19-8 26-30 43-66 78-106 108-5 4-5 4-18 5ZM6598 2233c-6 8-13 7-20 5-21-6-38-19-52-38-13-18-21-38-29-58-3-7-3-14 2-21 9 1 15 6 19 14 22 35 46 67 77 92l3 6ZM6492 2336c-19-16-25-32-20-55 9 6 11 20 20 26 21 28 48 48 77 65 8 6 18 8 25 18-7 8-14 4-21 3-27-6-48-25-69-45-5-3-8-8-12-12ZM6752 1986c-28 54-62 102-105 142 9-32 30-53 47-77s31-52 58-65Z" class="cls-11"/></g><g id="Flame_background"><path d="M7674 2301c-9 5-9 14-13 21-4 8-8 18-19 16s-19-9-21-21c-3-18 4-34 15-47 5-7 14-7 20-1 5 5 11 8 17 12-4 7-5 14 1 20ZM7432 2986c-2-10-10-13-19-16-8-2-16-5-19-13 8 0 16 7 25 2-1-6-5-7-7-8-31-18-48-46-58-79-9-29 1-54 14-81 9-16 22-30 26-48 5-24 15-44 33-61 11-2 23-12 34 0-5 18-19 29-31 41-16 15-26 33-33 54-4 10-5 20 4 31 7-12 12-23 19-33 11-17 27-30 40-45 20-21 34-45 27-77-3-12-7-25-5-38 13-8 13-23 19-34 1 7 0 14 2 21 2 8 5 16 21 15-12-19-9-38-9-57 3 8 9 14 16 19 10 9 18 19 13 34-1 3-1 6 3 10 11-16 7-32 4-48-8-35 5-63 30-87 3-3 8-5 12-7-8 30-10 59 8 87 4 6 5 13 9 19 9 17 11 33 2 51-9 16-16 34-23 51-3 5-5 11-6 18s3 13 11 14c7 2 10-4 11-10 2-19 13-34 23-50 12 7 20 18 28 29l-20 38c-13 28-19 55 0 83-4 16 1 31 8 46-11 15-25 30-28 50-2 14-8 22-19 29-25 14-21 41-27 63l4 7a52 52 0 0 1-53 11c-25-10-53-9-77-23 3-13-5-10-12-8Zm84-215c-24 2-43 11-53 32-7 16-13 33-24 46-4 6-3 12-3 18 0 16 7 30 9 45-20 8-24 22-11 37 22 25 50 37 82 38 12 1 22-6 22-17 1-20 12-34 22-49l14-30c5-13 7-26-2-38-8-9-10-19-12-30-1-13-5-26-18-31-12-3-21-10-26-21ZM7553 2227c18 10 26 26 22 48-3 14-7 28-14 41-11 21-22 41-25 65-2 24-18 30-41 23-6-2-11-6-17-1 1-6 3-11 3-17 3-39 24-71 49-100 16-18 25-36 23-59Z" class="cls-4"/></g><path id="Flame_orange_centre" d="M7516 2771c5 11 14 17 26 21 13 5 17 18 18 31 2 11 4 21 12 30 9 12 7 25 2 38l-14 30c-10 15-21 29-22 49 0 11-10 18-22 17-32-1-60-13-82-38-13-15-9-29 11-37-2-15-9-29-9-45 0-6-1-13 3-18 11-13 17-30 24-46 10-21 29-30 53-32Z" class="cls-3"/><g id="Flame_outline"><path d="M7553 2227c2 23-7 42-23 59-26 29-46 61-49 101l-3 16-21 48c-7-1-8-5-7-9 3-9 5-19 9-28 6-14 11-29 9-46-1-10 3-19 7-28 14-28 29-55 52-77 20-21 18-45-3-71-24-28-25-58-2-86l6-7c14-13 18-29 16-48-2-18-1-36 3-54 1-7 2-14 8-19l1 2c-3 31-3 63-4 95 0 12-11 21-19 31-11 14-20 28-19 47 1 13 5 25 14 34 11 11 18 25 25 40ZM7598 2973l-4 18c-8 4-9 16-20 15l-4-7c6-22 2-49 27-63 11-7 17-16 20-29 3-20 16-35 27-51 10-17 4-32-8-45-19-28-13-56 0-83l20-38c8-7 10-19 20-24 8 8 5 16 3 24-3 16-9 32-16 47-5 10-8 21-11 31-5 15-3 27 5 40 3 4 6 8 7 12 8 19 11 37-6 54a84 84 0 0 0-24 49c-1 5-1 9-5 11-16 9-21 25-30 39ZM7482 2614c-1 14 2 27 5 39 8 32-7 56-27 77-13 15-29 28-40 45-7 10-12 21-19 33-8-11-7-21-4-31 7-21 17-39 33-54 13-12 27-23 31-41 7-7 4-16 4-24 1-27-3-55 9-81 4-8 6-16 11-23 12-18 22-37 29-57 1-4 0-11 8-12 9 8 3 17 0 24-8 17-9 33-6 51-1 19-3 38 8 57-15 1-19-7-21-16l-1-20c0-8 6-17-2-26-13 18-17 38-18 59ZM7613 2190c4-13-3-20-8-27-15-19-15-30-2-51 19-30 31-63 47-95 8-15 6-36 0-52-14-37 1-69 15-101 2-5 7-8 15-6 5 15 2 31-3 46-5 17-6 35-3 51 9 41 3 77-25 110-16 18-24 42-37 62-10 15-3 29 7 42 6 7 11 14-6 21ZM7628 2661c-10 16-21 31-23 50-1 6-4 12-11 10-8-1-12-7-11-15l5-17c8-18 15-35 24-51 9-18 7-34-2-51-4-6-5-13-9-19-18-28-16-57-8-87 3-13 8-25 17-36 13 13 8 27 5 39-7 27-9 52 6 76l4 10c16 30 20 60 2 91Z" class="cls-6"/><path d="M7427 2682c-18 17-28 37-33 61-4 18-17 32-26 49-13 26-23 51-14 80 10 33 27 61 58 79 2 2 6 3 7 8-9 5-17-2-25-2-31-30-58-64-58-108 0-35 11-70 37-96 5-5 7-10 9-16 5-20 15-37 29-52 8-8 12-18 15-29 2-7 3-17 17-15-4 16-11 28-16 41ZM7674 2301c-6-6-5-13-1-20 16-16 32-30 56-33 0 23-29 51-55 53ZM7736 2315c-14 19-34 27-50 41-3 2-8 0-10-4 9-17 31-31 60-37Z" class="cls-6"/></g><g id="Tent"><path d="M9724 2972c-28-36-45-76-62-117-16-39-35-76-58-111l-34-75c-10-15-12-33-20-49l-17-34c-8-9-12-20-17-30-2-13-12-22-16-33-9-21-23-34-48-29-8 1-17 0-24-1-13-3-25-3-37 1-16 6-32 5-49 8l-22 4-50 1c-7 5-16 3-24 4-46 2-92-6-139-5-30 1-61 2-91-4-8-1-16-4-25-4-27 1-53-1-79-7-15-4-27 0-35 14l-11 18-104 180-17 29c-40 72-69 149-110 220-11-10-6-31-24-42l13 53c21-9 41 8 61-2 3 14 9 25 23 29 19 6 39 7 57 16l45 14c17 9 36 15 52 25 17 12 36 20 56 26 15 5 31 9 45 16 19 10 39 17 60 21 20 3 32 11 37 35 6 36 20 39 48 14l3-5-4-4-11 7c-20-33-32-70-38-107-8-49-23-96-32-144-4-21-11-40-18-60-21-52-38-105-51-160-8-34-23-66-38-97-11-25-17-52-26-78 10-4 16 2 22 2l89-1c6 0 11 1 16 4 56 3 111 11 167 17 25 2 51 3 76-2 19-3 38-2 58 2l-31 15c-9 4-16 10-24 16-10 10-10 20-7 32 11 46 28 91 46 135 9 25 13 52 21 78 25 90 44 181 80 267 6 14 10 28 12 47-63-15-124-12-185 3 7 6 16 2 25 4 36-1 71 0 107 4 19 2 37 3 56 8 6-1 11 2 16 6 17 12 24 10 33-10 0-20 7-38 19-54 19-23 43-39 70-51 15-8 32-13 48-20 34-14 69-19 106-17 7 0 15 1 18-7 3-7-3-11-7-15Zm-886 47c-10 1-19-4-29-4-9-5-23-8-31-12-16-12-35-20-54-26-6 1-10-2-15-6 12-48 26-94 43-141 16-45 28-93 46-138 19-46 39-91 74-130 4 16 2 31 2 45v70c0 5-2 9-3 14-4 39-6 78-12 117-5 24-5 50-6 76-2 45-1 90-15 135Zm56-447c25 50 49 99 62 152 7 33 16 65 26 97 9 28 13 57 18 85 9 45 28 87 34 133 3 19 11 37 12 54-65-14-122-49-189-62 0-38-1-73 4-109 4-31 6-63 9-94 5-41 4-84 10-125 6-43 4-87 14-131Zm549 540c-17-31-163-509-161-530 10 10 12 21 15 32 22 70 46 138 60 210 8 38 26 73 37 110 15 55 32 109 55 161 3 8 3 9-6 17Z" class="cls-10"/><path d="M9129 3172q-9 22-25 19c4-22 7-25 25-19ZM9107 3148c5-9 15-11 24-11 27-1 53-8 79-13 8-1 15-2 23 0 8 6 17 2 25 4-7 4-15 4-22 4-35-2-67 8-101 12l-23 8-5-4ZM9738 3005c6-25 13-32 30-32-4 24-11 32-30 32ZM9108 3107c-11-27-19-55-27-83-10-35-17-71-32-105-11-52-23-105-45-154-33-125-66-214-88-229-2 11 5 19 8 27 22 53 49 104 62 160 4 17 7 34 14 50 15 49 32 97 44 146 15 70 36 137 58 205 13-4 9-10 6-17Z" class="cls-10"/></g><g id="sparks"><path d="M8411 967c-4 85-36 11-22-31 16-29 27 13 22 30ZM7386 1005c3-81 49 22 14 38-17-7-16-23-14-38ZM6736 662c-10 9-49 68-47 33 11-14 26-63 46-33ZM6516 1111c-22 27-44-37-40-52 19 0 26 37 40 52ZM8309 1787c-14-17-17-46-2-63 18 7 15 56 2 63ZM7830 2767c-20 20-24-21-35-35 0 0 4-4 6-4 22 3 30 13 29 39ZM6470 1752l-19 42c-36 17 6-81 19-42ZM9066 763c-2 22-23 45-39 55-5-12 29-67 39-55ZM7782 1729l-43 58c-4-18 19-68 43-58ZM7443 2246c15-19 19-27 34-7-13 13-19 30-34 7ZM8532 1401c3 12-4 18-12 26-18-23 7-74 12-26ZM7712 771c-1 14-7 82-21 47 6-13 4-50 21-47ZM9327 934c10-10 16-40 31-33 8 12-19 57-31 33ZM7324 2629c-6-16-26-28-9-39 11 17 37 24 9 39ZM7899 2064c-12 29-24-34-13-40 14 8 9 24 13 40ZM8721 1218c14-12 16 28 19 39-18 20-18-23-19-39ZM8388 1717c-6 14-32 30-14 44 3-12 37-45 14-44ZM6150 505c14 20 10 40-10 56l10-56ZM7717 2458c-11-11-12-20 0-31 17 7 19 29 0 31ZM7145 1963c-9 26-28-29-18-39 15 6 12 25 18 39ZM7204 1440c8-14 2-53 20-48-6 14 2 55-20 48ZM7649 543c-4-13 4-64 13-33-3 10 1 38-13 32ZM7429 1905c6 10 22 35 6 38-4-14-25-28-6-38ZM8220 1047c-1 10-1 30-16 24 1-17 17-63 16-24ZM7927 349c-1 16 7 35-10 44-9-12-2-41 10-44ZM8026 1793c-2-9 31-56 36-37-12 12-18 36-36 37ZM8707 375c8 9 22 34 7 38-2-13-23-30-7-38ZM7323 2263c-5-17-20-28-13-44 15 1 21 27 13 44ZM7241 575c-9 10-18 35-26 16 8-8 14-30 26-16ZM7098 1840c-3 13-25 56-25 27 5-8 13-41 25-27ZM7269 1170l-1 32c-15 25-16-41 1-32ZM8410 6c-9 9-18 33-27 16 9-8 16-34 27-16ZM6337 1628c-1-10-13-58 6-37-2 11 7 35-6 37ZM6925 963c-12 30-17-14-15-27l15 27ZM8296 730c-11 4-28 27-35 15 12-5 24-30 35-15ZM6409 1552l-16 24c-8-12 7-48 16-24ZM7951 1396c5-12 0-35 14-38 4 8 0 45-14 38ZM6546 340c-3-12-30-35-14-42 4 13 31 36 14 42ZM7484 1318c-2-10-14-57 5-38-2 10 8 38-5 38ZM5908 724c-4-12-30-31-14-38 4 12 31 31 14 38ZM7400 2394c-4-7-15-34-2-30 4 8 16 24 2 30ZM8260 1289c-9 28-21-6-9-19l8 19ZM7579 1717c-2-9 4-41 14-32-4 9-1 36-14 32ZM7640 1243c-6 11-11 30-16 11 5-12 7-31 16-11ZM7139 1325c-3-12-27-33-11-38 3 12 27 33 10 38ZM6649 1383c0 10-9 45-17 22 5-8 6-27 17-22ZM7603 122c-9-10-18-19-18-32 11 2 29 26 18 32ZM6924 1298c-7-7-28-28-17-33 8 7 27 23 17 32ZM7847 2744c0 11 15 33-2 33 1-11-15-34 2-33ZM7664 1020c-4-8-22-22-7-26 4 9 21 21 7 26ZM8100 1170l-6 3c-29-29-15-34 6-3ZM7345 747c0-11-19-33-3-36 0 11 20 35 3 36ZM6197 772c0-9-13-27 1-27-1 8 10 27-1 27ZM6961 131c-9 15-13-2-20-10 5-14 13 4 20 10ZM9207 270c-4-10-24-22-10-28 4 9 25 21 10 28ZM7575 1434c8-12 12-9 15 4-5 13-10 8-15-4ZM7830 1566c-11-15 0-16 7-26 13 8-2 14-8 26ZM7724 1289c-5-6-9-9-8-10 13-28 20-15 8 10ZM9125 570c13 13 3 16-4 27-11-9 0-15 4-27ZM6982 895c11-4 16 10 24 15-6 9-18-10-24-15ZM8899 1648c-10-5-6-13-4-21l15-14c5-4 10-8 16-2 7 6 2 11-2 15-8 8-15 16-25 22ZM8923 1164c11 14-4 23-7 34-5 2-10 6-15-1-3-5 1-8 4-12 6-7 11-15 18-21ZM6882 1939c11 16 11 33 7 51-14-7-17-27-7-51Z" class="cls-4"/><path d="M6638 1417c-4-13 4-22 9-33 10 16 7 25-9 33ZM7726 2015c-16-7-17-10-12-31 16 3 16 5 11 31ZM7693 2114c8 19 5 26-12 33-6-14 1-23 12-33Z" class="cls-4"/></g><g id="grass"><path d="m8550 3363-9 45c13-10 23-41 37-33-15 18-23 49-43 60-19-14 0-70 15-72ZM7370 3714l23 4-4-28c18 14 19 19 12 39-1 4 4 9 6 14v12c-4-1-10 0-13-3l-24-38ZM9538 3138l-13 48c-1 4-6 7-10 10-2-5-8-11-7-15 4-15 10-31 16-46 1-3 6-5 10-7l4 10ZM10031 3399c13-32 38 48 32 57-19-9-20-39-32-57ZM6216 2812c8-18 6-43 23-54 5 23-13 107-23 54ZM10034 3470l-37-45c17-25 42 14 37 45ZM8162 3796l-17 46c-1 2-6 4-10 6l-3-11c5-15 9-30 15-44 1-3 5-5 9-7l6 10ZM9257 3636c-16 12-27 36-48 36 3-20 30-50 48-36ZM9562 3139l-9 35c-1 2-6 4-9 6-2-3-6-7-6-10l12-33c1-2 6-3 9-3 1-1 2 4 3 5ZM9150 3619c-6 12-6 30-20 32-18-5 12-50 20-32ZM9149 3232l-32 46c-6-26 34-76 32-46ZM9254 3602l-43 41c-1-17 14-33 43-41ZM6363 3766c6 13 28 26 23 40-13-1-37-32-23-40ZM5751 3123c-17-47 8-20 20 7-6 0-24 6-20-7ZM6399 3736c10 14 16 29 12 46-15-10-20-30-12-46ZM8986 3587c5 16 28 39 15 43-8-16-30-23-15-43ZM5706 3400c12-3 19 19 29 27-7 8-25-18-29-27Z" class="cls-7"/><path d="M5751 3123c3 4 11 27-3 15-24-19-27-47 3-15ZM6376 3748c7 13 20 24 18 41-11-5-29-35-18-41ZM7924 3677l29-32 6 5-28 33-7-6ZM8070 3922l-24-31 3-4 25 31-4 4ZM9019 3578l10 35c-19-4-21-9-10-35ZM8229 3848l-15 34-7-3 13-36 9 5ZM6261 2790c-1 10-9 53-17 28 5-9 4-33 17-28ZM9217 3269c-4 7-31 19-28 5 9-2 25-19 28-5ZM5145 3192l-6 28c-12 0-3-34 6-28ZM5890 3397c-11-7-7-19-7-30 9-6 16 29 7 30ZM5152 3130c20-24 7 18-2 29-11-4 2-20 2-29ZM8551 3448c9-8 15-41 28-30-9 8-16 40-28 30ZM9491 3148c-7 5-11 10-16 12-2 1-6-3-9-5l14-15 11 8ZM9149 3233l21-16c4 12-28 46-21 16ZM8108 3912l-6-1-5-28 7-2 4 31ZM8630 3352c-9 8-14 40-27 31 9-8 15-39 27-31ZM6467 3793l-11 23c-10-3-2-35 11-23ZM6495 3764c-3 6-2 24-11 21 2-10-4-27 11-21ZM7414 3686l11 31-8 3-10-32 7-2ZM5795 3141c-4-10-24-25-10-30 4 9 24 24 10 30ZM8080 3909l-13-25 5-2 13 25-5 2ZM5188 3142c11 13 4 14-4 24-13-9-4-13 4-24ZM5782 3370c4 13 15 18 6 27-7-10-16-12-6-27ZM10097 3433c-17 10-29-4-15-18l15 18ZM9175 3647c-11-13 3-15 10-24 10 7-5 15-10 24ZM5754 3418c-2-10-23-26-11-32 3 10 25 27 11 32ZM5997 2928l5-51c4 4 11 8 12 13l4 72-9 1-12-35ZM7412 3758c-21-5-23-21-30-34 16 3 20 8 30 34Z" class="cls-7"/><path d="M7964 3651c-8 16-20 25-31 38 0-17 9-29 31-38Z" class="cls-7"/></g><path id="Bikes" d="M6138 2820c-4-5-6-11-8-17-15-13-31-24-52-25l-5-1c-2 0-1 0-1-1l-1-1v-61l1-4v-1l1-1 3-3h3c25-8 35-6 39 8 2 7 2 11-3 16l-9 3-6 2h-1l-3 1c-1 0-3-1-4 1-1 0-3 1-3 3l1 3v1c0 2 2 2 3 2l2 1 1 1h1l5 1h7l10-3c10-4 17-11 17-23 0-16-10-27-28-34v-1h-1l-1-1v-3l1-1h2l2-1h2l2-1v-3c-2-6-8-4-12-4-5 1-10-1-14 3-1 2 0 3 1 4l1 1h3l1 1 1 1v2l-1 1v2l-1 1h-1l-2 1h-8l-7 1h-9l-3 1h-7l-7 2-3 1-3 1-3 1-2 2c-3 3-6 9-9 17l-5 7c-34-11-70-17-104-32 7-17 24 2 31-13-5-8-14-14-23-19l-2-2-5-2c-1-1-1-1 0 0l-4-2-3-1-5-2h-3l-2-1-13-3c1 0 1 0 0 0h-5l-4 2c-2 1-3 4-4 7-2 14 14 15 23 21l6 6c-2 14-13 20-23 28-9-6-16-14-26-19-5-2-11-6-17-5-10 2-18 0-27-6-11-7-26 2-21 12 9 20-6 31-12 45l-8 13-4 3-1-1-4-3v-1l-9-6h2c-33-25-64-16-88 14-18 23-35 48-45 76-2 36-14 72 2 107 16 23 38 35 66 38 20 0 32-15 45-27 11-11 17-26 27-39l24 14c4 3 9 4 12-2 23-15 51-23 71-44 29-13 54-32 79-51 7-3 13-7 19-3 4 10-2 18-4 26-32 4-39 10-54 41-1 4-3 7-6 11-23 36-31 77-29 120 3 22 12 42 33 54 64 13 94-8 119-81h1a44 44 0 0 0 14 4l4 1c6 3 13 2 20-1 27-10 47-28 58-56 5-15 6-31 10-46 7-26 8-52 2-78Zm-99-105v-1h1l2-1 1-1 2-2 3-3 2-1v-1l2-1 2-1c1 0 2 1 1 2v3l-1 2v13l-1 2-1 1-1-2h-1l-1-1-3-1-1-1-4-2-1-1-1-1v-2Zm-168 15 4-4c1 0 2 1 1 2l-1 5v5l-2 11 1 3-1 1h-2l-1-1-4-4-1-1h-2l-4-2h-1v-2l3-4 1-1 2-2 4-3 3-3Zm1 65c-3 10-7 21-14 30-7-9-10-20-15-30-7-16-3-28 12-36 23 11 24 12 17 36Zm-46-71 1-2 2-3 1-2v-1h1l3 1 3 1 3 1h3c3 0 7 0 8-3l1-1-1-4-1-2-2-3-7-6-10-4v-2l11 2 5 2 5 2 4 3 1 2 2 2 7 8v3l-2 1-1 2-1 1-8 8v1l-2 1-1 1-1 1-2 1-1-1-4-2a32 32 0 0 1-5-3l-3-1-6-2-3-1 1-1Zm7 34c-10 17-3 33 4 48l6 11c14 29-2 56-38 58l6-73 3-29c-1-14 5-18 19-15Zm-98 172c-7 12-19 21-32 29-22 12-57 1-68-23-6-12-10-25-9-39 1-25 6-49 13-73 10-25 26-47 45-67 13-14 30-22 51-17h5l2 1 4 2 1 1 8 7 8 8 6 8c-1 4-5 8-8 12l-10 10-10 10-18 17-11 10-10 8v1l-1 1c-4 4-9 9-14 11 0 8 3 11 7 13l30 18c35 25 33 18 11 51Zm23-43c-22-9-36-27-52-42 3-6 8-10 12-14a297 297 0 0 0 41-38h1c2 10-7 19-5 30 1 9 0 18 5 27 6 12 6 24-2 37Zm13-38h-1l-1-1-1-1v-1l-1-1v-3l-1-1v-3l-1-1v-19l1-2v-4l1-3v-2l1-3v-2l1-1v-2l1-2v-5l1-3c0-1 0 0 0 0h1v1l1 2v36l-1 3v17l-1 1Zm17 59c-7-3-12-5-17-10-1-8 3-14 7-21q17 6 10 31Zm-7-48c4-28 4-55 3-83 0-11 12-15 14-24-12-6-7-14-2-22 6-8 10-19 23-13 1 8-5 10-8 14l-10 11c-1 8 19 1 9 14l-15 117c-10-2-16-4-14-14Zm75 23-58 31c-1-25 0-26 24-29 17-2 25-16 36-26l9 11c2 9-6 11-11 13Zm16-29c-8-1-10-6-8-10 12-21 14-45 25-67-1 27-12 51-17 77Zm75-30c-23 14-46 27-69 43 8-28 8-58 20-85 9 7 21 9 32 12q-7 11-27 4c9 25 24 27 48 5 3 2 7 4 8 8-1 7-9 8-12 13Zm21-55c-19-1-20-1-33 14l-1-1-16-7-4-2-28-13c-4-15-1-28 9-40 12-14 26-15 42-11l23 7a584 584 0 0 1 63 22l1 1c2 3-1 4-3 5h-5l-5-1h-2l-4-1-7-1-5 4c20 8 40 12 57-6 4 6 0 10 2 13l2 2v1l-1 4 1 22v2l-10 7c-9-1-12-10-19-10 3-13 24-11 22-28-11 1-17 10-26 15-6 4-12 9-20 10-11 0-21-8-33-8Zm46 63-4 7c-3 6-5 13-6 20-23-10-27-26-15-56 12-17 26-5 39-3q-5 18-29 17c1 9 9 11 15 15Zm-80 236c-24 4-42-13-45-40-6-53 10-100 39-143 8-12 21-21 38-20-1 34-10 66-17 98-3 13 0 20 16 20 3-40 5-81 16-121 7 4 16 5 21 10a240 240 0 0 0-6 67c0 14 6 27 17 40-2 42-38 83-79 89Zm85-107c-1 2-1 5-5 5-5-7-7-15-8-24-1-7 1-14-3-20v-14l1-8 1-8 1-4 2-7c9 1 12 8 13 16 2 21 4 43-2 64Zm103-42c-11 37-32 63-67 72h-3l-8-2h-1l-6-3-3-1c-2-5-3-11-1-19 5-21 11-44 3-67-5-14-12-25-23-35l1-2 10-28v-1c12-8 21-20 27-35l4 2v92c0 11 6 13 15 9 6-30-1-62 3-93l-1-8v-4l1-4v-4l1-1h3c39 9 53 27 53 63 1 23-1 46-8 69Z" class="cls-10"/><path id="white" d="m8136 2529-2-5v-4c-3-10-15-16-24-20-12-5-24-5-36-6l-13-1-1-1c-6-8-10-17-6-27l7-12c15-16 22-37 8-50-14-7-31-17-47-14-16 18-26 50-14 73 6 7 13 9 21 9l-1 3c-1 5 1 9 4 12 4 6 9 10 15 13l4 1c12 6 26 5 39 6l18 5 9 5 1 3 7 13c1 3 4 5 7 4s5-4 4-7Z" style="fill:#fff"/><g id="light_shadows"><path d="M8371 3101c-5-3-9-8-16-7-14 8-20 20-18 36l1 31c-7 8-4 18-5 28 0 6-10 2-13 6 8 1 13 13 13 19 7-1 16-1 16-10 0-22 16-33 29-47 18-19 15-42-7-56ZM9108 3157l4-5c7-3 15-7 23-8 34-4 67-14 101-12 7 0 15 0 22-4 36 0 72 0 108 4 18 2 37 3 55 8-41-1-81 2-122 4-11 1-22-3-33-2-42 2-84-1-125 7l-33 8ZM10157 3514c2-9-1-20 5-28 3 10 11 5 17 4 58-11 116-20 173-36 2-1 4-1 7 4-67 22-134 40-202 56Z" class="cls-1"/><path d="M8004 2972c22-2 11-23 14-36l-60 14c-9 37 11 31 46 22Z" class="cls-7"/><path d="m6882 2556-18 1c-5-19 4-33 18-41 13-7 27-22 44-6-16 7-30 18-41 31-4 5-6 9-4 15ZM8871 2691c-2-2-3-6-5-1-29 57-64 110-90 170-14 33-35 63-48 98-3 6-7 12-4 19-6 1-10-2-15-6 12-48 26-95 43-141 16-45 28-93 46-138 19-46 39-91 74-130 5 16 2 31 2 45v70c0 5-2 9-3 14ZM9021 2514l-83 1c-8 0-15 0-22-4l89-1c5 0 11 1 16 4ZM7078 3752c5 0 10 0 14 2 0 40-2 54-14 62-2-22-1-43 0-64ZM6994 3738h-2l2-61c1-20 2-40 0-59l-1-30-1-32c-1-6-9-10-15-8-7 2-9 8-8 15v29l1 29c2 19 0 39 0 58l-2 60c-1 20-6 39-5 59 0 7 5 12 12 12s12-5 12-12c-1-17 3-33 4-50l3-10ZM7123 3128l1 10c1-3 1-6-1-10Z" class="cls-1"/><path d="M7130 3259c-3-8-6-16-11-24-4-7-9-14-17-20a105 105 0 0 0-24-12c-10-2-16-10-8-34 47 23 14-50 7-70-10 9-21 20-17 34-16 17-25 43-35 64-31-8-39 27-56 46-12 20 11 45 13 67 9 25 7 52 5 77-14 62 25 35 57 60 13 24 5 65 5 94-1 3-2 6-1 10 3 17 4 33 5 50l5 53c5 33 6 67 7 101 0 20 1 39 3 59 1 6 5 12 12 12s13-6 12-12c-4-35-3-70-5-105 0-18-2-35-4-52l-6-52c-1-11-1-23-3-34 9-2 21-8 36-18-15-14-10-46-12-66-4-19-6-36-7-53 13-10 13-28 13-43 0-9-2-18-4-26l5-11c12-70-13-60 25-95ZM7173 3356c-2-4-5-7-10-6-7 1-13 2-18 7s-7 12-6 19 9 11 15 9c4-2 6-4 8-7l6 3c16-18 20-21 5-25ZM7632 3557c15 3 31 10 43-8 8 5 16 8 20 19-13 1-24 7-36 9-14 4-23 12-29 24-10 18-16 36-15 57 2 39 0 77 0 116-18 7-26-11-39-11-4-9-2-17-1-24l14-92v-23c10-18 19-36 38-48 5-4 8-11 5-18ZM7533 3724c-3 7 0 11 6 14l17 8c1 12 1 23 13 30 10 7 24 3 34 15-32 1-62 1-88-16-8-5-18-3-25-10 7 0 9-2 7-10-5-17 2-27 19-30l17-1ZM7601 3483c12 1 20-2 20-18 25 24 24 55 37 80-8 4-16 6-17-2-3-13-12-15-22-18-4-1-8-2-8-8s7-4 9-7c-8-7-6-21-19-27ZM8073 3424c31-5 61 0 90 8 12 3 23 8 36 7 3-9-1-16 0-24l30 6c16 3 29 8 32 27 1 11 12 17 16 28-18 0-34-5-51-10-42-11-84-26-127-33-9-1-17-6-26-9ZM8328 3231c12-7 29-3 38-17 3-5 10-3 15 2 22 22 38 47 51 75-6 6-10 8-17 7-6-8-7-18-10-27-7-18-17-21-33-11-12 7-20 17-25 29-2 6-3 13-8 18-8-8 0-24-14-28 0-16-10-33 3-48ZM8271 3399c-28-3-58-30-65-57l-3-9c11-3 18 4 25 11 15 12 28 26 43 39 7 6 7 11 0 16ZM8454 3402c-12-26-29-51-38-80 2-6 7-8 16-8 6 27 20 52 26 80l-4 8ZM8454 3402l4-8c10 20 11 43 19 64-11-17-18-36-23-56ZM8135 2527c-6-35-50-48-58-15 14 11 15 60 33 53-7 36-22 62-53 80 0 50 6 97-10 148-12 61-4 123-14 184 24 40 16-207 34-231 10-73 83-138 68-220ZM6899 2850c-10-36-5-75-13-112-23-18 5-53 28-62-75-50-124 242-41 206 19-8 40-8 26-32ZM6878 2612c-31-3-42 22-55 42-6 9-9 20-16 30-8-2-8-7-6-14 7-22 17-43 33-61 7-9 9-9 41-12 4 4 2 10 3 15ZM6645 3287c-83-35-71-13-124 11-18-42-10-153 11-180 11 42 19 85 32 127 56 33-5-110-6-139-3-26-59-87-4-84-4-7-9-12-13-17 9-11 16-24 16-39 0-19-8-36-17-52-3-6-11-8-17-5-6 4-8 12-5 18 7 11 14 23 14 37 1 10-4 18-10 25-38-19-40 71-50 113-11 34-15 96-62 97-30 35-28 92 0 127 13 12 29 19 47 18 38 12 262-1 188-57ZM6977 2673c-24-8-30-7-35 15-12 49 15 78 14 73-1-11 6-75 21-88ZM7303 3088c-4 3 1 8-2 11-16-13-14-38 7-56 6 18 10 36 11 55-9 1-9-9-16-10ZM7415 3043c5-4 12-2 17-7 3 5 3 10 2 17-31 7-63 9-95 15 17-9 35-17 55-16 12 1 23 1 34-5-3-5-9-2-13-4ZM7644 3069c1 6 2 13 0 20-3 11-8 20-23 17l11-29c2-8 8-6 13-8h-1ZM7471 3139c-4-16 4-21 14-24 6-2 11 0 13 6s0 12-6 14l-21 4ZM6080 3621c-4-57 3-115-15-170-3-10-16-8-18 0-16 12 3 40 4 57 7 30-14 25-25 46-6 30 10 58-3 87 0 31-39 39-60 23-6-2-10-11-14-23-4-6-7-13-8-20 0-3-7-46-13-22-16 61 44 109 97 75 10 14 30 6 45 7 19-8 8-43 10-60ZM7979 2760a1585 1585 0 0 0-30 158c-3 17-6 34 0 50 2 7 13 4 11-3-6-16-2-33 0-50a1455 1455 0 0 1 29-152c2-7-9-10-10-3ZM7970 2512c-6 4-11 10-14 16-3 8-5 15-11 20-5 5 3 13 8 8s8-11 11-18c3-6 6-13 12-16 6-4 0-14-6-10Z" class="cls-1"/></g><g id="Main_outlines"><path d="M7674 2952c3-2 2-5 0-7-12 1-22 19-34 23-13 7-26 13-42 5-16 37 44 17 64 32 32 23-69 0-84 16 2 26 55 25 22 48-7-9-57-60-49-31-5 2-7-3-13 1 19 26 50 30 56 52-32-3-54-43-88-52-16-2-13-24-26-23-8 10 8 20-2 30-8 8-12 19-9 31 11-3 8-14 16-21 6 13 3 28 8 40-10 8-23 7-29 19-12-33-5-69-21-99-7-7-5-15 1-22 3-13-5-10-12-8-4 12-9 12-16 9l-1-1-5-3c-8-5-19-13-32-15-4-3-10-6-13-2-3 5 2 10 6 12l13 4 5 2 15 7c6 3 25 9 21 18-10 5-47 0-56 6-13 3-25 7-39 8-48-2-69 73-22 89 42 2 87-8 128-15 19 10 16 30 25 43 30 12 74 4 56-36-36-94 21-34 61-6 22 4 46 23 66 7 6-4 9-10 10-17l1-3c1-6 0-11-1-16-3-6-7-11-11-15l-1-3c13-1 27 7 33-12 24-93-74-40 0-95Zm-371 136c-3 30-28-23 5-45 4 15 25 77-5 45Zm36-20c17-9 35-17 55-16 12 4 51-6 21-9-23 3-45-1-67 10-9 3-18 6-27 2-12-21 88-16 104-23 42 34-66 27-86 36Zm132 71c-4-16 4-21 14-24 23-1 17 25-14 24Zm173-63 1 2c1 15-5 32-24 28 7-11 7-31 19-36l4 6ZM7200 3304c-4-6-8-12-13-16-3-1-4-4-6-6-4-8-10-15-15-23-7-12-17-21-28-30l-14-15c-4-4-8-7-14-9-9-4-18-8-29-8-2 0-4-2-5-5v-6c0-3 2-5 5-5l9 1c6 2 11 0 15-4s7-8 8-13c1-4 3-8 3-13s3-7 7-9l6-3c7-4 8-10 2-14-4-4-8-7-14-9-4-2-4-4-2-9l2-2c-3-2-7-1-9-5-2-5-6-10-7-15-2-11-8-18-17-23-8-5-18-7-28-5-14 3-26 8-34 20-2 2-4 3-6 2l-9-4c-9-1-16 3-22 10-8 10-14 20-17 32-1 4-3 6-6 8-4 2-9 4-14 4h-14c-12 0-19 6-24 17l-3 9c-5 12 2 26 10 32 8 5 16 10 26 5h4c5-1 9-3 10-8l3-9c2-6 7-10 13-12l10-2c9-3 18-16 15-25-3-12 2-20 8-28l3-3h2l2 2c-1 4-2 8-1 12 5 12 8 24 16 35 2 3 3 6 3 10-1 9-3 17-6 26-8-2-16 2-24 3l-4 1c-7 4-12 11-16 17l-17 23c-8 10-15 21-25 30l-4 6-13 19a47 47 0 0 0-10 42c3 10 8 18 16 24l11 8c10 6 20 14 32 16 4 1 5 3 5 6 0 8 0 16-2 23-2 9-3 19-6 28-5 16-9 32-12 49l-8 43-5 30c-2 9-1 9 6 13l17 10c3 2 4 5 4 9a1190 1190 0 0 0-1 98c-3 26-5 51-5 77l-1 41 1 15c0 3 2 4 4 5 7 2 15 2 21-2 3-1 4-3 4-6v-3c0-5 1-6 6-5l11 2c7 1 14 0 21-4 5-2 5-8 0-10-7-3-14-6-22-6l-8-2c-5-3-7-5-5-11l8-40 11-51c2-8 3-16 3-25-1-20 2-41 4-61l2-14c0-2 1-4 3-4l10-3c2 0 4 1 4 4-1 6 2 12 2 18 0 3 0 6 2 8 6 12 9 24 9 36l2 17a82 82 0 0 1 4 32c3 26 1 52 4 78l4 30v10c-2 9 0 18 0 26 0 4 3 7 7 7l11 1c6 0 9-3 12-7l2-5c2-3 4-4 6-2 6 5 13 5 19 3a328 328 0 0 0 32-12c2-1 3-3 2-5l-4-5c-5-2-9-4-14-4-11-1-22-1-31-9h-2c-4-2-6-5-5-10l2-11c6-27 8-53 6-80-2-13-2-27-2-41l2-37c1-15 2-30 0-45-1-5 1-8 5-11 3-2 7-6 11-7 8-2 9-7 9-14 0-15-1-29-3-44l-3-23-3-15c-4-11-7-22-8-34-1-6 1-11 5-15l9-8c4-4 8-7 14-6 4 0 8 0 11-2l16-15c6-9 13-16 21-22 10-7 15-16 15-29 0-9-1-17-7-23l-3-7Zm-13 1c1 2 4 4 4 8-7 2-14 4-22 4-3 0-5-1-7-3l-2-4c0-2 2-2 4-3 5 0 10-2 15-4 4-3 6-2 8 2Zm-17-22 6 6c5 6 5 6-2 8l-12 5c-3 1-7 2-10 0l-2-3 2-2c7-2 13-7 18-15Zm-15-19c6 2 7 6 10 11 1 2 0 4-2 5l-20 10h-6l-2-3 1-3 8-4 5-1c4-2 7-5 7-10l-1-5Zm0 0-20 14c-4 2-9 1-11-4l1-3 3-1c9-3 17-7 21-16 5 2 7 6 6 10Zm-118-74c1-5 0-12 4-17l1-7c0-4 1-7 5-9 6-4 10-10 18-12l4-4c2-2 1-5-1-7l-5-4c-1-2-3-5-1-7s4-2 7-1l4 2c3 1 5 1 6-2 3-8 9-13 13-20 1-3 4-3 5 1l4 12c1 6 5 10 11 12l10 4c2 1 2 3 1 4-2 3-5 5-8 4-9-2-12 2-13 10-1 3-3 5-3 8h-2l-2-1-2 1v3l5 3-1 4c-2 3-5 6-9 6h-6c-4 0-7-1-9-5-1-1-2-3-5-3-4 4-2 10-4 14v4c-1 9-1 9-10 10l-12 2c-4 1-6-1-5-4Zm-67 60h1c3-1 6 0 7-3 2-2 0-4-1-6s0-4 1-5l14-23c4-7 9-10 17-9 5 0 11-3 15-1l14 3c7 2 13 2 18-2l7-1c8 2 17 2 25 3l5 1 15 6c6 2 9 6 13 9 2 3 2 5-1 8-2 2-5 4-6 7l1 4 4 1c4-1 8-4 10-8 1-3 3-4 5-1l5 6c4 2 5 5 6 9-7 6-14 11-23 16-3 2-7 3-10 2-12-3-25-2-37-4l-57-7a396 396 0 0 0-31-1c-3 1-6 2-7 6 0 3-1 5-4 6 0-5-1-10-7-12l-1-2c0-2 1-2 2-2Zm130 89c1 5-1 7-6 7-9-1-18 1-28-2h-5l-46-1-19-2c-3-1-4-3-4-7 1-2 2-3 5-3l10 1c2 1 5 0 7-1 1-1 2-2 1-4l-2-2-16-1c-3 0-6-5-4-8l3-1h4c6 1 13-1 20 1 2 1 4 0 5-2 7-6 12-13 17-21l6-9-1-3-3-1-7 5c-3 4-6 5-11 5h-29c-3 0-4-1-4-5 0-3 1-5 4-4 9 0 19 2 28 1l8-1c2-1 3-2 3-4l-3-2h-39c-4 0-8-8-5-11 1-2 2-2 3-1l26 3h3c17-1 34 4 51 1h4c8 3 16 4 24 4h4c2 0 3 1 3 2v3c-3 17 0 34-5 50-2 4-2 9-1 13Zm-30 67 11-3c5-2 9 0 12 5-8 7-17 12-27 16l-6 1-8 1c-9 2-17 0-24-4-9-5-18-8-27-8l-4-1c-2-1-3-2-2-4 0-2 2-3 4-2a27 27 0 0 0 15 1l2-2-2-2-15-4c-5-1-6-1-6-6-1-6 0-6 6-5 4 0 9 2 13-1h5c6 3 13 2 19 1l35-3h10c6 1 11 1 16-2l2 1-1 2c-5 2-9 5-12 9l-8 4-36 7c10 4 20 1 29-1Zm2-38 3 1c7-1 13 2 20 1 3 0 4 2 4 5 0 2-1 4-4 4l-8 1-6 1c-12 5-24 3-36 4h-1l-36-3-8-1-5-1c-3-1-3-3-3-5 1-2 2-3 4-3l30 1c10-1 19-1 28-5h9c-20-6-39-3-58-4l-8-1c-5-1-8-7-6-11l2-2 3-1c20 2 40 1 60 4 11-2 23 1 34-3l1-1c4 0 7 1 8 4 1 4-1 8-5 9l-20 3-3 1 1 2Zm-79-65c0-4 1-5 5-5 6-1 13 0 19 1l2 2v4l-6 2h-16c-3 0-4-1-4-4Zm-31-38c4 4 9 1 14 2l-1 1q-6 7-16 4c-1-1-3-1-3-3 0-3 4-6 6-4Zm-14 16 1-1 11 4c2 1 1 3 1 4-1 1-3 3-5 2l-9-8v-1Zm-14 20 4-5c2-2 4-3 6-2 3 3 6 2 10 4-4 14-10 11-18 8-2-1-3-3-2-5Zm-8 15c1-3 2-4 5-4l10 2c3 0 5 2 5 4 0 4-3 6-6 7h-1l-7-1c-7 1-8-3-6-8Zm-1 21c0-2 1-4 3-4l8 1 5-1c2 0 3 0 3 2 1 1 0 3-1 4-4 2-8 3-13 3-2 1-4-2-5-5Zm11 15c-1-1-3-2-3-4l10-5c3-1 5-1 6 1 2 2 1 5-1 7-4 3-7 4-12 1Zm17 11-4-2 1-3 5-5h4c1 0 2 1 2 3 0 4-5 8-9 7Zm4-35c2-11 7-21 14-29h3l1 1v17c1 8-1 16 2 23v3c0 4-3 6-7 5-10-5-15-10-13-21Zm16 39-5 1c-4 0-5-2-5-4 0-4 2-6 5-5l5 1c2 1 3 2 3 4l-3 3Zm19 372v2a7478 7478 0 0 1-12 50c-1 2-3 2-5 1-1 0-2-1-2-3l1-53c0-4 3-5 7-4l7 2c3 0 4 1 4 5Zm14-144c-2 11 0 23-3 34v34c0 10 0 21-4 31-1 5 2 9 0 14-2 3-4 7-4 11s-2 5-5 5h-6c-8-1-9-2-8-11 3-14 4-28 4-42 1-11-1-21 1-28l1-50c0-5 1-6 5-6h14c3 0 5 2 5 5v3Zm50-155c-7 0-13-2-19-3-8-2-17-3-25-6h-1c-12-3-20-7-18-7 6-3 13 0 19 1l24 6c4 2 8 3 12 2 14-1 28-2 41-6h4l1 1v1l-8 3-22 7-8 1Zm37 315c-2 6-2 13-3 19l-2 24v10c0 5-3 7-8 7-2-1-4-2-3-5 0-7-2-14 1-21v-6c-3-11-1-22-2-32l1-4c6 3 11 1 16 2 2 3 1 5 0 6Zm5-134-1 17v90c-1 9-1 9-10 11-10 2-12-1-13-11l-3-31-1-8c1-15-1-29-2-44l-2-41c0-5-1-11-3-16-1-5 1-6 6-7l11-2c5-1 11-1 16-3 3 2 3 5 3 9v29l-1 7Zm23-120 1 34v4c0 6-2 9-8 12l-28 11c-4 2-7 3-12 3l-12 1-1-29 2-35c0-16-1-33-4-49-1-4 0-5 3-6 13-1 25-5 37-9l3-1c3 0 5 0 6 3l2 4c3 9 7 19 8 29l3 29Zm13-108-13 8-5 4-3 2-2-1-1-3 3-3c6-1 11-5 15-9l3-2 3 1v3Zm-4-27-2 6c1 10-7 12-12 15-2 2-5 0-5-3v-20l-1-15 1-13c3-15 6-31 5-46l1-3h3l2 3 20 16c6 5 11 11 15 18 3 4 3 8-1 12l-16 15-10 14Zm23 22-3 1-4-2-5-8 11 5c1 1 2 2 1 4Zm34-28-3 4c-5 2-8 6-11 9l-4 5c-1 1-3 2-4 1-4-5-10-7-15-10-3-1-3-3-2-6 2-4 4-5 7-4l9 4 2-1c-2-4-7-4-9-7v-2c0-1 1-2 2-1l9 3c6 1 11 2 17 1l3 1c1 1 0 2-1 3Zm4-11c-6-2-13-1-19-3l-3-1-1-3 2-1c8 2 16 1 24 1 2 0 3 1 3 2 0 3-3 6-6 5Zm7-20c0 3-2 5-5 5h-17c-3-1-4-3-4-6s2-3 4-3c6 0 11-2 16-3 4-2 5-1 6 3v4ZM8523 3439c-2-2-4-4-6-4l-8-2c1-5 0-6-4-6l-9 3-9 3c-2 1-4 0-5-2l-1-3-13-35-14-38c-5-15-8-31-15-45-1-2-1-4 1-5l5-2c5-3 6-5 3-11-3-8-8-14-13-21a115 115 0 0 1-25-39l-23-26c-5-6-13-10-22-10-3 0-5-4-3-7l9-11c9-10 19-19 26-32l3-9c0-8-2-15-5-21-2-6-15-22-20-25l-2-1c-15-6-27-16-41-23-9-4-15-4-21 5-2 3-3 7-6 10-4 3-4 4-1 8l3 3c2 4 3 5-1 8-4 4-6 8-8 12l-2 8c0 5-3 9-7 11-3 2-7 2-10-1l-4-1c-5 0-8 3-7 8s4 8 7 11c4 2 7 6 9 9 2 1 3 3 2 5-3 5-3 11-4 17-1 5 1 9 6 12 11 8 26 12 41 2 4-3 5-7 0-10-3-2-5-2-8-1l-12 4c-4 0-8 1-12-2-2-1-3-3-3-5 1-3 3-3 5-4l7-1 5-3v-1c-1-2-2 0-3 0l-4 1h-4c-4 0-4-1-4-5v-2c0-7-3-12-10-15l-8-4c-1-1-2-2-1-3l2-1 7 3c9 2 14 0 16-9 2-12 8-21 10-33 1-3 2-4 5-2 5 1 5 1 8-3l4-4c1-4 5-4 8-5 4-1 7 0 10 1 7 3 13 9 20 12 10 4 15 13 18 22 3 10 1 19-5 27-4 6-9 11-15 16-10 9-17 19-17 34 1 4 0 5-5 7l-32 10c-15 3-25 14-27 29-2 11-2 21-2 32v14l2 43 1 8c0 2 2 5 4 5 6 1 6 5 6 9v13c0 3 0 5-2 8-1 3-4 3-6 1l-10-11-43-35c-8-6-16-9-26-11h-5c-6 4-13 3-19 5-10 3-21 6-30 11l-20 9c-5 2-10 4-13 8-6 8-8 8-17 5l-6-4c-8-6-16-13-22-22-3-3-5-6-9-8-2-1-7-1-8 1l2 6v3c-2 0-3-2-4-3l-4-4c-3-2-6-2-8 0-3 2-2 5-1 7l8 14 15 22c3 4 2 7-3 7l-28 2c-6 0-12 0-18 3-3 2-7 1-10-1l-21-13c-8-4-14-10-18-18-4-7-10-13-15-19-2-3-4-4-8-3-4 0-5 2-2 5l22 31c10 13 22 23 38 28l8 3c3 1 4 3 4 7-1 3-3 5-6 6h-16c-9 0-15-3-20-9l-19-22-10-13c-3-4-5-8-4-13l-10-6c-2-1-6-1-6 1-1 2 0 3 1 4l4 7c12 16 24 33 37 48 6 6 12 10 21 12 9 1 19 2 28 7l7 2c9 1 17 4 27 3l5 1c4 2 8 2 12 2l6 2c21 8 43 11 65 15 8 1 16 3 25 2l14 3c6 3 12 5 19 6 8 2 17 4 24 8a174 174 0 0 0 70 16c8-1 14 6 19 12l1 4 3 20c5 16 5 32 4 49 0 14-1 14-12 23l-2 2c-5 4-6 10-7 15 0 2 1 4 3 5 2 0 5 1 6-2 1-4 5-7 8-10l9-8 3-6c1-6 3-12 3-19l-2-26a459 459 0 0 0-9-81c0-11-1-21-3-31l-3-39-3-34v-2c-1-3-5-6-3-9s7-1 10-4l3-1c3-1 4 0 5 3 2 8 4 15 4 23 0 17 1 34 5 51 3 12 5 23 6 35l4 45v24c1 5 1 11 4 16-2 5-2 11-2 17v20c1 4 2 8 1 12s-4 7-7 10l-2 6c-1 1-2 3-4 2v-3l5-11v-5c-2 0-3 2-5 3-7 5-11 13-19 18-1 1-2 2-1 3l3 1 2-1 2-2c4-2 5-1 5 4 0 3 2 5 5 5 2 1 4-1 4-3 1-3 2-7 5-8 7-3 11-9 16-15 3-3 5-5 10-5l4-1c3-2 3-6 0-8h-3c-8-3-9-4-9-12l2-19c0-8 1-15-1-23-2-7-2-15-3-23s-1-8 7-11l15-9 23-21c3-3 5-7 6-11 4-11 6-23 7-35l3-30 3-15 1-2c1-2 3-1 4 0l2 2c3 5 7 10 8 16l4 8c3 5 6 9 6 15-1 4 2 7 4 10l5 13 7 21c2 7 8 11 16 10l7-1 8-1c9 1 16-2 21-10 2-4 4-7 8-8l3-1c1-2 2-3 1-5Zm-383-84c16-7 30-16 47-20l9-3c8-3 16-2 24 3s15 11 21 18l25 22c4 3 7 8 12 11 2 1 2 3 1 4l-9 13-7 11c-1 2-3 3-6 3l-10-3a292 292 0 0 0-69-21h-10c-3-1-5-3-5-5 1-2 2-3 5-3 2-1 5 0 7-2v-2l-1-1h-6c-4 0-7 2-11 3l-13 2c-3-1-5-2-6-4-4-4-4-9-5-14 1-5 2-10 7-12Zm-72 1q-4-7-3-17c7 7 14 13 19 20 2 4 5 8 9 10 5 5 10 6 17 5 7-2 7-1 9 5 2 3 4 5 3 8-2 2-4 1-6 1l-22-4c-4 0-8-2-11-6l-15-22Zm211 118-3 2-5-1c-13-2-26-4-39-8l-13-4c-4 0-7-1-11-3-2-2-4-2-7-2-9-1-19-4-27-9-5-4-11-3-17-5-15-4-31-6-47-9-15-3-28-9-42-13-7-2-13-3-20-3l-19-1c-8-1-10-4-11-11l1-9c1-4 3-7 7-8h1c11 1 21-4 32-2 9-1 18 0 27 3l8 2a596 596 0 0 1 76 11c7 0 14 1 20 5 9 5 19 7 30 8s22 6 33 9c2 1 3 2 3 5 3 16 11 29 22 40v3Zm27-18 3 21c-4 0-5-2-6-3-6-5-10-12-16-16l-4-6-9-18c-2-3-2-7 0-10l11-14c1-2 3-2 5 0l5 4c5 1 7 5 7 9l4 33Zm107-162-6-21c-2-7-5-12-10-17-4-4-8-5-13-3-17 6-29 17-36 34l-8 24c-3-4-4-7-4-11a466 466 0 0 0-5-20c-1-1-2-2-4-1l-2 3c2 8 2 15 5 23l3 15c1 5 1 5-4 7-8 3-16 3-24 4-4 0-6-1-6-5 0-8-2-16-1-25l-1-14c-1-8 0-16 2-25s7-17 12-25c2-3 4-5 7-6 6-2 12-5 19-5 6 0 12-4 19-4 4 0 5-3 7-6 1-3 2-6 5-6 5-1 10-1 13 3 9 11 20 20 27 32 7 10 12 21 19 30l3 5c1 4 5 8 3 12-3 4-10 4-15 6-2 0-4-1-5-4Zm68 162c-3 3-7 2-8-2-2-3-2-6-3-10-2-8-4-16-9-23l-1-3c-2-12-9-23-13-36l-4-7c-8-7-10-18-15-27-4-8-6-18-12-25-2-3-1-5 2-7l9-5 3-1 2 1c2 4 5 8 6 13 2 14 6 26 12 39 5 11 9 23 11 34l6 20 7 24c1 5 2 10 7 12 2 0 1 2 0 3Zm26-18-10 4c-2 1-3 3-2 5 2 2 1 3-1 4-4 1-6 0-7-3-1-2 0-4 2-6 6-4 12-7 20-8 0 1 0 3-2 4ZM7902 2986c8 4 17 6 25 4l19-8c3-2 5-2 8 0 11 8 10 4 15-5l1-4 2-33 1-14c4-20 4-40 5-60l2-31c0-6 1-13 6-17l3-6 4-18c1-10 5-19 5-29l1-2 2-1 3 1c2 6 3 11 2 17l-1 27q-1 12 12 17c4 1 5 2 4 6l-3 25c-2 14-4 28-3 42v11c0 20-2 40-1 60 0 1 1 3-1 4-5 4-7 11-15 12-4 1-7 5-10 7s-4 5-5 8c-1 4 0 7 3 9 7 4 14 5 21 4 3 0 4-1 6-3 6-5 13-8 19-11s10-8 16-9c5-2 7-5 8-10 2-8 1-16 2-23 1-19 1-38-3-56-3-16-2-31 2-46l4-19c1-6 2-10 9-12 5-1 8-6 8-12v-4l4-42 4-32v-12c0-2 1-4 4-4 6-1 9-5 9-10 0-8 5-12 11-15a40 40 0 0 0 23-29c4-15 4-30 7-45 2-11 2-23 1-35 0-4 0-8 2-12 2-5 2-10 2-15 0-15-3-29-10-43-7-15-19-24-37-24-6 0-12-1-17 1-4 1-8 0-11-2l-8-3c-4-1-5-3-4-8l5-17 3-11c0-3-3-5-6-4l-4 3-5 6c-8 9-17 11-28 12-4 0-8 0-10-4-4-6-7-11-8-18 0-10 3-20 4-30 0-4 3-5 7-3 5 1 6 4 3 8l-4 6c-1 3-1 5 1 7 3 3 6 5 10 4 2-1 3-2 2-3l-2-3c-2-2-2-4 0-6l3-3c3-6 1-11-4-13l-7-2c-3-1-4-3-2-5l4-9c1-2 2-3 4-3 3 1 7 2 10 1l5 2 24 17c3 1 3 3 1 7-1 3-1 5 2 6l7 3c2 1 3 5 0 7l-6 3c-2 1-3 3-2 5 1 1 2 3 4 3l5-1c9-3 15-13 15-24l-1-12c0-11-6-20-14-27l-15-14c-5-6-12-8-19-9-2 0-2 1-2 3l2 2c1 2 0 2-1 2-2-1-5-2-6 1-1 2 1 4 2 5l5 7c-5-2-10-2-14-2-2 0-3 1-2 2 1 2 3 4 0 5l-4-1-5-2h-2v2c3 5 1 8-2 12l-2 4c-2 6-4 11-12 13-7 1-8 9-2 13 6 3 6 7 4 13l-1 5c-1 11 3 20 12 28l3 2c2 2 0 6-2 6-7-1-13 3-20 3-9 0-17 3-22 13-2 4-5 8-12 8-5 0-9 2-12 6l-5 4c-11 8-19 19-26 29-2 2-2 4 0 5l3 4c5 4 5 5 0 9-6 6-9 12-10 19l-1 20c-2 13 4 21 14 27l12 6c2 1 3 3 3 5-3 7-2 14-4 20-4 11-4 22-5 33-1 6 0 10 6 12 3 1 3 3 2 6-3 7-4 14-5 22 0 11 0 23-2 34l-3 41c0 5 1 10 6 12 4 2 4 5 4 8l-2 23c-2 20-1 41-1 61l-2 42c-1 14-2 14-14 20l-11 5-3 2c-3 3-3 9 1 11Zm65-140c-1 3-2 6-1 9 0 7-1 14-3 20-1 7-2 13-1 19 0 4 0 8-2 12-5 8-6 17-6 26l-3 28c1 5-5 8-10 7l-2-2c3-16 2-33 2-49v-19c-1-10 2-20 3-29l6-45c0-3 1-4 4-4h3c10 0 11 0 11 11v3l-1 12Zm79 31-1 13c1 7-1 14 2 20v3l-6 31-2 15c0 5-1 9-3 13-1 3-3 4-5 6-3 1-5-1-5-4l2-12v-13l-1-17-1-26c0-8 0-16 2-24l1-4c0-16 4-32 4-48 0-5 3-8 6-8h5c5 1 5 1 5 4v18c0 11 1 22-3 33Zm68-373c2 0 4 1 5 3 7 8 12 16 14 27l1 22c1 9-8 18-17 18-2 0-3-1-3-3 0-4-1-9 1-14v-8c-2-12-7-23-15-33l-9-12h23Zm-46 34 8-20 3-3c3-4 8-4 11 0l9 12c3 4 4 8 5 13 0 7 1 13-1 22-8-5-16-4-24-4-5 0-7-1-6-5 2-5 1-7-3-10-2-1-3-3-2-5Zm-66-50c2-3 5-4 7-1 11 11 14 4 15-5 1-5 3-7 6-8 5-2 9-2 13-5 2-1 3-3 5-2 2 2 2 4 1 5-2 9 0 15 7 20l1 2c-4 6-9 10-15 13-8 4-16 5-24 4-9 0-16-6-17-15-1-3 0-6 1-8Zm-66 39 21-18h3l1 3c-3 8-4 16-4 25l-1 7c-3 11-6 12-17 8l-5-2-11-7c4-6 8-11 13-15Zm-13 91c-5-3-7-7-7-13l2-21c2-9 3-19 7-29 7 3 12 7 19 9 3 1 6 3 7 7l4 4c3 2 5 2 6-2 2-5 6-10 5-16l2-5c4-2 5-6 7-10 5-11 7-22 11-32l2-5c2-3 5-3 7 0l1 4c7 4 8 9 4 15-2 2-1 4 1 6h4l3-8c0-3 2-4 4-3 5 1 9 2 14 1 3-1 6 3 8 4l2-1c2-9 10-13 16-19h3l1 3c-3 9-5 19-5 28l-1 8c0 9 0 17 4 26l2 6-3 18c0 2-2 3-4 3l-6-2-21-6-21-7c-10-3-20-2-29-2-2 0-4 2-4 4s1 3 3 3c6 2 12 5 18 2 4-1 7 0 10 2 9 4 18 6 28 9l22 6 5 2c6 1 9-1 10-6l8-30c9 1 17 7 27 6l-7 28c-2 6-7 11-9 17-6 4-11 10-20 8l-24-4h-3c-9-4-19-8-27-13l-16-12c-5-5-12-8-19-7-3 1-6 0-9-2l-2-2c-5-5-11-8-18-7-3 0-7-2-9 1-1 2 2 6 7 6 6 1 11 4 16 8 6 4 13 5 19 8l5 3c1 0 1 3-1 4l-4 2-18 7c-13 5-25 3-37-4Zm11 75c1-2 3-2 5-3 3-2 4-7 1-10-3-2-3-4-2-6l2-10c1-5 3-10 8-13 4-3 4-5 0-10l-1-1c-2-3-1-6 2-7h3c13 0 26-3 37-8l5-3c3-2 6-2 10 0 5 5 12 7 18 10l16 8 11 2c-1 4-5 6-6 9-2 2-2 4-1 6 2 2 4 4 6 4s3-1 3-3l4-9c1-3 3-4 6-4l2 1c7 2 12 1 18-3 2-2 4 0 3 2-1 6 1 11 1 17 0 9 0 17-7 23-2 2-3 4-2 7l1 7c0 2-1 4-3 4s-3-2-3-4l-3-13-3-9c4-2 6-6 8-10l1-5c0-2-3-4-5-3l-5 4c-3 8-9 14-12 23l-6 14c-1 3-2 4-5 4l-26-1c-2-1-3-2-2-4l2-6c1-2 0-4-2-5s-4-1-5 1l-6 9c-2 3-4 4-7 3l-36-3h-1c-4 0-8-3-12-4-3-1-7 2-11 1l-1-2Zm-1 110c2-8 2-17 3-26l5-32 4-23 5-14c2-4 4-6 10-4 4 1 9 2 14 1 4-1 6 1 9 2 8 3 16 3 24 4 11 1 23 1 34 5 4 1 6 3 7 7l3 31 1 6c4 17 2 33 0 50 0 2-2 3-4 3l-15-1-13 1c-4 0-6-2-5-5v-15l-1-26c0-11-1-11-12-14l-21-3c-5 0-9 0-13 2-2 2-2 4-1 6 3 3 7 4 12 4l3-1c4 0 5 1 5 5l-5 19c-2 8-4 15-4 23 0 4-2 6-6 5-9-2-19 1-28-4h-6c-4-1-6-2-5-6ZM6746 3104l-6-3c-6-4-13-6-19-9l-21-6-15-4c-12-3-19 2-23 14a557 557 0 0 1-25 58l-8 17c-4 9-12 11-21 13-3 1-5-1-6-4l-3-13-5-35-5-30c-1-15-4-29-8-43-2-8-5-16-11-22-5-6-6-11-3-17v-8c-4-11 0-19 5-28 1-4 4-5 8-5 5 2 11 1 17 1 11 0 20-10 19-22l-2-6c-1-6 0-11 5-16l7-10c3-6 1-10-6-10-3-1-6 0-9 1l-8 2c-4 1-7 0-8-3-2-7-6-13-9-19-2-4-2-7 1-10l14-15 8-11c1-1 2-2 1-3-2-2-4-2-5 0l-11 9c-3 5-7 9-11 12-3 3-6 3-10 1l-8-6c-2-2-4-4-6-4-9-1-17-1-24 5l-5 4a68 68 0 0 0-24 36c-2 10 2 20 11 25 7 3 10 11 15 16 2 2 1 5 0 8l-7 13c-3 4-5 4-10 3l-6-4c-4-1-7 0-8 4-3 6-5 9-10 14l-3 3c-8 10-14 22-18 34l-16 50-13 39-5 16-6 38-2 12c-2 6-4 8-9 8-7-1-14 2-20 5-10 4-15 12-17 22l-2 12c-1 6-2 11-1 17 1 4 2 8 1 12-1 9 1 16 3 24 3 8 7 15 9 23l5 9a69 69 0 0 0 30 29c5 4 12 6 18 7 13 3 26 5 39 5 5 0 9 1 14-1 2-2 5-2 7 0 6 2 12 2 19 2 12 0 23-2 35-1l19-1 10-3c13-6 27-9 40-14l13-4c11-1 21-4 31-7l16-4 6-1c11-7 20-16 27-27 4-7 6-13 6-21v-12c1-7 1-14-2-20-1-3-1-5 2-8 6-5 10-13 13-20l8-15 26-51c6-11 4-23-5-33-7-6-13-12-23-14Zm-216-161h8c2-2-1-4-2-5-2-3-2-7-1-10 0-4 2-5 5-4l4 2c2 0 3 0 4-2 2-4 6-6 10-8l16-13c3-3 5-3 7 1l2 5 4 7c3 7 9 10 16 10h13c-1 4-5 6-8 8-2 2-5 4-5 8 0 3-2 5-4 6l-12 3-2 2c-1 2 1 2 2 3h7c7-1 9 0 8 8-1 6-6 10-14 10l-11-1-8-1c-2-1-4 0-5 3l-7 17c-1 6-3 7-8 5l-13-7-1-5 5-10 3-6c2-3 2-7-1-9l-6-9-6-7Zm-55 336 2-11c0-17 2-35 4-52 3-19 7-38 9-58 3-27 10-53 16-79l5-22c3-12 4-24 1-37v-8q0-10-8-17l1-3c5-6 5-6 12-2l31 15 6 2c3 2 4 4 4 8l-1 4c0 2-2 3-4 3l-11-4-4 1c2 6 5 9 10 11 3 2 5 4 8 4 8 3 12 9 14 17 4 15 7 30 8 45l1 6c4 18 7 35 9 53l2 10 1 5c0 11 4 22 6 33l7 15 2 3c3 2 6 3 9 2 3-2-1-5 0-7v-1c8 0 15 1 19 9l6 8c3 5 1 8-4 10l-9 2-12 1c-11 3-22 2-32 4h-5c-5 0-6-1-7-7l-8-39c-6-18-8-36-11-54l-3-22c0-5-1-9-4-12-2-2-4-3-7-2s-5 3-4 6c3 11 2 22 6 32l1 3c2 16 6 32 10 48l3 17 4 21c2 6 5 11 10 15v5c-2 2-4 2-6 0-3-5-8-8-10-14-1-3-3-6-7-8-1-1-3 0-4 1s-2 2-1 3l5 11c4 6 4 13 6 19l-1 4c-3 5-7 9-12 12-3 1-6 3-8 6-7 6-15 10-25 10l-12 2c-5 2-10 2-15 0-3 0-4-1-4-4 1-7 0-15 2-22Zm243-23-2 22-5 12c-7 10-13 19-24 24l-4 2c-11 1-21 5-32 6l-13 2-63 18h-18l-23-1c-11 0-23 0-35-3h-8c-11 4-23 2-34 1-6-1-13-2-19-5-13-5-22-13-29-25-5-9-10-18-13-27-3-10-4-19-4-28 1-9 1-18 4-27 4-8 8-15 18-15l4-1c1-1 2 0 2 2l-1 7c-3 12-2 24-5 36l1 5v19c-3 15 3 24 16 29l18 7c15 6 30 5 45 5l1-1c8-4 17-4 25-7s17-7 23-13l10-8 11-11 14-14c1-3 4-4 4-7 1-4 4-4 6-4 15 2 29-1 44-2 5-1 11-3 16-6l8-4c6-3 12-4 19-1 9 6 20 4 30 2 3-1 6-3 8 0 3 3 6 6 5 11Zm-67-29c1-2 2-2 3-2 5-1 8 1 13 2-3 5-7 6-11 7-2 0-3-2-4-3 0-1-2-3-1-5Zm24-3c0-3 2-4 4-5h2c2 1 1 1 0 2-1 2-3 3-6 3Zm86-80-6 16-19 37-16 26-3 4c-1 2-3 2-4 0-4-5-9-7-14-10-2-1-4-1-5-3-4-4-9-5-15-5-4 0-7 1-10 4-6 5-14 5-21 6l-3-2-4-4c-7-6-14-10-24-6l-4 1c-2 0-4 0-5-3v-1c0-4-5-7-2-10 2-5 7-1 10-1 9 0 15-4 18-12l11-23c3-6 5-12 6-19 5-14 9-30 15-44 2-4 6-6 10-6s8 0 12 2l17 8 45 21c5 2 9 6 12 11l1 6-1 7ZM7245 2799c-3-2-7-3-8-5-3-4 1-7 1-11-1-4-1-8-5-9-8-1-13-6-17-13-2-3-6-5-10-5-3-1-5 2-7 4-6 4-8 4-14 1l-25-16c-5-3-9-6-15-8-3 0-6-2-8-5-3-4-7-6-12-8-3-1-6-2-8-5-5-7-13-11-20-15s-13-7-16-15c-1-4-5-7-7-11 0-3-3-3-5-3l-5 2c-3 2-6 1-9-1-3-3-7-5-11-6-2 0-4-1-5-3-6-6-13-8-20-11-2-1-4-1-5 1s-1 3 1 5l3 3 22 13c5 3 5 2 5 9v7c3 7 1 12-3 18s-8 12-10 18l-2 4c-1 2-4 2-5 0l-1-4-7-27c-3-9-3-18-8-27l-1-2-5-18c-3-9-7-17-8-25-1-4-3-7-6-10-6-7-12-13-21-15l-5-2c-3-1-4-3-3-7v-15c-2-6 0-11 5-14l9-7c4-5 4-8-1-12-4-3-9-5-14-4-6 1-8-1-10-6l-1-4c-1-9-6-16-13-21l-2-2c-1-2-1-4 1-5l8-5c4-2 4-2 2-7v-7c2-3 1-5-2-7l-8-4c-4-4-7-3-11-1l-19 14c-3 3-7 5-12 6-3 0-5 1-7 3l-7 4c-11 6-18 15-20 26s-1 23 6 33c2 3 5 6 6 10 2 10 10 13 19 15 1 1 2 1 3-1l-2-2-7-4c-3-1-5-4-5-7 0-4-1-8 2-10 3-3 7-1 10 0 2 2 4 4 6 1 1-2-2-4-3-5-3-2-6-5-10-5-4-1-9-2-13 2 0 1-1 2-3 1-2-4-1-8-1-11 0-15 9-24 20-31 6-4 14-6 20-8 4-1 8-5 13-1 3 3 8 4 11 8l4 6c3 5 5 9 2 14s-2 8 4 11c3 1 5 4 5 8 0 2 1 3 4 3 3 1 6-1 9 3-6 4-8 10-7 17 1 3-1 6-4 6-7 2-15 6-22 2l-4-1-2 1v2c9 6 18 10 27 4h3l1 3c-2 13-7 18-21 21h-9c-6-3-13-5-17-12l-3-4c-3-2-5-2-6 0-2 2-1 4 1 6l5 5c5 5 11 7 17 10 2 1 6 1 7 4l-4 6-5 5c-5 3-7 3-12 0-7-4-11-10-15-16l-8-16c-1-4-3-6-7-8l-10-5c-4-2-8-2-12-1-13 1-23 7-29 19-7 15-17 28-22 43l-8 20c-2 5-8 8-5 15v2c-5 7-7 15-9 23l-13 42-3 8-3 7-4 25c-2 10-6 18-10 28-1 3-4 4-7 2l-9-4c-4-2-8-2-13 0-3 1-4 4-5 7l-2 3c-1 3 0 5 3 7 8 4 17 6 27 8l2-2-1-2c-3-2-7-3-9-6 1-2 3-2 4-1l8 2c4 2 7 1 9-2 3-2 5-5 6-9l12-41 7-24 5-28c2-13 6-26 10-38 1-3 3-4 5-2 6 5 13 8 20 9 4 1 4 3 4 6l-2 6-8 21c0 4-2 7-4 11-4 10-10 19-14 30l-15 37-16 45c0 1 1 3 3 3l4-1 7-9c5-9 8-19 12-29l3-8c1-2 1-3 3-3s2 2 2 3v5c0 13 1 26 6 39 7 14 17 25 30 32 12 6 26 7 39 7 10 0 20-4 30-8 9-4 10-5 12 6v5c0 8 3 15 5 22 1 7 6 13 12 18 9 6 18 10 29 11l51 3 5 1c4 1 9 1 12-3 3-3 6-3 11-3 5 1 5 1 8-4 1-3 3-5 7-5 3 0 7 1 8-1 2-4-2-6-4-8l-4-3c-14-5-26-14-37-23-5-3-8-6-5-12l1-8v-18c0-3 0-7 3-9l3-9-1-29-1-28c0-5 0-5 5-6 7-2 15-4 21-8 9-6 13-15 16-24l10-38c1-6 10-11 16-7l8 5c7 3 14 7 19 13 5 7 15 7 21 14h1c4 4 9 7 15 8l6 2 24 16c5 4 9 9 8 17-1 9 4 14 13 15l9 3c5 6 13 7 20 4 4-1 8-1 12 1l3 1c1 0 3 0 4-2 0-1 0-3-2-3Zm-248-36c0 7 1 13 3 20l1 7c1 16 2 32 5 49 1 4 0 4-4 6-9 3-18 1-27 4-2 1-3 0-3-2v-26c0-12-2-24-4-36v-43l1-20c0-8 0-8-7-11l-2-1c-7-2-9 0-10 6v8l4 28v3l-1 1h-1l-1-2c-4-11-7-23-7-35l-1-10c-3-13 3-24 8-34l4-4c5-3 21 1 24 6 4 7 7 14 8 21l4 25 2 19 4 22Zm-40 114c-2-9-5-17-5-26l-2-6v-2l4-1 2 2 1 3c2 7 5 11 12 12 4 0 4 1 4 5v8c-1 5-1 11 1 16l1 5c1 11 5 19 16 23 2 0 4 1 5 4 0 2-4 3-8 2l-3-1c-5-4-12-5-18-7-3-1-5-3-6-6l-2-11c1-7-1-14-2-21Zm-130-109c-3 7-4 15-6 22-1 4-4 5-7 3-2 0-3-1-3-3v-7l3-28 1-4c4-8 6-17 9-25 3-9 7-19 12-27l5-9c2-3 2-6 1-8-2-3-4-6-7-6s-5 3-6 6c-2 4-2 10-7 13l-11-9-9-7c-2-2-2-4-1-6 4-7 5-16 10-23 2-14 13-24 21-36 5-7 12-12 21-11 6 1 11 0 16-3 2-1 4 0 5 3v1c-2 11 5 18 12 26 5 6 11 10 18 13 8 4 16 2 22-6l7-10c3-3 6-7 10-7 4-1 7-3 10-6 1-2 3-2 5-1 5 2 10 3 14 6 7 5 13 11 14 20l6 36v4l-1 2-2-1-3-5-2-4c-10-6-20-11-32-8-10 3-15 10-18 20v2c-2 2-1 7-5 7-4-1-3-5-4-7-1-5-4-9-7-13-3-3-7-6-13-6-15-1-28 3-40 13l-7 8c-5 7-9 15-12 24l-19 57Zm86 83c-2 0-4-1-4-4 0-9-2-18-4-27l-5-37-1-11-5-39-2-9c-1-2-3-4-5-3-2 0-3 2-3 4 0 4-1 5-4 3s-6-4-10-2c-3 0-4 4-3 6l6 4 9 2c2 0 4 2 4 5 0 7 2 13 1 20 0 8 3 16 4 24l1 6c0 20 4 39 7 59l1 5c2 6 1 11-5 14-14 5-28 9-43 10-3 0-4-2-5-4l-6-30c-2-11-4-21-3-31 2-14 1-29 5-43l2-11 6-27 1-5c2-14 8-26 14-38 4-6 9-10 15-13 7-4 15-7 24-6 4 0 6 1 9 4 3 6 6 12 7 20l5 45c1 14 4 28 6 41 2 8 2 15 2 24l3 29c2 6 0 8-5 10-6 2-12 4-19 4Zm94 91h-4c-9-2-19-2-28-3h-10c-8 1-15-1-22-3-8-3-13-8-14-16l-5-34c-1-8-2-16-6-24 3-2 6-2 8-2 4 0 7-5 12-3l2 12c1 10 4 18 4 28 0 5 3 10 5 15 1 3 3 6 7 6l8 1c5 2 10 3 14 6 5 5 11 6 17 7l10 2c2 0 3 1 4 4 1 1 0 3-2 4Zm24-22 5 4 1 2c0 2-2 2-3 2-5 0-11 0-15-3l-7-3c-9-4-16-10-24-16-3-3-4-7-4-11v-12c0-6 1-13-1-20-1-4 1-6 4-6 7 1 11 4 9 12-1 7 0 13 1 20 1 6 4 11 9 14l25 17Zm28-216-7 17-10 27-4 8c-4 9-10 12-19 12-4 0-5-1-6-4 0-18-6-34-12-50l-5-12c0-3 1-6 3-6 4-2 7 0 9 3l1 3c1 11 7 21 10 31l3 9c0 3 2 4 5 5l6-3 2-4c6-12 15-24 19-37 0-2 1-3 3-2 2 0 2 2 1 3ZM6155 3456c-5-1-10-2-15-1-7 1-13 0-20-1-5 0-9-2-12-5l-4-4a37 37 0 0 0-38-9l-12 4c-14 6-23 17-22 35l3 15 3 31c1 11-4 18-13 23l-9 4c-2 1-5 2-6 4-6 7-11 15-12 24-2 13-3 25-7 37l-1 14v30c0 7-3 9-9 9-11 1-19-5-25-13l-8-15c-5-10-8-20-5-31v-19c-1-5-4-6-12-7-3 0-5 1-6 7l-5 19v7l2 18c0 5 0 12 3 17a857 857 0 0 0 15 26l16 11c17 12 35 11 54 5 7-6 15-5 23-3l7 2c5 0 10 1 15-2 4-2 8-2 12-1 8 2 17 1 25 1l6-1c5-3 10-3 15-2l8-1c4 0 8-2 9-6 0-3 2-5 4-6 5-2 8-7 13-8l3-3c0-2-1-3-3-3l-15-6c-5-2-8-5-9-10-4-16-4-32-8-47v-3l-2-40c-1-13-5-25-4-38-2-5 1-9 5-13 3-3 6-5 11-5l5-1 15-6c8-4 14-8 18-16 3-7 1-13-8-16Zm-148 224-13 3c-14 4-26 1-37-8l-7-5c-5-3-8-7-11-12-8-13-11-27-12-42 0-6 2-13 5-18l2-1 2 2-1 6c0 9 2 17 6 25l7 18c3 8 8 14 12 21l3 3c8 3 16 6 24 5 6-1 13 0 19-2 1-1 2 1 2 2l-1 3Zm149-208-3 3c-6 4-12 8-20 8l-9 3c-5 2-11 5-17 4l-5 2c-10 4-12 8-10 18l6 36 1 4c3 11 2 22 4 32l4 27 4 21c1 8 2 16 7 22 2 1 2 3 2 6l-1 8c0 5 0 5-6 5-7 0-14-4-22-2-2 0-3-2-3-4v-37c0-7-2-14-4-21-1-6-5-9-10-11-10-3-19-4-27 3-7 6-8 15-6 24l2 5c2 4 2 9 6 9s3-5 4-8c3-3 3-7 4-11 2-4 3-9 8-12 4-2 7-1 9 3 5 9 7 19 4 30l-1 21v6c-2 10-1 12-12 12-5 0-11 1-16 3l-6 1c-3 1-6 0-8-4l-7-12c-2-3-3-6-2-10 4-13 5-26 5-40 1-7 0-16 2-23 1-4-1-7-1-10l-1-24c0-2 1-4 4-5l10-7c4-5 7-11 7-18 0-15-2-29-5-42-2-7-3-13-3-20-1-4 1-7 4-10 5-7 12-10 19-13l17-4c7 0 9 2 12 8l3 7c2 4 5 7 9 9 10 3 21 7 32 4l11-3c2-1 5-1 6 1s0 4-1 6ZM8084 3736l-9-4-19-6c-10-5-21-8-30-14-6-3-7-2-12 2l-5 4c-8 2-14 7-21 12l-12 7c-7 2-11 7-16 12l-2 6c0 5 1 9 3 14 5 7 5 7 0 14l-6 7c-1 2-2 4-1 6 1 7 3 13 8 18 8 7 17 10 26 13 4 2 8 3 12 1 4 0 7-1 11 1s8 2 14 2c4 1 9 0 14-3 9-9 20-16 31-23 6-4 7-7 5-15-1-4-1-5 2-7l5-2c4-2 7-6 8-10 2-6 2-12 5-18v-2c-3-5-4-12-11-15Zm-109 14c1-2 3-3 5-3l26-11c4-2 7-4 10-8 3-3 6-3 9-1l3 1c9 5 19 7 28 13l5 2c2 0 4 0 4 3 0 2-2 2-4 3-8 4-17 8-24 14l-9 2h-1c-16-5-33-5-49-10l-2-1c-2-1-2-3-1-4Zm63 29c-1 1-2 2-4 1l-2-1c-1-1 1-3 3-3 1 0 3 1 2 3Zm-16 1h-1a1169 1169 0 0 1-28-10c5-2 11-1 16 0l11 4 3 3-1 3Zm-35-12-2 1-4-1c-2-2-3-4-2-5 2-1 3 0 5 1l3 2v2Zm53 28-13 11c-2 2-4 2-6 2-12-5-26-6-38-9l-10-2c-3-1-4-4-2-6l12-14 2-1 3 1 12 5c4 3 9 4 14 4 3-1 6 1 9 2 5 3 10 6 16 4l2 1-1 2Zm34-28-33 11c3-6 7-7 10-8a102 102 0 0 0 22-7h4c1 1 0 3-3 4Z" class="cls-10"/><path d="m8345 3155-5 4c-1 0-2 2-1 3 2 4 7 6 11 5 9-5 13-16 7-25-1-2-2-3-4-3h-8c-2 0-4 2-5 4 0 2 1 4 3 5s5 1 6 3c0 3-3 3-4 4ZM6741 2867c2 1 4 0 6-1 5-4 5-11-1-15l-5-2c-7-3-14-4-23-5l-6 1-2 2 2 3 22 7c3 1 4 2 4 5-1 3 0 5 3 5ZM7858 3629l2-3c0-2-1-2-2-3-3-1-7 0-9 3l-18 21-3 6c-1 3 0 6 3 7s4-1 6-3l1-3c7-8 12-18 20-25ZM7842 3657l-2 4 1 4h4l6-7c6-9 12-17 21-22l2-3c-1-3-2-4-4-5-2 0-4 0-5 2l-17 19-6 8ZM7879 3637l-4 1c-9 7-16 16-22 26v2l1 2c3 0 4-2 5-4 5-8 12-15 20-22l2-2v-2l-2-1ZM8033 2446h-1l-14-5-4 2 1 4c5 3 10 6 14 6s6-1 6-3c1-1 0-3-2-4Z" class="cls-10"/><path d="M7924 3631c-5-6-11-10-18-12-14-7-28-13-43-16-7-4-13-2-19 4l-3 4c-7 7-13 16-21 23-5 5-8 11-11 17-3 8-7 10-15 8-6-2-11-2-17-2s-12 1-17 3c-6 2-10 2-14-3l-11-8c-6-3-8-7-8-13-1-11-1-21-3-31l-7-28c-2-6-3-12-7-17l-8-9c-3-2-5-5-5-9 0-1 0-4 2-4 6 1 10-3 16-4 4-1 5-3 4-7l-2-7-8-16c-3-4-5-9-4-14 0-11 0-20-2-31-1-7-3-13-7-19s-9-12-15-17c-5-5-11-10-20-10l-11-4c-4-2-8-1-13 1-8 3-16 7-25 6l-4 2c-3 1-4 4-3 6 2 5 1 10 4 15 2 1 2 3 2 5 0 11 0 20-11 25l-6 4-5 6v7l4 3c2 3 7 3 7 7 1 4-2 7-3 10l-1 2c-4 10-1 16 10 22l12 4 8 3c3 2 3 5 0 7-3 3-7 4-11 4-11 0-20 6-27 14l-10 10c-8 8-15 17-19 28l-10 22-14 27-2 7c-2 9-7 17-9 25-1 3-3 5-6 5-8 2-17 3-26 2s-15 3-21 9l-4 5c-12 10-13 25-14 40l1 3 8 15c9 14 22 22 36 28 6 2 11 5 15 8 9 7 20 11 31 11 13 0 26 1 39-1h17c9 1 18 0 27-3 7-2 15-3 21-6h7c6 2 13 1 19-1l15-4c10-3 20-4 29-10l11-5c4-1 7-4 7-9-1-12 5-23 8-34l5-9c6-9 11-19 11-31 0-4 3-5 7-3l4 2c8 8 19 12 27 20 7 7 16 9 26 3 7-5 16-8 25-8l5-1c7-2 13-2 19 1 5 3 10 1 13-3l4-5a247 247 0 0 1 29-37c2-2 1-4 0-6l-6-4c-2-2-2-4 0-6l10-9c3-3 4-4 1-7Zm-296-105-14-4c-4-1-5-4-4-8 2-4 4-4 7-3 2 0 5 1 5-2 1-3-3-3-5-3l-3-2-1-1c1-9-3-15-12-17l-2-1v-4c4-2 7-3 11 0 6 2 8 1 8-5l1-9c1-2 3-3 5-1l4 7c9 6 10 16 14 25l2 8c1 6 3 13 7 19l7 17c1 2 0 3-1 4-6 3-11 3-16 1l-2-4-1-4c0-8-2-10-11-13Zm-30 265c-14 0-28 0-43-2-8-2-16-4-24-4l-2-1c-3-4-9-4-13-8-4-3-8-5-13-6-13-2-25-8-35-16l-3-3c-8-10-6-28 3-36 5-5 10-9 16-12 5-3 11-5 17-4 7 2 14 1 20-1 4-1 5-1 7 3 4 8 10 12 17 15l9 4 4 3c2 2 3 4 2 7-1 1-2 3-4 2-4-1-7-3-10-6-4-3-8-3-13-2-3 2-4 6-2 8 3 3 6 5 10 6l10 5c4 1 6 3 6 7v8c-1 4 1 8 4 11 7 7 15 12 25 13l13 3c3 2 7 2 11 3-4 3-8 3-12 3Zm95-222h-5c-6-1-11 0-16 2-6 4-13 7-21 8-5 1-9 4-13 8a86 86 0 0 0-21 58v24l-1 39c-2 16-1 33-1 49v12c0 2 0 6-3 7-4 2-8 3-13 0l-1-1c-6-6-13-9-20-11-5-2-5-2-5-7-1-10 1-20 3-30l9-57 4-26v-19l-2-3-3 1c-6 7-11 15-12 24l-5 33-3 22c0 4-3 4-7 2-5-3-10-8-14-13-2-2-3-5-3-8l5-24c2-10 6-19 12-27 5-8 8-17 12-26 2-9 7-16 15-21 5-4 10-8 14-14s9-9 16-13l7-3c3-2 5-2 8-1l23 7c3 0 5 0 8-2 5-2 10-5 13-9 2-2 4-2 6-1l13 11 3 5c2 2 0 4-2 4Zm42 141-2 1-1-2c0-11-4-22-3-34v-11c-1-1 0-2 1-3l3 1c3 2 5 5 6 9 2 4 2 9 3 13-2 9-3 18-7 26Zm118-15-2 2-16 4c-5 1-10 3-14 6l-7 3c-4 1-9 1-12-3-5-5-11-9-18-13l-5-4c-4-4-8-6-12-8l-3-4c10-2 18-7 28-6l4-1c8-4 14-2 21 4-2 2-5 2-7 2l-13 4-2 2 2 2h9l12-4 7-1c1 0 2 0 3 2l-2 2-11 6c-1 0-2 1-1 2l3 1c6 0 13-2 20-4 6-2 11 1 15 4l1 2Zm52-63-11 8-12 12c-9 9-18 17-21 29-1 3-4 4-7 2-3-3-5-6-9-6-10-2-16-9-25-12-3-1-3-3-1-6 5-7 8-16 15-23 4-6 7-12 13-16l3-5c2-6 6-9 12-8 14 5 30 10 43 17 3 3 4 6 0 7ZM7943 3354c2 0 4 1 5-1s0-4-2-6l-7-9h-5v4l4 5c2 2 4 4 3 7h2ZM7941 3354h-1 1-1 1ZM6925 2549c0-5-2-8-5-11h-2l-2 1c-2 5 1 11 6 13 2 0 3-1 3-3ZM8315 3123c-2 3-4 6-4 10 0 1 2 3 4 3l1-1c3-1 5-7 4-10-1-2-3-3-5-2ZM8049 2417c-2-2-4-3-7-2-3 2-4 8-1 10 1 2 3 1 5 0 4-2 5-6 3-8ZM6987 3243h5l8 1 27 4c14 2 29 3 43 6 7 1 15 3 22 1l8 1c3 0 5-1 5-3s0-4-2-6l-7-2-22-2-23-1-47-5h-17l-2 2 2 4ZM7011 3226l13 1 31 2c12 0 25-1 37 2h8c3 0 5-2 6-4s0-3-1-4l-4-1c-18-3-35-3-52-4l-34-1c-7-1-14-2-21 2 5 6 11 6 17 7ZM7139 3240ZM7122 3251c10 1 14-4 17-11-8 0-13 5-17 11ZM7092 3325c-4-2-8-2-13-2l-31-1c-3 0-5-1-5-5 0-2-1-3-2-2l-9 9c-3 3-5 8-6 12v1h2l2-2c4-5 10-7 17-6 10 2 20 3 31 1l6-1c3 2 6 1 9 0 1-1 2-1 1-3l-2-2ZM7102 3310c0-2-1-3-3-4l-4-1c-7 1-13-1-20-2-6-1-13 1-19-1-4-2-9 2-11 6-1 2 1 4 3 4 8 0 16 3 25 1 8 2 17-1 25-1 2 0 4 0 4-2ZM7057 3290c3 2 7 1 11 1 9 1 19 1 29-1l2-2-2-2c-7-2-15-2-23-2l-17 1c-1 1-2 1-1 2l1 3ZM7021 3406l-1 1c3 4 8 3 12 2 1 0 2 0 3-2l-3-1c-4-2-8-3-11 0ZM8017 2548h2c3-3 4-8 2-12l-4-2c-1-1-2 1-3 2-2 3-2 7 0 10l2 2ZM8004 2577c2 1 3 0 3-1l3-10-1-3c-2-1-4 0-5 1l-2 8v2c0 2 0 3 2 3ZM8021 2576c0 2 2 3 3 3l3-2 2-7-1-4-1-1h-1c-3 3-5 7-5 11ZM8032 2548c2 1 3 0 4-2v-6h-1c-2 1-4 2-4 4-1 2-1 3 1 4ZM7988 2535l-1-1h-1c-3 2-4 5-3 10l5-9ZM8043 2576l2-2-2-2c-1-1-1 0-1 1-1 1-1 3 1 3ZM8037 2691c2 1 4 2 6 0 3-2 5-6 5-9 0-2-3-4-4-4-4 0-6 2-8 7-1 2-2 4 1 6ZM7982 2667c2 0 3 0 4-2l3-10-3-3-2 1-5 10c0 2 1 3 3 4ZM8000 2642l2-1c2-3 3-6 3-10l-2-2h-3l-5 8c0 2 2 5 5 5ZM8022 2677c2 1 5 0 6-2l4-11h-1v-1h-2l-7 9c-2 2-1 4 0 5ZM7977 2694c3-2 5-5 5-9 0-2-1-3-2-3-4 0-8 6-7 10 0 2 3 3 4 2ZM7956 2673c3-1 6-7 5-11l-1-2-1-1-1 1c-3 2-5 8-4 12l2 1ZM7975 2645h1c3-2 5-6 5-10l-1-1h-3l-4 9 1 2ZM8002 2669c-2 3-4 5-2 8 1 2 4 0 6-5l2-5-1-1h-2l-3 3ZM8019 2648c2 0 2-2 3-3v-5l-4 3c-1 2-2 3 0 5ZM6748 3136l-17-11c-15-6-30-10-44-19l-3-1c-5-2-6-2-10 2l-10 19c-5 13-11 26-15 40-1 4-1 6 2 8l9 4 31 14 12 6c3 2 7 3 10 3 4 1 8 0 10-4 3-7 8-13 11-21l3-5c6-6 8-14 12-21l2-6c0-3-1-6-3-8ZM6577 2923c1 1 3 3 6 2 2 0 1-3-1-6l-3-3-2-1-2 2c-1 3 0 4 2 6ZM6066 3473l-2 3a509 509 0 0 0-1 21l-3-2c-2-3-3-6-3-10-1-3-1-5-3-7h-3l-2 2c2 7 3 15 8 21 3 5 8 7 13 7 3 0 5-2 6-5 1-10-3-19-6-28 0-2-2-2-4-2ZM6092 3462c-3-2-7-3-9-1s0 4 0 6l2 5c1 2 4 3 7 3 2 0 4-1 4-3 0-4-2-9-4-10ZM7983 2567l3-1 1-7-2-2-2 2v2l-1 3 1 3Z" class="cls-10"/></g></svg>