<svg xmlns="http://www.w3.org/2000/svg" version="1.1" xmlns:xlink="http://www.w3.org/1999/xlink" xmlns:svgjs="http://svgjs.dev/svgjs" viewBox="0 0 800 800"><defs><linearGradient x1="50%" y1="0%" x2="50%" y2="100%" id="ccchaos-grad"><stop stop-color="hsl(305, 77%, 50%)" stop-opacity="1" offset="0%"></stop><stop stop-color="hsl(305, 77%, 80%)" stop-opacity="1" offset="100%"></stop></linearGradient></defs><g stroke-width="2" stroke="url(#ccchaos-grad)" fill="none" stroke-linecap="round"><path d="M111.04 103.16Q119.78 104.99 128.52 107.1 137.26 109.43 145.99 111.91 154.73 114.45 163.47 116.98 172.21 119.42 180.95 121.68 189.69 123.7 198.43 125.4 207.16 126.75 215.9 127.68 233.38 128.01 250.86 126.98 259.59 125.73 268.33 124.09 277.07 122.14 285.81 119.92 294.55 117.52 303.29 115 312.02 112.46 320.76 109.96 329.5 107.59 338.24 105.42 346.98 103.53 355.72 101.97 364.46 100.79 373.19 100.04 390.67 100.1 408.15 101.49 416.89 102.92 425.62 104.69 434.36 106.77 443.1 109.07 451.84 111.53 460.58 114.07 469.32 116.61 478.05 119.06 486.79 121.35 495.53 123.41 504.27 125.17 513.01 126.57 530.49 127.91 547.96 127.92 556.7 127.14 565.44 125.94 574.18 124.36 582.92 122.45 591.65 120.27 600.39 117.89 609.13 115.39 617.87 112.84 626.61 110.33 635.35 107.93 644.08 105.73 652.82 103.79 661.56 102.18 670.3 100.94 677.93 109.58 685.93 118.21 693.93 126.84 701.57 135.47 708.51 144.1 714.43 152.73 719.08 161.36 722.22 169.99 722.7 187.26 718.17 204.52 713.23 213.15 707.06 221.78 699.93 230.41 692.18 239.04 684.15 247.67 676.21 256.3 668.7 264.93 661.97 273.57 656.33 282.2 652.03 290.83 649 308.09 651.01 325.35 654.86 333.98 660.12 342.61 666.54 351.25 673.85 359.88 681.7 368.51 689.74 377.14 697.61 385.77 704.96 394.4 711.46 403.03 716.81 411.66 720.76 420.29 723.15 428.93 723.86 437.56 722.86 446.19 720.2 454.82 716 463.45 710.44 472.08 703.79 480.71 696.32 489.34 688.39 497.97 680.36 506.61 672.58 515.24 665.4 523.87 659.15 532.5 654.11 541.13 650.52 549.76 649.06 567.02 652.65 584.29 657.19 592.92 663.03 601.55 669.91 610.18 677.52 618.81 685.5 627.44 693.51 636.07 700.06 650.57 689.73 660.46 680.51 665.31 671.29 670.82 662.07 676.81 652.85 683.1 643.63 689.48 634.42 695.74 625.2 701.7 615.98 707.15 606.76 711.93 597.54 715.89 588.32 718.89 579.1 720.84 569.88 721.69 560.67 721.39 551.45 719.97 542.23 717.46 533.01 713.96 523.79 709.56 514.57 704.41 505.35 698.67 496.13 692.53 486.92 686.18 477.7 679.83 468.48 673.67 459.26 667.9 450.04 662.71 440.82 658.27 431.6 654.7 422.39 652.14 413.17 650.65 403.95 650.29 394.73 651.07 385.51 652.96 376.29 655.9 367.07 659.8 357.85 664.54 348.64 669.96 339.42 675.89 330.2 682.14 320.98 688.52 311.76 694.81 302.54 700.83 293.32 706.37 284.1 711.26 274.89 715.35 265.67 718.5 256.45 720.62 247.23 721.63 238.01 721.51 228.79 720.25 219.57 717.91 210.35 714.55 201.14 710.27 191.92 705.23 182.7 699.57 173.48 693.47 164.26 687.14 155.04 680.78 145.82 674.58 136.6 668.74 122.12 656.83 115.41 641.52 113.9 632.83 112.4 624.15 110.97 615.47 109.67 606.79 107.86 589.42 106.88 572.05 107.47 554.69 108.94 537.32 110.12 528.64 111.47 519.95 112.93 511.27 114.45 502.59 115.94 493.9 117.34 485.22 119.51 467.85 120.93 450.49 120.83 433.12 119.79 415.76 118.79 407.07 117.57 398.39 116.18 389.71 114.7 381.02 113.19 372.34 111.71 363.66 109.24 346.29 107.41 328.92 107.03 311.56 107.6 294.19 108.41 285.51 109.47 276.83 110.74 268.14 112.15 259.46 113.65 250.78 115.16 242.09 116.62 233.41 117.96 224.73 119.91 207.36 121.06 189.99 120.66 172.63 119.35 155.26 118.23 146.58 116.93 137.89 115.49 129.21 113.98 120.53 112.48 111.85 111.04 103.16" stroke-dasharray="5 1" transform="rotate(0, 400, 400)" opacity="1.00"></path><path d="M123.72 116.2Q140.76 120.68 157.79 125.67 174.83 130.57 191.87 134.83 208.9 137.93 225.94 139.52 242.97 139.41 260.01 137.61 277.04 134.34 294.08 129.97 311.11 125.02 328.15 120.07 345.18 115.7 362.22 112.41 379.26 110.59 396.29 110.46 413.33 112.03 430.36 115.12 447.4 119.36 464.43 124.26 481.47 129.25 498.5 133.74 515.54 137.2 532.57 139.24 549.61 139.61 566.64 138.27 583.68 135.38 600.72 131.27 617.75 126.43 634.79 121.42 651.82 116.82 668.86 113.19 684 129.86 697.65 146.53 707.56 163.2 712.09 179.87 710.5 196.54 703.04 213.21 690.96 229.88 676.23 246.54 661.3 263.21 648.64 279.88 640.32 296.55 637.73 313.22 641.3 329.89 650.43 346.56 663.62 363.23 678.68 379.9 693.14 396.57 704.6 413.24 711.17 429.91 711.77 446.58 706.29 463.25 695.65 479.92 681.6 496.59 666.45 513.26 652.72 529.93 642.66 546.59 637.95 563.26 639.35 579.93 646.64 596.6 658.61 613.27 673.29 629.94 688.25 646.61 670.73 655.35 653.22 666.39 635.7 678.44 618.19 690.08 600.67 699.96 583.15 706.92 565.64 710.14 548.12 709.25 530.61 704.35 513.09 696.02 495.57 685.23 478.06 673.24 460.54 661.45 443.03 651.26 425.51 643.83 407.99 640.06 390.48 640.37 372.96 644.73 355.45 652.64 337.93 663.16 320.41 675.06 302.9 686.96 285.38 697.46 267.87 705.33 250.35 709.65 232.83 709.91 215.32 706.09 197.8 698.63 180.29 688.41 162.77 676.62 145.26 664.63 127.74 653.86 124.64 637.06 121.6 620.26 119.12 603.46 117.61 586.65 117.32 569.85 118.3 553.05 120.38 536.25 123.23 519.45 126.36 502.65 129.27 485.84 131.48 469.04 132.61 452.24 132.48 435.44 131.12 418.64 128.75 401.83 125.76 385.03 122.64 368.23 119.91 351.43 118.02 334.63 117.28 317.83 117.82 301.02 119.54 284.22 122.16 267.42 125.25 250.62 128.3 233.82 130.8 217.02 132.35 200.21 132.68 183.41 131.74 166.61 129.69 149.81 126.86 133.01 123.72 116.2" stroke-dasharray="8 9" transform="rotate(4.04, 400, 400)" opacity="0.96"></path><path d="M136.8 129.82Q153.38 134.61 169.97 139.56 186.55 144.12 203.14 147.81 219.72 150.22 236.31 151.09 252.89 150.34 269.48 148.04 286.06 144.44 302.65 139.92 319.24 134.99 335.82 130.16 352.41 125.96 368.99 122.85 385.58 121.15 402.16 121.06 418.75 122.57 435.33 125.54 451.92 129.63 468.5 134.42 485.09 139.37 501.68 143.95 518.26 147.68 534.85 150.15 551.43 151.09 568.02 150.4 584.6 148.16 601.19 144.6 617.77 140.12 634.36 135.19 650.94 130.34 667.53 126.11 681.24 142.21 692.33 158.3 699.09 174.4 700.51 190.49 696.37 206.59 687.29 222.68 674.67 238.78 660.41 254.87 646.71 270.97 635.64 287.06 628.88 303.16 627.48 319.25 631.64 335.35 640.73 351.44 653.37 367.54 667.62 383.63 681.32 399.73 692.38 415.82 699.12 431.92 700.5 448.01 696.32 464.11 687.22 480.2 674.58 496.3 660.32 512.39 646.63 528.49 635.58 544.58 628.86 560.68 627.49 576.77 631.69 592.87 640.81 608.96 653.46 625.06 667.71 641.15 651.12 650.93 634.54 662.12 617.95 673.52 601.36 683.88 584.77 692.1 568.18 697.29 551.59 698.88 535 696.71 518.41 691.01 501.82 682.39 485.23 671.79 468.64 660.34 452.05 649.29 435.46 639.83 418.87 632.97 402.28 629.47 385.69 629.68 369.1 633.6 352.51 640.8 335.92 650.51 319.33 661.66 302.74 673.07 286.15 683.5 269.56 691.83 252.97 697.15 236.38 698.89 219.79 696.87 203.2 691.3 186.61 682.78 170.02 672.24 153.43 660.8 136.84 649.71 133.61 633.47 130.74 617.22 128.68 600.97 127.73 584.73 128.04 568.48 129.56 552.23 132.06 535.99 135.16 519.74 138.39 503.49 141.26 487.25 143.32 471 144.26 454.75 143.95 438.51 142.42 422.26 139.92 406.01 136.82 389.76 133.59 373.52 130.73 357.27 128.67 341.02 127.73 324.78 128.04 308.53 129.57 292.28 132.08 276.04 135.18 259.79 138.41 243.54 141.27 227.3 143.33 211.05 144.27 194.8 143.94 178.56 142.41 162.31 139.9 146.06 136.8 129.82" stroke-dasharray="6 9" transform="rotate(8.08, 400, 400)" opacity="0.92"></path><path d="M150.12 143.89Q166.23 148.77 182.34 153.47 198.45 157.54 214.56 160.55 230.67 162.22 246.78 162.39 262.89 161.02 279 158.26 295.11 154.39 311.22 149.78 327.33 144.9 343.45 140.22 359.56 136.22 375.67 133.28 391.78 131.71 407.89 131.65 424 133.11 440.11 135.95 456.22 139.89 472.33 144.53 488.44 149.41 504.55 154.06 520.66 158 536.77 160.86 552.88 162.33 568.99 162.29 585.1 160.73 601.22 157.81 617.33 153.81 633.44 149.14 649.55 144.26 665.66 139.64 677.2 155.18 685.35 170.71 688.97 186.24 687.55 201.77 681.29 217.3 671.06 232.83 658.31 248.37 644.81 263.9 632.46 279.43 622.98 294.96 617.71 310.49 617.38 326.02 622.04 341.55 631.04 357.09 643.11 372.62 656.56 388.15 669.52 403.68 680.16 419.21 687 434.74 689.07 450.28 686.09 465.81 678.48 481.34 667.29 496.87 654.1 512.4 640.76 527.93 629.13 543.46 620.84 559 617.06 574.53 618.31 590.06 624.42 605.59 634.53 621.12 647.23 636.65 631.55 646.91 615.88 657.77 600.2 668.15 584.52 677.04 568.85 683.53 553.17 687 537.49 687.1 521.82 683.81 506.14 677.47 490.46 668.7 474.79 658.37 459.11 647.51 443.43 637.19 427.76 628.44 412.08 622.13 396.4 618.87 380.73 619.01 365.05 622.51 349.37 629.03 333.7 637.94 318.02 648.33 302.34 659.19 286.67 669.44 270.99 678.05 255.31 684.18 239.63 687.21 223.96 686.85 208.28 683.14 192.6 676.43 176.93 667.4 161.25 656.94 145.57 646.09 142.44 630.4 139.95 614.7 138.44 599.01 138.13 583.31 139.07 567.62 141.11 551.93 143.98 536.23 147.27 520.54 150.52 504.85 153.28 489.15 155.16 473.46 155.89 457.76 155.38 442.07 153.69 426.38 151.07 410.68 147.88 394.99 144.56 379.3 141.58 363.6 139.36 347.91 138.21 332.21 138.29 316.52 139.59 300.83 141.93 285.13 144.98 269.44 148.31 253.75 151.45 238.05 153.97 222.36 155.52 206.66 155.87 190.97 154.97 175.28 152.96 159.58 150.12 143.89" stroke-dasharray="0 1" transform="rotate(12.12, 400, 400)" opacity="0.89"></path><path d="M163.51 158.29Q179.11 163.02 194.71 167.29 210.31 170.72 225.9 173 241.5 173.91 257.1 173.37 272.7 171.44 288.29 168.29 303.89 164.21 319.49 159.56 335.09 154.76 350.68 150.27 366.28 146.47 381.88 143.72 397.48 142.26 413.07 142.24 428.67 143.65 444.27 146.35 459.87 150.12 475.46 154.6 491.06 159.39 506.66 164.05 522.26 168.17 537.85 171.35 553.45 173.33 569.05 173.91 584.65 173.05 600.24 170.82 615.84 167.43 631.44 163.18 647.04 158.45 662.64 153.69 671.49 168.66 676.57 183.64 677.2 198.61 673.32 213.58 665.43 228.55 654.52 243.52 642.01 258.49 629.5 273.47 618.59 288.44 610.68 303.41 606.79 318.38 607.42 333.35 612.48 348.32 621.33 363.3 632.83 378.27 645.51 393.24 657.73 408.21 667.94 423.18 674.82 438.15 677.49 453.13 675.6 468.1 669.4 483.07 659.69 498.04 647.71 513.01 634.99 527.98 623.18 542.96 613.77 557.93 607.99 572.9 606.57 587.87 609.69 602.84 616.96 617.82 627.44 632.79 612.65 642.98 597.86 653.08 583.07 662.18 568.28 669.44 553.48 674.21 538.69 676.06 523.9 674.81 509.11 670.58 494.32 663.76 479.53 654.96 464.73 644.98 449.94 634.73 435.15 625.14 420.36 617.09 405.57 611.29 390.77 608.28 375.98 608.34 361.19 611.45 346.4 617.33 331.61 625.46 316.82 635.08 302.02 645.34 287.23 655.29 272.44 664.03 257.65 670.77 242.86 674.9 228.06 676.04 213.27 674.09 198.48 669.23 183.69 661.89 168.9 652.74 154.1 642.62 151.3 627.49 149.36 612.35 148.52 597.22 148.9 582.08 150.45 566.94 152.96 551.81 156.12 536.67 159.52 521.54 162.73 506.4 165.32 491.27 166.98 476.13 167.48 461 166.77 445.86 164.93 430.73 162.2 415.59 158.93 400.46 155.54 385.32 152.47 370.18 150.1 355.05 148.75 339.91 148.58 324.78 149.62 309.64 151.74 294.51 154.65 279.37 158 264.24 161.34 249.1 164.26 233.97 166.37 218.83 167.41 203.69 167.24 188.56 165.88 173.42 163.51 158.29" stroke-dasharray="1 4" transform="rotate(16.16, 400, 400)" opacity="0.85"></path><path d="M176.78 172.85Q191.82 177.21 206.85 180.89 221.89 183.59 236.93 185.08 251.96 185.23 267 184.04 282.04 181.61 297.07 178.13 312.11 173.89 327.15 169.25 342.18 164.59 357.22 160.29 372.26 156.71 387.29 154.15 402.33 152.82 417.37 152.83 432.41 154.18 447.44 156.75 462.48 160.34 477.52 164.64 492.55 169.3 507.59 173.94 522.63 178.17 537.66 181.64 552.7 184.06 567.74 185.24 582.77 185.07 597.81 183.57 612.85 180.86 627.88 177.17 642.92 172.8 657.96 168.12 663.86 182.53 665.91 196.94 663.88 211.34 658 225.75 648.97 240.16 637.82 254.57 625.89 268.98 614.54 283.39 605.13 297.8 598.74 312.2 596.12 326.61 597.59 341.02 602.96 355.43 611.61 369.84 622.54 384.25 634.45 398.65 645.96 413.06 655.71 427.47 662.58 441.88 665.75 456.29 664.85 470.7 659.99 485.11 651.74 499.51 641.07 513.92 629.21 528.33 617.56 542.74 607.49 557.15 600.16 571.56 596.44 585.97 596.77 600.37 601.1 614.78 608.93 629.19 594.98 638.84 581.03 647.83 567.09 655.44 553.14 661.02 539.19 664.11 525.25 664.46 511.3 662.04 497.35 657.05 483.4 649.9 469.46 641.19 455.51 631.63 441.56 622.02 427.62 613.16 413.67 605.77 399.72 600.46 385.77 597.69 371.83 597.67 357.88 600.42 343.93 605.69 329.99 613.06 316.04 621.92 302.09 631.52 288.15 641.09 274.2 649.81 260.25 656.98 246.3 662 232.36 664.45 218.41 664.13 204.46 661.07 190.52 655.51 176.57 647.93 162.62 638.94 160.36 624.38 159.11 609.81 159.02 595.25 160.09 580.68 162.21 566.12 165.12 551.55 168.48 536.99 171.9 522.42 174.99 507.86 177.37 493.29 178.77 478.73 179.03 464.16 178.12 449.59 176.13 435.03 173.32 420.46 169.99 405.9 166.55 391.33 163.4 376.77 160.9 362.2 159.35 347.64 158.92 333.07 159.68 318.51 161.52 303.94 164.24 289.38 167.52 274.81 170.97 260.25 174.18 245.68 176.79 231.11 178.49 216.55 179.08 201.98 178.49 187.42 176.78 172.85" stroke-dasharray="9 1" transform="rotate(20.200000000000003, 400, 400)" opacity="0.81"></path><path d="M189.71 187.41Q204.14 191.21 218.56 194.17 232.98 196.06 247.4 196.74 261.83 196.17 276.25 194.38 290.67 191.51 305.1 187.78 319.52 183.46 333.94 178.88 348.36 174.38 362.79 170.31 377.21 166.96 391.63 164.59 406.06 163.38 420.48 163.42 434.9 164.71 449.32 167.14 463.75 170.54 478.17 174.65 492.59 179.16 507.01 183.74 521.44 188.03 535.86 191.72 550.28 194.53 564.71 196.24 579.13 196.74 593.55 195.97 607.97 194.01 622.4 190.99 636.82 187.15 651.24 182.77 654.15 196.6 653.43 210.44 649.16 224.28 641.79 238.11 632.11 251.95 621.13 265.78 610.04 279.62 600.01 293.45 592.1 307.29 587.15 321.12 585.69 334.96 587.87 348.79 593.47 362.63 601.89 376.46 612.22 390.3 623.39 404.14 634.19 417.97 643.49 431.81 650.29 445.64 653.87 459.48 653.85 473.31 650.24 487.15 643.41 500.98 634.1 514.82 623.29 528.65 612.13 542.49 601.8 556.32 593.41 570.16 587.84 584 585.69 597.83 587.18 611.67 592.15 625.5 579 634.2 565.85 641.83 552.7 647.82 539.55 651.72 526.4 653.23 513.25 652.25 500.1 648.84 486.95 643.27 473.8 635.94 460.65 627.42 447.5 618.34 434.35 609.38 421.2 601.23 408.05 594.48 394.9 589.65 381.74 587.1 368.59 587.02 355.44 589.42 342.29 594.12 329.14 600.76 315.99 608.85 302.84 617.78 289.69 626.87 276.54 635.44 263.39 642.86 250.24 648.55 237.09 652.11 223.94 653.24 210.79 651.88 197.64 648.12 184.49 642.25 171.34 634.71 169.79 620.73 169.32 606.75 169.99 592.77 171.73 578.8 174.34 564.82 177.55 550.84 181.02 536.86 184.38 522.88 187.28 508.91 189.4 494.93 190.52 480.95 190.53 466.97 189.42 452.99 187.3 439.01 184.41 425.04 181.05 411.06 177.58 397.08 174.36 383.1 171.75 369.12 170.01 355.15 169.33 341.17 169.78 327.19 171.32 313.21 173.78 299.23 176.9 285.25 180.35 271.28 183.76 257.3 186.77 243.32 189.07 229.34 190.39 215.36 190.62 201.39 189.71 187.41" stroke-dasharray="5 3" transform="rotate(24.24, 400, 400)" opacity="0.77"></path><path d="M202.11 201.77Q215.86 204.85 229.62 207 243.37 208.06 257.13 207.96 270.88 206.71 284.64 204.39 298.39 201.17 312.15 197.25 325.9 192.91 339.66 188.44 353.41 184.14 367.17 180.31 380.92 177.21 394.68 175.03 408.44 173.95 422.19 174.02 435.95 175.24 449.7 177.53 463.46 180.73 477.21 184.63 490.97 188.97 504.72 193.44 518.48 197.74 532.23 201.59 545.99 204.72 559.74 206.91 573.5 208.03 587.25 207.99 601.01 206.8 614.76 204.53 635.44 206.03 639.26 223.96 633.25 237.2 624.92 250.45 615.05 263.7 604.61 276.94 594.58 290.19 585.94 303.44 579.51 316.69 575.91 329.93 575.48 343.18 578.27 356.43 584.01 369.67 592.15 382.92 601.9 396.17 612.33 409.42 622.44 422.66 631.27 435.91 637.95 449.16 641.86 462.4 642.61 475.65 640.14 488.9 634.68 502.15 626.76 515.39 617.13 528.64 606.72 541.89 596.53 555.13 587.53 568.38 580.6 581.63 576.39 594.87 575.31 608.12 577.46 621.37 565.05 628.81 552.65 634.9 540.24 639.23 527.83 641.51 515.43 641.59 503.02 639.45 490.61 635.25 478.21 629.26 465.8 621.9 453.4 613.67 440.99 605.11 428.58 596.82 416.18 589.36 403.77 583.23 391.37 578.84 378.96 576.51 366.55 576.38 354.15 578.46 341.74 582.61 329.34 588.56 316.93 595.89 304.52 604.11 292.12 612.66 279.71 620.97 267.3 628.46 254.9 634.63 242.49 639.06 230.09 641.45 217.68 641.64 205.27 639.61 192.87 635.51 180.46 629.6 179.74 616.23 180.11 602.86 181.51 589.49 183.83 576.12 186.83 562.75 190.23 549.38 193.71 536.01 196.93 522.64 199.57 509.27 201.4 495.9 202.22 482.53 201.97 469.16 200.67 455.79 198.43 442.42 195.49 429.05 192.11 415.68 188.62 402.31 185.37 388.94 182.65 375.57 180.73 362.2 179.8 348.83 179.94 335.46 181.15 322.09 183.29 308.72 186.18 295.35 189.53 281.98 193.02 268.61 196.31 255.25 199.1 241.88 201.1 228.51 202.14 215.14 202.11 201.77" stroke-dasharray="1 8" transform="rotate(28.28, 400, 400)" opacity="0.73"></path><path d="M213.8 215.74Q226.83 218.01 239.87 219.29 252.91 219.53 265.94 218.69 278.98 216.84 292.02 214.08 305.06 210.59 318.09 206.57 331.13 202.27 344.17 197.96 357.2 193.89 370.24 190.32 383.28 187.45 396.31 185.48 409.35 184.51 422.39 184.61 435.43 185.76 448.46 187.91 461.5 190.91 474.54 194.59 487.57 198.72 500.61 203.05 513.65 207.32 526.69 211.26 539.72 214.64 552.76 217.24 565.8 218.92 578.83 219.56 591.87 219.14 604.91 217.67 623.29 219.95 623.63 237.29 616.43 249.93 607.63 262.57 598.01 275.21 588.38 287.85 579.59 300.49 572.38 313.13 567.37 325.77 565.01 338.41 565.49 351.04 568.77 363.68 574.57 376.32 582.39 388.96 591.55 401.6 601.27 414.24 610.71 426.88 619.05 439.52 625.57 452.16 629.72 464.8 631.14 477.44 629.7 490.08 625.52 502.72 618.97 515.36 610.62 528 601.18 540.64 591.46 553.28 582.31 565.92 574.5 578.56 568.73 591.19 565.47 603.83 565.02 616.47 553.31 622.44 541.59 626.91 529.88 629.62 518.17 630.41 506.46 629.22 494.74 626.12 483.03 621.32 471.32 615.09 459.6 607.82 447.89 599.95 436.18 591.96 424.46 584.34 412.75 577.55 401.04 572.01 389.32 568.05 377.61 565.92 365.9 565.74 354.18 567.52 342.47 571.17 330.76 576.45 319.04 583.04 307.33 590.55 295.62 598.5 283.9 606.43 272.19 613.84 260.48 620.29 248.76 625.38 237.05 628.8 225.34 630.34 213.62 629.91 201.91 627.54 190.2 623.36 190.36 610.62 191.52 597.89 193.59 585.15 196.38 572.41 199.66 559.67 203.13 546.93 206.51 534.2 209.5 521.46 211.84 508.72 213.34 495.98 213.85 483.24 213.35 470.51 211.86 457.77 209.53 445.03 206.54 432.29 203.17 419.55 199.69 406.82 196.41 394.08 193.61 381.34 191.54 368.6 190.37 355.86 190.19 343.13 191.04 330.39 192.83 317.65 195.41 304.91 198.56 292.17 202 279.43 205.44 266.7 208.59 253.96 211.17 241.22 212.95 228.48 213.8 215.74" stroke-dasharray="1 8" transform="rotate(32.32, 400, 400)" opacity="0.70"></path><path d="M224.65 229.17Q236.93 230.55 249.2 230.98 261.48 230.43 273.75 228.93 286.03 226.56 298.3 223.46 310.58 219.78 322.86 215.74 335.13 211.55 347.41 207.43 359.68 203.62 371.96 200.32 384.23 197.71 396.51 195.93 408.78 195.08 421.06 195.2 433.34 196.29 445.61 198.29 457.89 201.09 470.16 204.53 482.44 208.44 494.71 212.59 506.99 216.77 519.27 220.74 531.54 224.29 543.82 227.23 556.09 229.39 568.37 230.66 580.64 230.97 592.92 230.3 609.18 233.46 606.83 250.24 598.98 262.25 590.2 274.26 581.18 286.27 572.61 298.28 565.14 310.29 559.35 322.3 555.69 334.31 554.44 346.32 555.7 358.33 559.36 370.34 565.15 382.35 572.62 394.36 581.19 406.37 590.21 418.38 598.99 430.39 606.84 442.4 613.16 454.41 617.47 466.42 619.44 478.43 618.91 490.44 615.93 502.45 610.71 514.46 603.68 526.47 595.36 538.48 586.39 550.49 577.48 562.5 569.29 574.51 562.47 586.52 557.53 598.53 554.86 610.54 543.8 614.92 532.73 617.79 521.66 618.98 510.59 618.43 499.53 616.17 488.46 612.32 477.39 607.1 466.33 600.78 455.26 593.71 444.19 586.28 433.12 578.89 422.06 571.94 410.99 565.8 399.92 560.82 388.85 557.26 377.79 555.32 366.72 555.11 355.65 556.62 344.58 559.79 333.52 564.44 322.45 570.32 311.38 577.1 300.31 584.42 289.25 591.88 278.18 599.07 267.11 605.61 256.04 611.14 244.98 615.35 233.91 618.02 222.84 619 206.75 610.98 203.62 591.62 206.22 579.54 209.36 567.46 212.77 555.38 216.19 543.3 219.38 531.22 222.07 519.13 224.06 507.05 225.2 494.97 225.4 482.89 224.65 470.81 223 458.73 220.58 446.64 217.58 434.56 214.23 422.48 210.78 410.4 207.5 398.32 204.64 386.24 202.43 374.15 201.03 362.07 200.55 349.99 201.02 337.91 202.42 325.83 204.64 313.74 207.49 301.66 210.77 289.58 214.22 277.5 217.58 265.42 220.58 253.34 223 241.25 224.65 229.17" stroke-dasharray="10 0" transform="rotate(36.36, 400, 400)" opacity="0.66"></path><path d="M234.6 241.9Q246.08 242.39 257.56 242 269.04 240.74 280.52 238.67 292.01 235.89 303.49 232.54 314.97 228.78 326.45 224.79 337.93 220.76 349.41 216.88 360.89 213.35 372.37 210.33 383.85 207.97 395.33 206.38 406.81 205.65 418.29 205.79 429.78 206.81 441.26 208.67 452.74 211.26 464.22 214.46 475.7 218.12 487.18 222.07 498.66 226.11 510.14 230.05 521.62 233.69 533.1 236.87 544.58 239.43 556.07 241.24 567.55 242.23 579.03 242.33 593.4 246.41 589.2 262.64 581.22 273.99 572.88 285.35 564.75 296.71 557.38 308.06 551.29 319.42 546.88 330.78 544.46 342.14 544.19 353.49 546.09 364.85 550.02 376.21 555.73 387.56 562.82 398.92 570.81 410.28 579.15 421.64 587.28 432.99 594.64 444.35 600.72 455.71 605.12 467.06 607.54 478.42 607.8 489.78 605.89 501.13 601.94 512.49 596.23 523.85 589.13 535.21 581.14 546.56 572.79 557.92 564.67 569.28 557.32 580.63 551.24 591.99 546.85 603.35 536.39 606.14 525.93 607.48 515.47 607.31 505.01 605.62 494.55 602.5 484.09 598.11 473.62 592.65 463.16 586.39 452.7 579.63 442.24 572.69 431.78 565.91 421.32 559.62 410.86 554.12 400.4 549.67 389.94 546.49 379.48 544.73 369.02 544.48 358.56 545.75 348.09 548.48 337.63 552.53 327.17 557.72 316.71 563.78 306.25 570.44 295.79 577.36 285.33 584.22 274.87 590.68 264.41 596.43 253.95 601.2 243.49 604.75 233.03 606.92 218.23 601.47 216.37 583.94 219.37 572.54 222.69 561.14 226.09 549.74 229.35 538.34 232.25 526.94 234.58 515.53 236.19 504.13 236.97 492.73 236.86 481.33 235.88 469.93 234.08 458.53 231.6 447.13 228.6 435.72 225.28 424.32 221.88 412.92 218.62 401.52 215.73 390.12 213.4 378.72 211.79 367.32 211.02 355.91 211.13 344.51 212.12 333.11 213.92 321.71 216.4 310.31 219.41 298.91 222.72 287.51 226.13 276.1 229.38 264.7 232.27 253.3 234.6 241.9" stroke-dasharray="8 4" transform="rotate(40.400000000000006, 400, 400)" opacity="0.62"></path><path d="M243.65 253.81Q254.31 253.46 264.98 252.32 275.64 250.45 286.31 247.93 296.97 244.86 307.64 241.37 318.3 237.61 328.97 233.74 339.63 229.92 350.29 226.32 360.96 223.08 371.62 220.35 382.29 218.25 392.95 216.85 403.62 216.22 414.28 216.38 424.95 217.34 435.61 219.04 446.27 221.42 456.94 224.38 467.6 227.78 478.27 231.49 488.93 235.35 499.6 239.2 510.26 242.86 520.93 246.2 531.59 249.05 542.25 251.32 552.92 252.89 563.58 253.7 576.34 258.67 571.13 274.31 563.47 284.99 555.9 295.67 548.87 306.35 542.82 317.03 538.09 327.71 534.98 338.39 533.66 349.08 534.23 359.76 536.64 370.44 540.76 381.12 546.32 391.8 553.01 402.48 560.42 413.16 568.1 423.85 575.59 434.53 582.45 445.21 588.26 455.89 592.68 466.57 595.43 477.25 596.36 487.93 595.41 498.62 592.64 509.3 588.2 519.98 582.37 530.66 575.51 541.34 568.01 552.02 560.33 562.7 552.93 573.39 546.25 584.07 540.7 594.75 530.82 596.03 520.93 596 511.05 594.65 501.17 592.05 491.28 588.3 481.4 583.56 471.52 578.04 461.63 571.96 451.75 565.59 441.87 559.19 431.98 553.04 422.1 547.39 412.22 542.49 402.33 538.55 392.45 535.72 382.57 534.14 372.68 533.86 362.8 534.91 352.92 537.23 343.03 540.72 333.15 545.25 323.27 550.61 313.39 556.58 303.5 562.91 293.62 569.33 283.74 575.56 273.85 581.35 263.97 586.44 254.09 590.62 244.2 593.72 230.58 590.54 229.75 574.78 232.97 564.08 236.3 553.38 239.56 542.68 242.55 531.98 245.08 521.29 247.01 510.59 248.21 499.89 248.63 489.19 248.22 478.49 247.02 467.79 245.11 457.09 242.58 446.39 239.6 435.69 236.34 424.99 233.01 414.29 229.79 403.59 226.88 392.9 224.46 382.2 222.67 371.5 221.63 360.8 221.38 350.1 221.95 339.4 223.3 328.7 225.36 318 227.99 307.3 231.04 296.6 234.33 285.9 237.66 275.2 240.83 264.51 243.65 253.81" stroke-dasharray="9 6" transform="rotate(44.44, 400, 400)" opacity="0.58"></path><path d="M251.87 264.81Q261.71 263.7 271.55 261.94 281.39 259.59 291.23 256.74 301.07 253.49 310.91 249.97 320.74 246.3 330.58 242.61 340.42 239.06 350.26 235.75 360.1 232.83 369.94 230.39 379.78 228.53 389.62 227.32 399.45 226.79 409.29 226.97 419.13 227.86 428.97 229.42 438.81 231.59 448.65 234.29 458.49 237.42 468.33 240.87 478.17 244.51 488 248.21 497.84 251.82 507.68 255.22 517.52 258.27 527.36 260.88 537.2 262.93 547.04 264.36 558.45 270.12 553 285.12 546.04 295.11 539.49 305.09 533.71 315.07 528.98 325.06 525.56 335.04 523.63 345.03 523.28 355.01 524.55 365 527.35 374.98 531.54 384.97 536.91 394.95 543.17 404.94 550 414.92 557.04 424.91 563.92 434.89 570.27 444.88 575.78 454.86 580.15 464.84 583.15 474.83 584.63 484.81 584.5 494.8 582.78 504.78 579.56 514.77 574.99 524.75 569.33 534.74 562.87 544.72 555.94 554.71 548.92 564.69 542.15 574.68 536.01 584.66 526.69 584.59 517.36 583.39 508.04 581.1 498.72 577.82 489.4 573.65 480.07 568.76 470.75 563.32 461.43 557.53 452.11 551.62 442.78 545.79 433.46 540.27 424.14 535.25 414.81 530.93 405.49 527.46 396.17 524.97 386.85 523.55 377.52 523.25 368.2 524.09 358.88 526.04 349.56 529.02 340.23 532.92 330.91 537.6 321.59 542.89 312.27 548.58 302.94 554.48 293.62 560.36 284.3 566 274.97 571.2 265.65 575.76 256.33 579.52 243.76 578.24 243.65 564.15 246.9 554.17 250.1 544.2 253.08 534.22 255.7 524.24 257.81 514.26 259.3 504.28 260.09 494.31 260.15 484.33 259.47 474.35 258.08 464.37 256.06 454.39 253.52 444.41 250.58 434.44 247.4 424.46 244.15 414.48 240.99 404.5 238.1 394.52 235.62 384.55 233.68 374.57 232.39 364.59 231.8 354.61 231.96 344.63 232.85 334.65 234.43 324.68 236.62 314.7 239.29 304.72 242.32 294.74 245.54 284.76 248.78 274.79 251.87 264.81" stroke-dasharray="2 0" transform="rotate(48.48, 400, 400)" opacity="0.54"></path><path d="M259.42 274.86Q268.43 273.13 277.45 270.88 286.46 268.2 295.48 265.15 304.5 261.84 313.51 258.38 322.53 254.88 331.54 251.44 340.56 248.18 349.58 245.2 358.59 242.6 367.61 240.45 376.62 238.83 385.64 237.8 394.66 237.37 403.67 237.57 412.69 238.38 421.7 239.79 430.72 241.75 439.74 244.2 448.75 247.05 457.77 250.22 466.78 253.6 475.8 257.1 484.82 260.59 493.83 263.96 502.85 267.12 511.86 269.95 520.88 272.37 529.9 274.29 540.22 280.7 535.19 294.99 529.21 304.26 523.85 313.53 519.35 322.8 515.92 332.07 513.71 341.34 512.82 350.61 513.3 359.88 515.11 369.15 518.18 378.42 522.37 387.69 527.49 396.96 533.31 406.23 539.57 415.5 545.98 424.77 552.26 434.04 558.11 443.3 563.29 452.57 567.55 461.84 570.71 471.11 572.61 480.38 573.18 489.65 572.38 498.92 570.26 508.19 566.91 517.46 562.48 526.73 557.17 536 551.23 545.27 544.91 554.54 531.02 567.84 514.76 569.74 506 566.76 497.23 563.02 488.46 558.64 479.7 553.77 470.93 548.55 462.16 543.15 453.39 537.75 444.63 532.52 435.86 527.62 427.09 523.21 418.32 519.43 409.56 516.4 400.79 514.22 392.02 512.96 383.26 512.65 374.49 513.31 365.72 514.92 356.95 517.42 348.19 520.73 339.42 524.76 330.65 529.36 321.88 534.41 313.12 539.72 304.35 545.14 295.58 550.49 286.82 555.6 278.05 560.31 269.28 564.47 259.34 553.78 263.95 533.65 266.56 524.41 268.73 515.17 270.38 505.93 271.42 496.68 271.81 487.44 271.53 478.2 270.59 468.96 269.05 459.71 266.96 450.47 264.42 441.23 261.54 431.99 258.46 422.74 255.31 413.5 252.24 404.26 249.39 395.02 246.87 385.77 244.82 376.53 243.31 367.29 242.42 358.05 242.19 348.8 242.62 339.56 243.71 330.32 245.39 321.08 247.6 311.83 250.23 302.59 253.17 293.35 256.27 284.11 259.42 274.86" stroke-dasharray="3 7" transform="rotate(52.52, 400, 400)" opacity="0.51"></path><path d="M266.49 283.99Q282.9 279.2 299.32 273.21 315.73 266.66 332.15 260.25 348.56 254.67 364.97 250.54 381.39 248.28 397.8 248.16 414.21 250.17 430.63 254.11 447.04 259.55 463.45 265.9 479.87 272.47 496.28 278.56 512.69 283.51 529.11 286.79 518.05 303.87 509.12 320.95 503.67 338.03 502.54 355.11 505.9 372.19 513.23 389.27 523.42 406.35 534.92 423.43 545.97 440.51 554.89 457.59 560.33 474.67 561.44 491.75 558.07 508.83 550.73 525.91 540.53 542.99 529.03 560.07 512.62 555.18 496.21 547.78 479.8 538.68 463.39 528.86 446.98 519.38 430.56 511.26 414.15 505.37 397.74 502.36 381.33 502.55 364.92 505.91 348.51 512.09 332.1 520.42 315.69 530 299.27 539.79 277.65 543.81 277.75 521.89 281.57 504.9 283.32 487.91 282.74 470.91 279.91 453.92 275.27 436.93 269.52 419.93 263.53 402.94 258.23 385.95 254.41 368.95 252.66 351.96 253.25 334.97 256.09 317.97 260.74 300.98 266.49 283.99" stroke-dasharray="1 7" transform="rotate(56.56, 400, 400)" opacity="0.47"></path><path d="M273.36 292.23Q288.2 286.98 303.04 281 317.88 274.84 332.72 269.06 347.56 264.18 362.4 260.65 377.24 258.78 392.08 258.75 406.91 260.56 421.75 264.04 436.59 268.88 451.43 274.63 466.27 280.79 481.11 286.78 495.95 292.06 510.79 296.16 501.87 311.76 495.42 327.36 492.24 342.96 492.75 358.56 496.89 374.16 504.11 389.77 513.51 405.37 523.86 420.97 533.85 436.57 542.19 452.17 547.81 467.77 549.98 483.37 548.44 498.97 543.38 514.57 535.45 530.17 525.66 545.77 510.41 539.86 495.15 532.23 479.89 523.58 464.64 514.7 449.38 506.39 434.13 499.4 418.87 494.38 403.62 491.77 388.36 491.82 373.1 494.51 357.85 499.62 342.59 506.66 327.34 515 312.08 523.89 291.9 528.56 291.34 509.11 294.13 493.62 294.98 478.13 293.78 462.64 290.68 447.14 286.08 431.65 280.58 416.16 274.87 400.67 269.68 385.18 265.7 369.69 263.42 354.19 263.14 338.7 264.89 323.21 268.45 307.72 273.36 292.23" stroke-dasharray="10 2" transform="rotate(60.599999999999994, 400, 400)" opacity="0.43"></path><path d="M280.34 299.69Q293.66 294.31 306.98 288.6 320.29 283 333.61 277.92 346.93 273.75 360.25 270.8 373.57 269.29 386.89 269.34 400.21 270.94 413.53 273.98 426.85 278.21 440.17 283.33 453.49 288.96 466.81 294.66 480.13 300.01 493.45 304.6 486.9 318.72 482.81 332.83 481.6 346.94 483.41 361.05 488.04 375.16 495.01 389.27 503.56 403.38 512.8 417.49 521.75 431.6 529.44 445.71 535.07 459.82 538.03 473.94 538.02 488.05 535.03 502.16 529.38 516.27 521.67 530.38 507.62 523.96 493.56 516.5 479.51 508.55 465.46 500.7 451.4 493.56 437.35 487.64 423.3 483.41 409.24 481.18 395.19 481.11 381.13 483.21 367.08 487.33 353.03 493.15 338.97 500.23 324.92 508.05 306.09 512.78 304.61 495.55 306.36 481.56 306.36 467.57 304.63 453.58 301.35 439.59 296.86 425.6 291.64 411.61 286.24 397.62 281.24 383.63 277.18 369.64 274.47 355.65 273.42 341.66 274.12 327.67 276.51 313.68 280.34 299.69" stroke-dasharray="10 2" transform="rotate(64.64, 400, 400)" opacity="0.39"></path><path d="M287.72 306.53Q299.58 301.33 311.44 296.1 323.3 291.18 335.16 286.85 347.02 283.38 358.88 280.99 370.74 279.82 382.6 279.93 394.46 281.33 406.33 283.93 418.19 287.57 430.05 292.03 441.91 297.03 453.77 302.28 465.63 307.44 477.49 312.22 473.29 324.84 471.31 337.46 471.71 350.08 474.46 362.69 479.33 375.31 485.9 387.93 493.59 400.55 501.75 413.17 509.67 425.79 516.67 438.41 522.15 451.03 525.63 463.65 526.82 476.27 525.61 488.89 522.1 501.51 516.61 514.13 503.81 507.69 491.01 500.72 478.22 493.65 465.42 486.9 452.63 480.89 439.83 475.98 427.03 472.48 414.24 470.59 401.44 470.43 388.65 472.01 375.85 475.24 363.05 479.92 350.26 485.75 337.46 492.4 319.96 496.71 317.43 481.47 318.17 468.98 317.44 456.48 315.29 443.99 311.91 431.49 307.58 418.99 302.69 406.5 297.66 394 292.91 381.51 288.85 369.01 285.85 356.52 284.15 344.02 283.9 331.52 285.12 319.03 287.72 306.53" stroke-dasharray="4 4" transform="rotate(68.68, 400, 400)" opacity="0.35"></path><path d="M295.81 312.93Q306.27 308.18 316.73 303.61 327.19 299.44 337.65 295.88 348.12 293.1 358.58 291.23 369.04 290.35 379.5 290.53 389.96 291.73 400.42 293.92 410.88 296.97 421.35 300.75 431.81 305.07 442.27 309.73 452.73 314.49 463.19 319.13 461.13 330.27 460.9 341.41 462.51 352.54 465.87 363.68 470.73 374.81 476.77 385.95 483.58 397.08 490.69 408.22 497.61 419.36 503.88 430.49 509.06 441.63 512.81 452.76 514.87 463.9 515.09 475.03 506.04 488.71 487.14 485.04 475.66 478.96 464.18 473.33 452.7 468.4 441.22 464.42 429.74 461.57 418.26 460 406.78 459.77 395.3 460.91 383.82 463.35 372.34 466.98 360.86 471.63 349.38 477.06 333.26 480.61 329.68 467.18 329.53 456.16 328.19 445.15 325.74 434.13 322.36 423.11 318.27 412.09 313.75 401.07 309.11 390.06 304.67 379.04 300.73 368.02 297.56 357 295.37 345.99 294.31 334.97 294.46 323.95 295.81 312.93" stroke-dasharray="3 2" transform="rotate(72.72, 400, 400)" opacity="0.32"></path><path d="M304.88 319.11Q313.99 315.01 323.11 311.22 332.22 307.85 341.34 305.05 350.45 302.91 359.57 301.51 368.68 300.91 377.8 301.12 386.91 302.14 396.02 303.93 405.14 306.42 414.25 309.53 423.37 313.13 432.48 317.1 446.01 328.25 451.51 344.87 453.93 354.54 457.56 364.2 462.21 373.87 467.63 383.54 473.54 393.2 479.63 402.87 485.58 412.54 491.09 422.2 495.85 431.87 499.63 441.54 502.23 451.2 503.51 460.87 497.6 472.69 481.69 469.56 471.58 464.56 461.48 460.01 451.37 456.09 441.26 452.95 431.15 450.69 421.04 449.4 410.93 449.14 400.82 449.9 390.71 451.66 380.6 454.36 370.5 457.9 360.39 462.14 345.74 464.73 341.27 452.97 340.39 443.41 338.6 433.84 335.99 424.28 332.71 414.72 328.91 405.16 324.81 395.6 320.61 386.04 316.54 376.47 312.8 366.91 309.6 357.35 307.1 347.79 305.43 338.23 304.67 328.67 304.88 319.11" stroke-dasharray="8 6" transform="rotate(76.76, 400, 400)" opacity="0.28"></path><path d="M315.13 325.29Q330.75 319.03 346.37 314.38 361.99 311.85 377.6 311.71 393.22 313.97 408.84 318.4 424.46 324.51 440.07 331.64 443.03 348.07 449.48 364.51 458.45 380.95 468.57 397.38 478.3 413.82 486.15 430.25 482.73 450.55 457.15 446.97 439.77 441.57 422.38 438.81 405 438.98 387.62 442.07 370.24 447.74 352.85 455.38 352.14 439.12 348.66 422.85 342.95 406.59 335.87 390.33 328.51 374.07 321.98 357.81 317.28 341.55 315.13 325.29" stroke-dasharray="8 2" transform="rotate(80.80000000000001, 400, 400)" opacity="0.24"></path><path d="M326.71 331.73Q339.76 327.14 352.82 323.9 365.88 322.25 378.94 322.3 392 324.06 405.06 327.39 418.11 332.05 431.17 337.68 435.32 351.26 441.57 364.85 449.23 378.43 457.51 392.02 465.52 405.6 472.42 419.19 471.55 436.25 451.16 434.23 436.68 430.3 422.2 428.22 407.72 428.16 393.24 430.11 378.76 433.93 364.28 439.34 362.24 425.89 358.37 412.44 353.08 398.99 346.93 385.53 340.57 372.08 334.68 358.63 329.89 345.18 326.71 331.73" stroke-dasharray="10 6" transform="rotate(84.84, 400, 400)" opacity="0.20"></path><path d="M339.63 338.66Q350.15 335.66 360.67 333.65 371.19 332.71 381.71 332.89 392.23 334.19 402.75 336.54 413.27 339.83 423.79 343.89 428.23 354.68 433.75 365.47 439.96 376.25 446.45 387.04 452.78 397.83 458.5 408.61 459.18 422.47 443.58 421.79 432.04 419.11 420.5 417.63 408.96 417.42 397.42 418.49 378.73 417.15 367.74 402.82 363.11 392.13 357.99 381.43 352.73 370.74 347.7 360.04 343.23 349.35 339.63 338.66" stroke-dasharray="10 1" transform="rotate(88.88, 400, 400)" opacity="0.16"></path><path d="M353.86 346.3Q369.79 343.63 385.73 343.49 401.67 345.87 417.61 350.54 425.96 366.61 435.39 382.69 439.52 404.22 417.4 407.04 400.22 407.2 383.03 410.15 376.78 394.19 369.04 378.23 360.99 362.26 353.86 346.3" stroke-dasharray="2 3" transform="rotate(92.92, 400, 400)" opacity="0.13"></path><path d="M369.21 354.86Q379.97 353.89 390.72 354.08 401.48 355.42 412.24 357.85 418.15 368.51 424.34 379.17 427.41 393.85 413.12 396.44 401.78 396.24 390.43 397.28 385.52 386.67 380.1 376.07 374.54 365.46 369.21 354.86" stroke-dasharray="4 0" transform="rotate(96.96, 400, 400)" opacity="0.09"></path></g></svg>