<svg width="1920" height="1089" viewBox="0 0 1920 1089" fill="none" xmlns="http://www.w3.org/2000/svg">
<rect width="1918" height="1089" fill="#D85829"/>
<path fill-rule="evenodd" clip-rule="evenodd" d="M0 619.148L46 606.927C91 593.347 183 567.546 274 606.927C366 646.307 457 749.512 549 802.472C640 854.074 746 892.097 838 879.875C929 866.296 1017 929.562 1108 941.784C1200 955.363 1280 879.875 1371 907.034C1463 932.835 1554 932.835 1646 879.875C1737 828.273 1829 723.711 1874 672.108L1920 619.148V1089H1874C1829 1089 1737 1089 1646 1089C1554 1089 1463 1089 1371 1089C1280 1089 1189 1089 1097 1089C1006 1089 914 1089 823 1089C731 1089 640 1089 549 1089C457 1089 366 1089 274 1089C183 1089 91 1089 46 1089H0V619.148Z" fill="white"/>
</svg>
