<svg xmlns="http://www.w3.org/2000/svg" version="1.1" xmlns:xlink="http://www.w3.org/1999/xlink" xmlns:svgjs="http://svgjs.dev/svgjs" viewBox="0 0 800 800"><defs><linearGradient x1="50%" y1="0%" x2="50%" y2="100%" id="oooscillate-grad"><stop stop-color="hsl(37, 99%, 67%)" stop-opacity="1" offset="0%"></stop><stop stop-color="hsl(316, 73%, 52%)" stop-opacity="1" offset="100%"></stop></linearGradient></defs><g stroke-width="1" stroke="url(#oooscillate-grad)" fill="none" stroke-linecap="round"><path d="M 0 600 Q 200 180 400 400 Q 600 620 800 600" opacity="1.00"></path><path d="M 0 575 Q 200 180 400 400 Q 600 620 800 575" opacity="0.96"></path><path d="M 0 550 Q 200 180 400 400 Q 600 620 800 550" opacity="0.92"></path><path d="M 0 525 Q 200 180 400 400 Q 600 620 800 525" opacity="0.88"></path><path d="M 0 500 Q 200 180 400 400 Q 600 620 800 500" opacity="0.83"></path><path d="M 0 475 Q 200 180 400 400 Q 600 620 800 475" opacity="0.79"></path><path d="M 0 450 Q 200 180 400 400 Q 600 620 800 450" opacity="0.75"></path><path d="M 0 425 Q 200 180 400 400 Q 600 620 800 425" opacity="0.71"></path><path d="M 0 400 Q 200 180 400 400 Q 600 620 800 400" opacity="0.67"></path><path d="M 0 375 Q 200 180 400 400 Q 600 620 800 375" opacity="0.63"></path><path d="M 0 350 Q 200 180 400 400 Q 600 620 800 350" opacity="0.59"></path><path d="M 0 325 Q 200 180 400 400 Q 600 620 800 325" opacity="0.55"></path><path d="M 0 300 Q 200 180 400 400 Q 600 620 800 300" opacity="0.50"></path><path d="M 0 275 Q 200 180 400 400 Q 600 620 800 275" opacity="0.46"></path><path d="M 0 250 Q 200 180 400 400 Q 600 620 800 250" opacity="0.42"></path><path d="M 0 225 Q 200 180 400 400 Q 600 620 800 225" opacity="0.38"></path><path d="M 0 200 Q 200 180 400 400 Q 600 620 800 200" opacity="0.34"></path><path d="M 0 175 Q 200 180 400 400 Q 600 620 800 175" opacity="0.30"></path><path d="M 0 150 Q 200 180 400 400 Q 600 620 800 150" opacity="0.26"></path><path d="M 0 125 Q 200 180 400 400 Q 600 620 800 125" opacity="0.22"></path><path d="M 0 100 Q 200 180 400 400 Q 600 620 800 100" opacity="0.17"></path><path d="M 0 75 Q 200 180 400 400 Q 600 620 800 75" opacity="0.13"></path><path d="M 0 50 Q 200 180 400 400 Q 600 620 800 50" opacity="0.09"></path></g></svg>