<svg xmlns="http://www.w3.org/2000/svg" version="1.1" xmlns:xlink="http://www.w3.org/1999/xlink" xmlns:svgjs="http://svgjs.dev/svgjs" viewBox="0 0 800 800"><g transform="matrix(1,0,0,1,0,0)"><circle r="50" cx="684" cy="684" stroke-width="4" stroke="#ff3895" fill="none" opacity="0.1" transform="rotate(100, 400, 400)"></circle><circle r="51.666666666666664" cx="679.2666666666667" cy="679.2666666666667" stroke-width="4.2" stroke="#fd3b97" fill="none" opacity="0.115" transform="rotate(98.33333333333333, 400, 400)"></circle><circle r="53.333333333333336" cx="674.5333333333333" cy="674.5333333333333" stroke-width="4.4" stroke="#fb3e9a" fill="none" opacity="0.13" transform="rotate(96.66666666666667, 400, 400)"></circle><circle r="55" cx="669.8" cy="669.8" stroke-width="4.6" stroke="#fa409c" fill="none" opacity="0.14500000000000002" transform="rotate(95, 400, 400)"></circle><circle r="56.666666666666664" cx="665.0666666666667" cy="665.0666666666667" stroke-width="4.8" stroke="#f8439e" fill="none" opacity="0.16" transform="rotate(93.33333333333333, 400, 400)"></circle><circle r="58.333333333333336" cx="660.3333333333334" cy="660.3333333333334" stroke-width="5" stroke="#f645a1" fill="none" opacity="0.17500000000000002" transform="rotate(91.66666666666667, 400, 400)"></circle><circle r="60" cx="655.6" cy="655.6" stroke-width="5.2" stroke="#f447a3" fill="none" opacity="0.19" transform="rotate(90, 400, 400)"></circle><circle r="61.66666666666667" cx="650.8666666666667" cy="650.8666666666667" stroke-width="5.4" stroke="#f24aa5" fill="none" opacity="0.20500000000000002" transform="rotate(88.33333333333333, 400, 400)"></circle><circle r="63.333333333333336" cx="646.1333333333333" cy="646.1333333333333" stroke-width="5.6" stroke="#f14ca7" fill="none" opacity="0.22000000000000003" transform="rotate(86.66666666666667, 400, 400)"></circle><circle r="65" cx="641.4" cy="641.4" stroke-width="5.8" stroke="#ef4ea9" fill="none" opacity="0.23500000000000001" transform="rotate(85, 400, 400)"></circle><circle r="66.66666666666667" cx="636.6666666666666" cy="636.6666666666666" stroke-width="6" stroke="#ed50ab" fill="none" opacity="0.25" transform="rotate(83.33333333333333, 400, 400)"></circle><circle r="68.33333333333334" cx="631.9333333333333" cy="631.9333333333333" stroke-width="6.2" stroke="#eb52ad" fill="none" opacity="0.265" transform="rotate(81.66666666666666, 400, 400)"></circle><circle r="70" cx="627.2" cy="627.2" stroke-width="6.4" stroke="#e954af" fill="none" opacity="0.28" transform="rotate(80, 400, 400)"></circle><circle r="71.66666666666667" cx="622.4666666666667" cy="622.4666666666667" stroke-width="6.6" stroke="#e756b1" fill="none" opacity="0.29500000000000004" transform="rotate(78.33333333333333, 400, 400)"></circle><circle r="73.33333333333334" cx="617.7333333333333" cy="617.7333333333333" stroke-width="6.800000000000001" stroke="#e558b3" fill="none" opacity="0.31000000000000005" transform="rotate(76.66666666666666, 400, 400)"></circle><circle r="75" cx="613" cy="613" stroke-width="7" stroke="#e35ab5" fill="none" opacity="0.325" transform="rotate(75, 400, 400)"></circle><circle r="76.66666666666667" cx="608.2666666666667" cy="608.2666666666667" stroke-width="7.2" stroke="#e15cb7" fill="none" opacity="0.34" transform="rotate(73.33333333333333, 400, 400)"></circle><circle r="78.33333333333334" cx="603.5333333333333" cy="603.5333333333333" stroke-width="7.4" stroke="#df5db9" fill="none" opacity="0.355" transform="rotate(71.66666666666666, 400, 400)"></circle><circle r="80" cx="598.8" cy="598.8" stroke-width="7.6" stroke="#dd5fbb" fill="none" opacity="0.37" transform="rotate(70, 400, 400)"></circle><circle r="81.66666666666667" cx="594.0666666666666" cy="594.0666666666666" stroke-width="7.800000000000001" stroke="#db61bd" fill="none" opacity="0.385" transform="rotate(68.33333333333333, 400, 400)"></circle><circle r="83.33333333333334" cx="589.3333333333334" cy="589.3333333333334" stroke-width="8" stroke="#d962bf" fill="none" opacity="0.4" transform="rotate(66.66666666666666, 400, 400)"></circle><circle r="85" cx="584.6" cy="584.6" stroke-width="8.2" stroke="#d764c1" fill="none" opacity="0.41500000000000004" transform="rotate(65, 400, 400)"></circle><circle r="86.66666666666667" cx="579.8666666666667" cy="579.8666666666667" stroke-width="8.4" stroke="#d566c3" fill="none" opacity="0.43000000000000005" transform="rotate(63.33333333333333, 400, 400)"></circle><circle r="88.33333333333334" cx="575.1333333333333" cy="575.1333333333333" stroke-width="8.600000000000001" stroke="#d367c5" fill="none" opacity="0.44500000000000006" transform="rotate(61.666666666666664, 400, 400)"></circle><circle r="90" cx="570.4" cy="570.4" stroke-width="8.8" stroke="#d169c6" fill="none" opacity="0.4600000000000001" transform="rotate(60, 400, 400)"></circle><circle r="91.66666666666667" cx="565.6666666666666" cy="565.6666666666666" stroke-width="9" stroke="#cf6ac8" fill="none" opacity="0.4750000000000001" transform="rotate(58.33333333333333, 400, 400)"></circle><circle r="93.33333333333334" cx="560.9333333333334" cy="560.9333333333334" stroke-width="9.2" stroke="#cc6cca" fill="none" opacity="0.49" transform="rotate(56.666666666666664, 400, 400)"></circle><circle r="95" cx="556.2" cy="556.2" stroke-width="9.4" stroke="#ca6dcc" fill="none" opacity="0.505" transform="rotate(55, 400, 400)"></circle><circle r="96.66666666666667" cx="551.4666666666667" cy="551.4666666666667" stroke-width="9.600000000000001" stroke="#c86fcd" fill="none" opacity="0.52" transform="rotate(53.33333333333333, 400, 400)"></circle><circle r="98.33333333333334" cx="546.7333333333333" cy="546.7333333333333" stroke-width="9.8" stroke="#c670cf" fill="none" opacity="0.535" transform="rotate(51.666666666666664, 400, 400)"></circle><circle r="100" cx="542" cy="542" stroke-width="10" stroke="#c472d1" fill="none" opacity="0.55" transform="rotate(50, 400, 400)"></circle><circle r="101.66666666666667" cx="537.2666666666667" cy="537.2666666666667" stroke-width="10.2" stroke="#c173d3" fill="none" opacity="0.5650000000000001" transform="rotate(48.33333333333333, 400, 400)"></circle><circle r="103.33333333333334" cx="532.5333333333333" cy="532.5333333333333" stroke-width="10.4" stroke="#bf75d4" fill="none" opacity="0.5800000000000001" transform="rotate(46.666666666666664, 400, 400)"></circle><circle r="105" cx="527.8" cy="527.8" stroke-width="10.600000000000001" stroke="#bd76d6" fill="none" opacity="0.5950000000000001" transform="rotate(45, 400, 400)"></circle><circle r="106.66666666666667" cx="523.0666666666666" cy="523.0666666666666" stroke-width="10.8" stroke="#ba77d8" fill="none" opacity="0.61" transform="rotate(43.33333333333333, 400, 400)"></circle><circle r="108.33333333333334" cx="518.3333333333334" cy="518.3333333333334" stroke-width="11" stroke="#b879d9" fill="none" opacity="0.625" transform="rotate(41.666666666666664, 400, 400)"></circle><circle r="110" cx="513.6" cy="513.6" stroke-width="11.2" stroke="#b57adb" fill="none" opacity="0.64" transform="rotate(40, 400, 400)"></circle><circle r="111.66666666666667" cx="508.8666666666667" cy="508.8666666666667" stroke-width="11.4" stroke="#b37cdc" fill="none" opacity="0.655" transform="rotate(38.33333333333333, 400, 400)"></circle><circle r="113.33333333333334" cx="504.1333333333333" cy="504.1333333333333" stroke-width="11.600000000000001" stroke="#b07dde" fill="none" opacity="0.67" transform="rotate(36.666666666666664, 400, 400)"></circle><circle r="115" cx="499.4" cy="499.4" stroke-width="11.8" stroke="#ae7ee0" fill="none" opacity="0.685" transform="rotate(35, 400, 400)"></circle><circle r="116.66666666666667" cx="494.66666666666663" cy="494.66666666666663" stroke-width="12" stroke="#ab7fe1" fill="none" opacity="0.7000000000000001" transform="rotate(33.33333333333333, 400, 400)"></circle><circle r="118.33333333333334" cx="489.93333333333334" cy="489.93333333333334" stroke-width="12.200000000000001" stroke="#a981e3" fill="none" opacity="0.7150000000000001" transform="rotate(31.666666666666657, 400, 400)"></circle><circle r="120" cx="485.2" cy="485.2" stroke-width="12.4" stroke="#a682e4" fill="none" opacity="0.73" transform="rotate(30, 400, 400)"></circle><circle r="121.66666666666667" cx="480.4666666666667" cy="480.4666666666667" stroke-width="12.6" stroke="#a383e6" fill="none" opacity="0.745" transform="rotate(28.33333333333333, 400, 400)"></circle><circle r="123.33333333333334" cx="475.73333333333335" cy="475.73333333333335" stroke-width="12.8" stroke="#a085e8" fill="none" opacity="0.76" transform="rotate(26.666666666666657, 400, 400)"></circle><circle r="125" cx="471" cy="471" stroke-width="13" stroke="#9e86e9" fill="none" opacity="0.775" transform="rotate(25, 400, 400)"></circle><circle r="126.66666666666667" cx="466.26666666666665" cy="466.26666666666665" stroke-width="13.200000000000001" stroke="#9b87eb" fill="none" opacity="0.79" transform="rotate(23.33333333333333, 400, 400)"></circle><circle r="128.33333333333334" cx="461.5333333333333" cy="461.5333333333333" stroke-width="13.4" stroke="#9888ec" fill="none" opacity="0.805" transform="rotate(21.666666666666657, 400, 400)"></circle><circle r="130" cx="456.8" cy="456.8" stroke-width="13.600000000000001" stroke="#9589ee" fill="none" opacity="0.8200000000000001" transform="rotate(20, 400, 400)"></circle><circle r="131.66666666666669" cx="452.06666666666666" cy="452.06666666666666" stroke-width="13.8" stroke="#928bef" fill="none" opacity="0.8350000000000001" transform="rotate(18.33333333333333, 400, 400)"></circle><circle r="133.33333333333334" cx="447.33333333333337" cy="447.33333333333337" stroke-width="14" stroke="#8f8cf1" fill="none" opacity="0.8500000000000001" transform="rotate(16.666666666666657, 400, 400)"></circle><circle r="135" cx="442.6" cy="442.6" stroke-width="14.200000000000001" stroke="#8c8df2" fill="none" opacity="0.865" transform="rotate(15, 400, 400)"></circle><circle r="136.66666666666669" cx="437.8666666666667" cy="437.8666666666667" stroke-width="14.4" stroke="#888ef4" fill="none" opacity="0.88" transform="rotate(13.333333333333329, 400, 400)"></circle><circle r="138.33333333333334" cx="433.1333333333333" cy="433.1333333333333" stroke-width="14.600000000000001" stroke="#858ff5" fill="none" opacity="0.895" transform="rotate(11.666666666666657, 400, 400)"></circle><circle r="140" cx="428.4" cy="428.4" stroke-width="14.8" stroke="#8290f6" fill="none" opacity="0.91" transform="rotate(10, 400, 400)"></circle><circle r="141.66666666666669" cx="423.6666666666667" cy="423.6666666666667" stroke-width="15" stroke="#7e91f8" fill="none" opacity="0.925" transform="rotate(8.333333333333329, 400, 400)"></circle><circle r="143.33333333333334" cx="418.93333333333334" cy="418.93333333333334" stroke-width="15.200000000000001" stroke="#7b93f9" fill="none" opacity="0.9400000000000001" transform="rotate(6.666666666666657, 400, 400)"></circle><circle r="145" cx="414.2" cy="414.2" stroke-width="15.4" stroke="#7794fb" fill="none" opacity="0.9550000000000001" transform="rotate(5, 400, 400)"></circle><circle r="146.66666666666669" cx="409.46666666666664" cy="409.46666666666664" stroke-width="15.600000000000001" stroke="#7395fc" fill="none" opacity="0.9700000000000001" transform="rotate(3.3333333333333286, 400, 400)"></circle><circle r="148.33333333333334" cx="404.73333333333335" cy="404.73333333333335" stroke-width="15.8" stroke="#6f96fe" fill="none" opacity="0.9850000000000001" transform="rotate(1.6666666666666572, 400, 400)"></circle><circle r="150" cx="400" cy="400" stroke-width="16" stroke="#6b97ff" fill="none" opacity="1" transform="rotate(0, 400, 400)"></circle></g></svg>