<svg xmlns="http://www.w3.org/2000/svg" version="1.1" xmlns:xlink="http://www.w3.org/1999/xlink" xmlns:svgjs="http://svgjs.dev/svgjs" viewBox="0 0 800 800" opacity="0.38"><defs><linearGradient x1="50%" y1="0%" x2="50%" y2="100%" id="rrreflection-grad"><stop stop-color="hsl(37, 99%, 67%)" stop-opacity="1" offset="45%"></stop><stop stop-color="hsl(316, 73%, 52%)" stop-opacity="1" offset="100%"></stop></linearGradient><linearGradient x1="50%" y1="0%" x2="50%" y2="100%" id="rrreflection-grad-2"><stop stop-color="hsl(316, 73%, 52%)" stop-opacity="1" offset="0%"></stop><stop stop-color="hsl(37, 99%, 67%)" stop-opacity="1" offset="45%"></stop></linearGradient><linearGradient gradientTransform="rotate(270)" x1="50%" y1="0%" x2="50%" y2="100%" id="rrreflection-grad-3"><stop stop-color="hsl(37, 99%, 67%)" stop-opacity="1" offset="45%"></stop><stop stop-color="hsl(316, 73%, 52%)" stop-opacity="1" offset="100%"></stop></linearGradient><linearGradient gradientTransform="rotate(270)" x1="50%" y1="0%" x2="50%" y2="100%" id="rrreflection-grad-4"><stop stop-color="hsl(316, 73%, 52%)" stop-opacity="1" offset="0%"></stop><stop stop-color="hsl(37, 99%, 67%)" stop-opacity="1" offset="45%"></stop></linearGradient></defs><g stroke-width="2.5" stroke="url(#rrreflection-grad)" fill="none"><circle r="185" cx="50%" cy="0"></circle><circle r="180" cx="50%" cy="0"></circle><circle r="175" cx="50%" cy="0"></circle><circle r="170" cx="50%" cy="0"></circle><circle r="165" cx="50%" cy="0"></circle><circle r="160" cx="50%" cy="0"></circle><circle r="155" cx="50%" cy="0"></circle><circle r="150" cx="50%" cy="0"></circle><circle r="145" cx="50%" cy="0"></circle><circle r="140" cx="50%" cy="0"></circle><circle r="135" cx="50%" cy="0"></circle><circle r="130" cx="50%" cy="0"></circle><circle r="125" cx="50%" cy="0"></circle><circle r="120" cx="50%" cy="0"></circle><circle r="115" cx="50%" cy="0"></circle><circle r="110" cx="50%" cy="0"></circle><circle r="105" cx="50%" cy="0"></circle><circle r="100" cx="50%" cy="0"></circle><circle r="95" cx="50%" cy="0"></circle><circle r="90" cx="50%" cy="0"></circle><circle r="85" cx="50%" cy="0"></circle><circle r="80" cx="50%" cy="0"></circle><circle r="75" cx="50%" cy="0"></circle><circle r="70" cx="50%" cy="0"></circle><circle r="65" cx="50%" cy="0"></circle><circle r="60" cx="50%" cy="0"></circle><circle r="55" cx="50%" cy="0"></circle><circle r="50" cx="50%" cy="0"></circle><circle r="45" cx="50%" cy="0"></circle><circle r="40" cx="50%" cy="0"></circle><circle r="35" cx="50%" cy="0"></circle><circle r="30" cx="50%" cy="0"></circle><circle r="25" cx="50%" cy="0"></circle><circle r="20" cx="50%" cy="0"></circle><circle r="15" cx="50%" cy="0"></circle><circle r="10" cx="50%" cy="0"></circle><circle r="5" cx="50%" cy="0"></circle></g><g stroke-width="2.5" stroke="url(#rrreflection-grad-2)" fill="none"><circle r="185" cx="50%" cy="100%"></circle><circle r="180" cx="50%" cy="100%"></circle><circle r="175" cx="50%" cy="100%"></circle><circle r="170" cx="50%" cy="100%"></circle><circle r="165" cx="50%" cy="100%"></circle><circle r="160" cx="50%" cy="100%"></circle><circle r="155" cx="50%" cy="100%"></circle><circle r="150" cx="50%" cy="100%"></circle><circle r="145" cx="50%" cy="100%"></circle><circle r="140" cx="50%" cy="100%"></circle><circle r="135" cx="50%" cy="100%"></circle><circle r="130" cx="50%" cy="100%"></circle><circle r="125" cx="50%" cy="100%"></circle><circle r="120" cx="50%" cy="100%"></circle><circle r="115" cx="50%" cy="100%"></circle><circle r="110" cx="50%" cy="100%"></circle><circle r="105" cx="50%" cy="100%"></circle><circle r="100" cx="50%" cy="100%"></circle><circle r="95" cx="50%" cy="100%"></circle><circle r="90" cx="50%" cy="100%"></circle><circle r="85" cx="50%" cy="100%"></circle><circle r="80" cx="50%" cy="100%"></circle><circle r="75" cx="50%" cy="100%"></circle><circle r="70" cx="50%" cy="100%"></circle><circle r="65" cx="50%" cy="100%"></circle><circle r="60" cx="50%" cy="100%"></circle><circle r="55" cx="50%" cy="100%"></circle><circle r="50" cx="50%" cy="100%"></circle><circle r="45" cx="50%" cy="100%"></circle><circle r="40" cx="50%" cy="100%"></circle><circle r="35" cx="50%" cy="100%"></circle><circle r="30" cx="50%" cy="100%"></circle><circle r="25" cx="50%" cy="100%"></circle><circle r="20" cx="50%" cy="100%"></circle><circle r="15" cx="50%" cy="100%"></circle><circle r="10" cx="50%" cy="100%"></circle><circle r="5" cx="50%" cy="100%"></circle></g><g stroke-width="2.5" stroke="url(#rrreflection-grad-3)" fill="none"><circle r="185" cx="0" cy="50%"></circle><circle r="180" cx="0" cy="50%"></circle><circle r="175" cx="0" cy="50%"></circle><circle r="170" cx="0" cy="50%"></circle><circle r="165" cx="0" cy="50%"></circle><circle r="160" cx="0" cy="50%"></circle><circle r="155" cx="0" cy="50%"></circle><circle r="150" cx="0" cy="50%"></circle><circle r="145" cx="0" cy="50%"></circle><circle r="140" cx="0" cy="50%"></circle><circle r="135" cx="0" cy="50%"></circle><circle r="130" cx="0" cy="50%"></circle><circle r="125" cx="0" cy="50%"></circle><circle r="120" cx="0" cy="50%"></circle><circle r="115" cx="0" cy="50%"></circle><circle r="110" cx="0" cy="50%"></circle><circle r="105" cx="0" cy="50%"></circle><circle r="100" cx="0" cy="50%"></circle><circle r="95" cx="0" cy="50%"></circle><circle r="90" cx="0" cy="50%"></circle><circle r="85" cx="0" cy="50%"></circle><circle r="80" cx="0" cy="50%"></circle><circle r="75" cx="0" cy="50%"></circle><circle r="70" cx="0" cy="50%"></circle><circle r="65" cx="0" cy="50%"></circle><circle r="60" cx="0" cy="50%"></circle><circle r="55" cx="0" cy="50%"></circle><circle r="50" cx="0" cy="50%"></circle><circle r="45" cx="0" cy="50%"></circle><circle r="40" cx="0" cy="50%"></circle><circle r="35" cx="0" cy="50%"></circle><circle r="30" cx="0" cy="50%"></circle><circle r="25" cx="0" cy="50%"></circle><circle r="20" cx="0" cy="50%"></circle><circle r="15" cx="0" cy="50%"></circle><circle r="10" cx="0" cy="50%"></circle><circle r="5" cx="0" cy="50%"></circle></g><g stroke-width="2.5" stroke="url(#rrreflection-grad-4)" fill="none"><circle r="185" cx="100%" cy="50%"></circle><circle r="180" cx="100%" cy="50%"></circle><circle r="175" cx="100%" cy="50%"></circle><circle r="170" cx="100%" cy="50%"></circle><circle r="165" cx="100%" cy="50%"></circle><circle r="160" cx="100%" cy="50%"></circle><circle r="155" cx="100%" cy="50%"></circle><circle r="150" cx="100%" cy="50%"></circle><circle r="145" cx="100%" cy="50%"></circle><circle r="140" cx="100%" cy="50%"></circle><circle r="135" cx="100%" cy="50%"></circle><circle r="130" cx="100%" cy="50%"></circle><circle r="125" cx="100%" cy="50%"></circle><circle r="120" cx="100%" cy="50%"></circle><circle r="115" cx="100%" cy="50%"></circle><circle r="110" cx="100%" cy="50%"></circle><circle r="105" cx="100%" cy="50%"></circle><circle r="100" cx="100%" cy="50%"></circle><circle r="95" cx="100%" cy="50%"></circle><circle r="90" cx="100%" cy="50%"></circle><circle r="85" cx="100%" cy="50%"></circle><circle r="80" cx="100%" cy="50%"></circle><circle r="75" cx="100%" cy="50%"></circle><circle r="70" cx="100%" cy="50%"></circle><circle r="65" cx="100%" cy="50%"></circle><circle r="60" cx="100%" cy="50%"></circle><circle r="55" cx="100%" cy="50%"></circle><circle r="50" cx="100%" cy="50%"></circle><circle r="45" cx="100%" cy="50%"></circle><circle r="40" cx="100%" cy="50%"></circle><circle r="35" cx="100%" cy="50%"></circle><circle r="30" cx="100%" cy="50%"></circle><circle r="25" cx="100%" cy="50%"></circle><circle r="20" cx="100%" cy="50%"></circle><circle r="15" cx="100%" cy="50%"></circle><circle r="10" cx="100%" cy="50%"></circle><circle r="5" cx="100%" cy="50%"></circle></g></svg>