<svg xmlns="http://www.w3.org/2000/svg" version="1.1" xmlns:xlink="http://www.w3.org/1999/xlink" xmlns:svgjs="http://svgjs.dev/svgjs" viewBox="0 0 800 800"><g fill="none" stroke-width="3" stroke="hsl(28, 100%, 71%)" stroke-linecap="round"><line x1="486" y1="400" x2="314" y2="400" transform="rotate(0, 400, 400)" opacity="0.63"></line><line x1="359.5" y1="400" x2="440.5" y2="400" transform="rotate(4, 400, 400)" opacity="0.83"></line><line x1="56.5" y1="400" x2="743.5" y2="400" transform="rotate(8, 400, 400)" opacity="0.44"></line><line x1="36" y1="400" x2="764" y2="400" transform="rotate(12, 400, 400)" opacity="0.65"></line><line x1="669" y1="400" x2="131" y2="400" transform="rotate(16, 400, 400)" opacity="0.29"></line><line x1="157.5" y1="400" x2="642.5" y2="400" transform="rotate(20, 400, 400)" opacity="0.10"></line><line x1="520" y1="400" x2="280" y2="400" transform="rotate(24, 400, 400)" opacity="0.49"></line><line x1="152.5" y1="400" x2="647.5" y2="400" transform="rotate(28, 400, 400)" opacity="0.85"></line><line x1="582.5" y1="400" x2="217.5" y2="400" transform="rotate(32, 400, 400)" opacity="0.22"></line><line x1="351" y1="400" x2="449" y2="400" transform="rotate(36, 400, 400)" opacity="0.46"></line><line x1="475.5" y1="400" x2="324.5" y2="400" transform="rotate(40, 400, 400)" opacity="0.62"></line><line x1="579.5" y1="400" x2="220.5" y2="400" transform="rotate(44, 400, 400)" opacity="0.82"></line><line x1="201" y1="400" x2="599" y2="400" transform="rotate(48, 400, 400)" opacity="0.64"></line><line x1="385" y1="400" x2="415" y2="400" transform="rotate(52, 400, 400)" opacity="0.12"></line><line x1="51.5" y1="400" x2="748.5" y2="400" transform="rotate(56, 400, 400)" opacity="0.39"></line><line x1="313" y1="400" x2="487" y2="400" transform="rotate(60, 400, 400)" opacity="0.85"></line><line x1="528" y1="400" x2="272" y2="400" transform="rotate(64, 400, 400)" opacity="0.73"></line><line x1="652" y1="400" x2="148" y2="400" transform="rotate(68, 400, 400)" opacity="0.92"></line><line x1="378.5" y1="400" x2="421.5" y2="400" transform="rotate(72, 400, 400)" opacity="0.32"></line><line x1="483.5" y1="400" x2="316.5" y2="400" transform="rotate(76, 400, 400)" opacity="0.78"></line><line x1="72" y1="400" x2="728" y2="400" transform="rotate(80, 400, 400)" opacity="0.82"></line><line x1="346.5" y1="400" x2="453.5" y2="400" transform="rotate(84, 400, 400)" opacity="0.84"></line><line x1="153.5" y1="400" x2="646.5" y2="400" transform="rotate(88, 400, 400)" opacity="0.84"></line><line x1="431.5" y1="400" x2="368.5" y2="400" transform="rotate(92, 400, 400)" opacity="0.28"></line><line x1="687.5" y1="400" x2="112.5" y2="400" transform="rotate(96, 400, 400)" opacity="0.40"></line><line x1="75" y1="400" x2="725" y2="400" transform="rotate(100, 400, 400)" opacity="0.54"></line><line x1="736.5" y1="400" x2="63.5" y2="400" transform="rotate(104, 400, 400)" opacity="0.09"></line><line x1="472.5" y1="400" x2="327.5" y2="400" transform="rotate(108, 400, 400)" opacity="0.33"></line><line x1="520.5" y1="400" x2="279.5" y2="400" transform="rotate(112, 400, 400)" opacity="0.83"></line><line x1="687.5" y1="400" x2="112.5" y2="400" transform="rotate(116, 400, 400)" opacity="0.42"></line><line x1="205.5" y1="400" x2="594.5" y2="400" transform="rotate(120, 400, 400)" opacity="0.69"></line><line x1="236.5" y1="400" x2="563.5" y2="400" transform="rotate(124, 400, 400)" opacity="0.84"></line><line x1="37.5" y1="400" x2="762.5" y2="400" transform="rotate(128, 400, 400)" opacity="0.61"></line><line x1="109.5" y1="400" x2="690.5" y2="400" transform="rotate(132, 400, 400)" opacity="0.56"></line><line x1="320.5" y1="400" x2="479.5" y2="400" transform="rotate(136, 400, 400)" opacity="0.09"></line><line x1="527" y1="400" x2="273" y2="400" transform="rotate(140, 400, 400)" opacity="0.56"></line><line x1="278" y1="400" x2="522" y2="400" transform="rotate(144, 400, 400)" opacity="0.08"></line><line x1="627" y1="400" x2="173" y2="400" transform="rotate(148, 400, 400)" opacity="0.86"></line><line x1="398.5" y1="400" x2="401.5" y2="400" transform="rotate(152, 400, 400)" opacity="0.20"></line><line x1="380.5" y1="400" x2="419.5" y2="400" transform="rotate(156, 400, 400)" opacity="0.36"></line><line x1="630.5" y1="400" x2="169.5" y2="400" transform="rotate(160, 400, 400)" opacity="0.65"></line><line x1="370" y1="400" x2="430" y2="400" transform="rotate(164, 400, 400)" opacity="0.44"></line><line x1="192" y1="400" x2="608" y2="400" transform="rotate(168, 400, 400)" opacity="0.86"></line><line x1="622" y1="400" x2="178" y2="400" transform="rotate(172, 400, 400)" opacity="0.89"></line><line x1="41.5" y1="400" x2="758.5" y2="400" transform="rotate(176, 400, 400)" opacity="0.81"></line><line x1="78.5" y1="400" x2="721.5" y2="400" transform="rotate(180, 400, 400)" opacity="0.16"></line><line x1="359.5" y1="400" x2="440.5" y2="400" transform="rotate(184, 400, 400)" opacity="0.13"></line><line x1="575" y1="400" x2="225" y2="400" transform="rotate(188, 400, 400)" opacity="0.40"></line><line x1="469.5" y1="400" x2="330.5" y2="400" transform="rotate(192, 400, 400)" opacity="0.33"></line><line x1="519.5" y1="400" x2="280.5" y2="400" transform="rotate(196, 400, 400)" opacity="0.66"></line><line x1="496" y1="400" x2="304" y2="400" transform="rotate(200, 400, 400)" opacity="0.16"></line><line x1="306" y1="400" x2="494" y2="400" transform="rotate(204, 400, 400)" opacity="0.69"></line><line x1="67.5" y1="400" x2="732.5" y2="400" transform="rotate(208, 400, 400)" opacity="0.41"></line><line x1="125" y1="400" x2="675" y2="400" transform="rotate(212, 400, 400)" opacity="0.30"></line><line x1="113" y1="400" x2="687" y2="400" transform="rotate(216, 400, 400)" opacity="0.65"></line><line x1="325" y1="400" x2="475" y2="400" transform="rotate(220, 400, 400)" opacity="0.99"></line><line x1="123.5" y1="400" x2="676.5" y2="400" transform="rotate(224, 400, 400)" opacity="0.87"></line><line x1="609.5" y1="400" x2="190.5" y2="400" transform="rotate(228, 400, 400)" opacity="0.85"></line><line x1="289" y1="400" x2="511" y2="400" transform="rotate(232, 400, 400)" opacity="0.22"></line><line x1="429" y1="400" x2="371" y2="400" transform="rotate(236, 400, 400)" opacity="0.52"></line><line x1="146" y1="400" x2="654" y2="400" transform="rotate(240, 400, 400)" opacity="0.66"></line><line x1="575.5" y1="400" x2="224.5" y2="400" transform="rotate(244, 400, 400)" opacity="0.81"></line><line x1="541" y1="400" x2="259" y2="400" transform="rotate(248, 400, 400)" opacity="0.49"></line><line x1="618.5" y1="400" x2="181.5" y2="400" transform="rotate(252, 400, 400)" opacity="0.43"></line><line x1="293" y1="400" x2="507" y2="400" transform="rotate(256, 400, 400)" opacity="0.43"></line><line x1="567.5" y1="400" x2="232.5" y2="400" transform="rotate(260, 400, 400)" opacity="0.72"></line><line x1="272" y1="400" x2="528" y2="400" transform="rotate(264, 400, 400)" opacity="0.71"></line><line x1="221" y1="400" x2="579" y2="400" transform="rotate(268, 400, 400)" opacity="0.70"></line><line x1="72.5" y1="400" x2="727.5" y2="400" transform="rotate(272, 400, 400)" opacity="0.59"></line><line x1="595.5" y1="400" x2="204.5" y2="400" transform="rotate(276, 400, 400)" opacity="0.67"></line><line x1="630" y1="400" x2="170" y2="400" transform="rotate(280, 400, 400)" opacity="0.43"></line><line x1="41" y1="400" x2="759" y2="400" transform="rotate(284, 400, 400)" opacity="0.11"></line><line x1="121.5" y1="400" x2="678.5" y2="400" transform="rotate(288, 400, 400)" opacity="0.52"></line><line x1="467" y1="400" x2="333" y2="400" transform="rotate(292, 400, 400)" opacity="0.58"></line><line x1="624" y1="400" x2="176" y2="400" transform="rotate(296, 400, 400)" opacity="0.39"></line><line x1="324" y1="400" x2="476" y2="400" transform="rotate(300, 400, 400)" opacity="0.60"></line><line x1="161.5" y1="400" x2="638.5" y2="400" transform="rotate(304, 400, 400)" opacity="0.75"></line><line x1="584" y1="400" x2="216" y2="400" transform="rotate(308, 400, 400)" opacity="0.81"></line><line x1="420" y1="400" x2="380" y2="400" transform="rotate(312, 400, 400)" opacity="0.90"></line><line x1="718.5" y1="400" x2="81.5" y2="400" transform="rotate(316, 400, 400)" opacity="0.73"></line><line x1="216" y1="400" x2="584" y2="400" transform="rotate(320, 400, 400)" opacity="0.59"></line><line x1="551.5" y1="400" x2="248.5" y2="400" transform="rotate(324, 400, 400)" opacity="0.56"></line><line x1="248" y1="400" x2="552" y2="400" transform="rotate(328, 400, 400)" opacity="0.17"></line><line x1="410.5" y1="400" x2="389.5" y2="400" transform="rotate(332, 400, 400)" opacity="0.62"></line><line x1="90" y1="400" x2="710" y2="400" transform="rotate(336, 400, 400)" opacity="0.84"></line><line x1="227" y1="400" x2="573" y2="400" transform="rotate(340, 400, 400)" opacity="0.13"></line><line x1="469" y1="400" x2="331" y2="400" transform="rotate(344, 400, 400)" opacity="0.99"></line><line x1="483" y1="400" x2="317" y2="400" transform="rotate(348, 400, 400)" opacity="0.36"></line></g></svg>