<svg id="visual" viewBox="0 0 900 600" width="900" height="600" xmlns="http://www.w3.org/2000/svg" xmlns:xlink="http://www.w3.org/1999/xlink" version="1.1"><rect x="0" y="0" width="900" height="600" fill="#d85829"></rect><path d="M0 423L21.5 437.5C43 452 86 481 128.8 489.7C171.7 498.3 214.3 486.7 257.2 476.3C300 466 343 457 385.8 443.7C428.7 430.3 471.3 412.7 514.2 413.7C557 414.7 600 434.3 642.8 449.7C685.7 465 728.3 476 771.2 475C814 474 857 461 878.5 454.5L900 448L900 601L878.5 601C857 601 814 601 771.2 601C728.3 601 685.7 601 642.8 601C600 601 557 601 514.2 601C471.3 601 428.7 601 385.8 601C343 601 300 601 257.2 601C214.3 601 171.7 601 128.8 601C86 601 43 601 21.5 601L0 601Z" fill="#9013FE" stroke-linecap="round" stroke-linejoin="miter"></path></svg>