<svg width="1920" height="1080" viewBox="0 0 1920 1080" fill="none" xmlns="http://www.w3.org/2000/svg">
<g clip-path="url(#clip0_592_31)">
<rect width="1920" height="1080" fill="#D85829"/>
<path fill-rule="evenodd" clip-rule="evenodd" d="M-7.69934 455.447L76.859 457.714C161.417 459.981 330.534 464.515 497.534 548.008C664.57 630.14 829.453 792.593 998.934 783.513C1168.42 774.434 1342.42 596.545 1513.99 509.867C1685.55 423.19 1854.66 427.724 1939.22 429.991L2023.78 432.258L2004.87 1137.45L1920.32 1135.18C1835.76 1132.91 1666.64 1128.38 1497.52 1123.84C1328.41 1119.31 1159.29 1114.78 990.175 1110.24C821.058 1105.71 651.941 1101.17 482.825 1096.64C313.708 1092.1 144.591 1087.57 60.0329 1085.3L-24.5254 1083.04L-7.69934 455.447Z" fill="#2563EB"/>
</g>
<defs>
<clipPath id="clip0_592_31">
<rect width="1920" height="1080" fill="white"/>
</clipPath>
</defs>
</svg>
