<svg xmlns="http://www.w3.org/2000/svg" version="1.1" xmlns:xlink="http://www.w3.org/1999/xlink" xmlns:svgjs="http://svgjs.dev/svgjs" viewBox="0 0 800 800"><defs><linearGradient x1="50%" y1="0%" x2="50%" y2="100%" id="wwwhirl-grad"><stop stop-color="hsl(206, 75%, 49%)" stop-opacity="1" offset="45%"></stop><stop stop-color="hsl(331, 90%, 56%)" stop-opacity="1" offset="100%"></stop></linearGradient></defs><g stroke-width="2" stroke="url(#wwwhirl-grad)" fill="none" stroke-linecap="round"><path d="M37.00000251770027 422.8037116111101C50.75000289917 406.3037111533464 75.50000358581553 340.9224593394578 103.000004348755 343.6037094138444C130.50000511169446 346.284959488231 141.5000054168703 434.22996192811144 169.00000617980973 435.6737119681658C196.5000069427492 437.11746200822006 207.50000724792503 351.56495963471536 235.00000801086446 350.53370960610516C262.500008773804 349.5024595774949 273.5000090789798 424.12371164773117 301.0000098419193 430.7237118308367C328.50001060485874 437.3237120139421 339.5000109100345 376.85121033623824 367.000011672974 382.2137104850114C394.50001243591345 387.5762106337846 405.5000127410893 455.43246251633775 433.0000135040287 456.463712544948C460.5000142669682 457.49496257355827 471.50001457214404 395.4137108512224 499.0000153350834 387.16371062234055C526.5000160980228 378.9137103934587 537.5000164031987 418.9262115035356 565.0000171661382 416.86371144631516C592.5000179290777 414.8012113890947 603.5000182342535 373.7574602504075 631.000018997193 377.2637103476823C658.5000197601325 380.76996044495706 669.5000200653083 436.37496198762074 697.0000208282477 433.6937119132341C724.5000215911871 431.0124618388475 749.2500222778326 378.83121039116986 763.0000226593024 364.39370999062663 " transform="rotate(99, 400, 400)"></path><path d="M48.00000244140632 422.112686001246C61.33333614464971 406.1126855573539 85.3333368104878 342.71268379843167 112.00000421697456 345.3126838705641C138.6666716234613 347.9126839426966 149.33333858605602 433.1926863086412 176.00000599254278 434.59268634748184C202.66667339902952 435.99268638632236 213.33334036162427 353.0326840847421 240.000007768111 352.0326840569988C266.6666751745978 351.03268402925556 277.3333421371925 423.39268603675737 304.00000954367925 429.7926862143142C330.66667695016605 436.192686391871 341.3333439127607 377.55268476500663 368.00001131924745 382.7526849092715C394.66667872573424 387.95268505353647 405.33334568832896 453.7526868790425 432.00001309481576 454.7526869067858C458.66668050130244 455.75268693452904 469.3333474638972 395.5526852643852 496.0000148703839 387.5526850424392C522.6666822768707 379.55268482049314 533.3333492394653 418.35268589693135 560.0000166459522 416.3526858414449C586.666684052439 414.35268578595833 597.3333510150337 374.55268468177684 624.0000184215204 377.9526847761039C650.6666858280073 381.352684870431 661.3333527906019 435.2726863663472 688.0000201970887 432.67268629421477C714.6666876035754 430.0726862220823 738.6666882694134 379.47268481827365 752.0000219726569 365.47268442986814 " transform="rotate(96, 400, 400)"></path><path d="M59.00000236511238 421.421675650171C71.9166693901294 405.9216752201506 95.16667003516005 344.5029235161946 121.00000408519412 347.02167358607295C146.83333813522813 349.54042365595126 157.1666717552418 432.1554259479601 183.0000058052758 433.511675985587C208.83333985530987 434.8679260232137 219.1666734753235 354.5004237935578 245.00000752535757 353.53167376668154C270.8333415753916 352.5629237398052 281.1666751954052 422.66167568457263 307.0000092454393 428.8616758565808C332.83334329547336 435.061676028589 343.16667691548696 378.2541744525641 369.00001096552097 383.29167459232076C394.83334501555504 388.3291747320774 405.1666786355687 452.0729265005364 431.0000126856027 453.0416765274127C456.8333467356368 454.010426554289 467.16668035565044 395.6916749363371 493.0000144056845 387.9416747213269C518.8333484557185 380.19167450631664 529.1666820757321 417.7791755491162 555.0000161257661 415.84167549536363C580.8333501758003 413.9041754416111 591.1666837958139 375.3479243719353 617.000017845848 378.6416744633146C642.8333518958821 381.93542455469395 653.1666855158957 434.1704260038628 679.0000195659296 431.6516759339845C704.8333536159636 429.13292586410614 728.0833542609943 380.11417450416656 741.0000212860114 366.55167412789865 " transform="rotate(93, 400, 400)"></path><path d="M70.00000228881842 420.7306538550042C82.50000263560909 405.73065343885537 105.00000325983231 346.29315178986576 130.00000395341365 348.73065185748993C155.00000464699497 351.1681519251141 165.00000492442751 431.1181541431872 190.00000561800886 432.43065417960025C215.0000063115902 433.7431542160133 225.00000658902275 355.9681520582817 250.00000728260406 355.0306520322724C275.00000797618543 354.09315200626315 285.000008253618 421.9306538882961 310.0000089471993 427.9306540547556C335.00000964078066 433.93065422121515 345.00000991821315 378.9556526960298 370.0000106117945 383.83065283127814C395.00001130537584 388.7056529665265 405.0000115828084 450.39315467793847 430.0000122763897 451.33065470394774C455.000012969971 452.2681547299571 465.0000132474036 395.8306531641972 490.00001394098496 388.3306529561228C515.0000146345662 380.83065274804835 525.0000149119987 417.20565375720923 550.0000156055801 415.3306537051906C575.0000162991615 413.455653653172 585.000016576594 376.14315261800186 610.0000172701755 379.3306527064335C635.0000179637568 382.5181527948651 645.0000182411893 433.0681541972866 670.0000189347705 430.6306541296624C695.0000196283519 428.1931540620382 717.5000202525752 380.7556527459676 730.0000205993658 367.6306523818374 " transform="rotate(90, 400, 400)"></path><path d="M81.00000221252448 420.0396435039292C93.08333588108879 405.539643101652 114.83333648450457 348.0833915076287 139.0000038216332 350.4396415729987C163.1666711587618 352.79589163836874 172.83333809361326 430.0808937825061 197.0000054307419 431.3496438177054C221.16667276787052 432.61839385290466 230.833339702722 357.4358917670975 255.00000703985063 356.5296417419552C279.16667437697924 355.6233917168128 288.83334131183074 421.19964353611135 313.00000864895935 426.99964369702224C337.16667598608797 432.7996438579331 346.8333429209394 379.65714238358726 371.000010258068 384.3696425143273C395.16667759519663 389.0821426450674 404.8333445300481 448.7133942994323 429.00001186717674 449.6196443245746C453.16667920430535 450.52589434971696 462.8333461391569 395.9696428361491 487.00001347628546 388.7196426350105C511.1666808134141 381.4696424338719 520.8333477482655 416.6321434093941 545.0000150853941 414.81964335910936C569.1666824225229 413.00714330882477 578.8333493573742 376.93839230816025 603.000016694503 380.0196423936442C627.1666840316316 383.10089247912805 636.8333509664831 431.96589383480216 661.0000183036116 429.6096437694321C685.1666856407402 427.2533937040621 706.9166862441559 381.3971424318605 719.0000199127203 368.709642079868 " transform="rotate(87, 400, 400)"></path><path d="M92.00000213623053 419.3486064499733C103.6666691265685 405.34860606156775 124.66666970917683 349.8736045225108 148.00000368985275 352.1486045856267C171.33333767052864 354.4236046487426 180.666671262799 429.04360671894415 204.00000524347493 430.26860675292966C227.33333922415085 431.49360678691517 236.66667281642125 358.9036047730323 260.00000679709717 358.028604748757C283.33334077777306 357.1536047244817 292.66667437004344 420.46860648104575 316.0000083507193 426.068606636408C339.3333423313953 431.6686067917702 348.66667592366565 380.35860536826385 372.00000990434154 384.90860549449565C395.3333438850174 389.45860562072744 404.6666774772878 447.0336072180453 428.00001145796375 447.9086072423206C451.3333454386397 448.783607266596 460.6666790309101 396.1086058052201 484.000013011586 389.1086056110173C507.33334699226185 382.10860541681456 516.6666805845323 416.058606358698 540.0000145652082 414.3086063101473C563.3333485458841 412.5586062615966 572.6666821381544 377.7336052954378 596.0000161188304 380.708605377974C619.3333500995063 383.6836054605102 628.6666836917767 430.8636067694369 652.0000176724526 428.588606706321C675.3333516531285 426.31360664320505 696.3333522357368 382.0386054148725 708.0000192260748 369.78860507501764 " transform="rotate(84, 400, 400)"></path><path d="M103.00000205993659 418.6575846548065C114.25000237204819 405.1575842802726 134.5000029338491 351.6638327961819 157.00000355807228 353.85758285704367C179.50000418229547 356.0513329179054 188.5000044319848 428.00633491417125 211.00000505620795 429.18758494694293C233.50000568043117 430.36883497971473 242.50000593012047 360.3713330377563 265.0000065543437 359.5275830143479C287.5000071785669 358.68383299093955 296.5000074282562 419.7375846847692 319.0000080524794 425.1375848345828C341.5000086767026 430.53758498439635 350.50000892639184 381.0600836117295 373.00000955061506 385.44758373345303C395.5000101748383 389.83508385517655 404.5000104245276 445.35383539544733 427.00001104875076 446.19758541885574C449.500011672974 447.0413354422641 458.5000119226633 396.2475840330802 481.00001254688647 389.4975838458132C503.50001317110963 382.74758365854626 512.5000134207988 415.48508456679104 535.0000140450221 413.7975845199743C557.5000146692455 412.11008447315754 566.5000149189347 378.5288335415044 589.0000155431579 381.39758362109285C611.5000161673811 384.26633370068134 620.5000164170704 429.76133496286064 643.0000170412935 427.5675849019989C665.5000176655168 425.3738348411371 685.7500182273176 382.6800836566736 697.0000185394292 370.8675833289564 " transform="rotate(81, 400, 400)"></path><path d="M114.00000198364263 417.96656667433695C124.83333561752788 404.96656631367466 144.33333615852135 353.4540648845503 166.0000034262918 355.5665649431579C187.6666706940623 357.6790650017656 196.3333376011705 426.9690669240956 218.000004868941 428.10656695565353C239.6666721367115 429.24406698721157 248.3333390438197 361.8390651171775 270.0000063115902 361.0265650946361C291.6666735793607 360.21406507209474 300.33334048646896 419.00656670318995 322.0000077542394 424.2065668474549C343.6666750220099 429.4065669917198 352.3333419291181 381.7615656698925 374.0000091968886 385.98656578710774C395.6666764646591 390.211565904323 404.3333433717673 443.67406738754664 426.0000106395378 444.48656741008807C447.66667790730827 445.29906743262944 456.3333448144165 396.3865660756376 478.00001208218697 389.88656589530643C499.66667934995746 383.38656571497523 508.33334625706556 414.91156658958135 530.0000135248362 413.28656654449856C551.6666807926067 411.66156649941576 560.3333476997147 379.3240656022683 582.0000149674854 382.08656567890904C603.6666822352558 384.84906575554976 612.3333491423641 428.6590669709817 634.0000164101345 426.5465669123741C655.666683677905 424.43406685376647 675.1666842188985 383.32156571317194 686.0000178527837 371.94656539759245 " transform="rotate(78, 400, 400)"></path><path d="M125.00000190734869 417.2755410644729C135.41666886300757 404.77554071768225 154.1666693831936 355.2442893435242 175.00000329451137 357.2755393998777C195.83333720582914 359.3067894562312 204.16667077035626 425.93179130462545 225.00000468167406 427.0255413349696C245.83333859299182 428.1192913653138 254.16667215751897 363.3067895672042 275.00000606883674 362.52553954552974C295.8333399801545 361.74428952385534 304.16667354468166 418.27554109221614 325.0000074559994 423.2755412309324C345.8333413673172 428.2755413696487 354.16667493184434 382.4630400986609 375.00000884316205 386.52554021136785C395.8333427544799 390.5880403240748 404.166676319007 441.9942917502515 425.0000102303248 442.7755417719259C445.83334414164256 443.55679179360027 454.1666777061697 396.5255404888004 475.0000116174875 390.27554031540507C495.83334552880524 384.02554014200973 504.1666790933323 414.3380409829771 525.0000130046501 412.7755409396283C545.8333469159679 411.21304089627944 554.166680480495 380.11929003363764 575.0000143918128 382.77554010733064C595.8333483031306 385.43179018102364 604.1666818676579 427.55679134970825 625.0000157789755 425.52554129335476C645.8333496902933 423.4942912370012 664.5833502104794 383.9630401402758 675.0000171661382 373.0255398368339 " transform="rotate(75, 400, 400)"></path><path d="M136.00000183105476 416.58452308400337C146.00000210848728 404.5845227510843 164.00000260786584 357.0345214318926 184.00000316273093 358.98452148599193C204.00000371759597 360.9345215400913 212.000003939542 424.8945233145498 232.00000449440708 425.9445233436802C252.00000504927215 426.99452337281065 260.0000052712182 364.7745216466254 280.0000058260833 364.02452162581795C300.0000063809483 363.2745216050105 308.00000660289436 417.5445231106369 328.00000715775946 422.3445232438045C348.00000771262455 427.1445233769721 356.00000793457053 383.1645221568238 376.0000084894356 387.0645222650225C396.00000904430067 390.9645223732212 404.0000092662467 440.31452374235073 424.0000098211118 441.0645237631582C444.0000103759769 441.8145237839657 452.0000105979229 396.66452253135776 472.000011152788 390.66452236489823C492.000011707653 384.6645221984387 500.00001192959905 413.7645230057674 520.0000124844642 412.2645229641525C540.0000130393292 410.7645229225376 548.0000132612753 380.9145220944015 568.0000138161404 383.4645221651468C588.0000143710055 386.01452223589206 596.0000145929514 426.45452335782926 616.0000151478165 424.5045233037299C636.0000157026815 422.55452324963056 654.00001620206 384.6045221967741 664.0000164794926 374.10452190546994 " transform="rotate(72, 400, 400)"></path><path d="M146.9999864959717 415.89350128883655C156.5833200951779 404.3935009697891 173.83332057374906 358.82474970556376 192.9999877721614 360.693499757409C212.16665497057375 362.5622498092541 219.8333218499387 423.85725150977686 238.99998904835104 424.86350153769354C258.1666562467634 425.86975156561016 265.8333231261284 366.24224991134935 284.9999903245407 365.52349989140885C304.1666575229531 364.8047498714684 311.83332440231806 416.81350131436034 330.9999916007304 421.4135014419793C350.1666587991428 426.01350156959825 357.83332567850766 383.8660004002895 376.99999287692003 387.6035005039799C396.1666600753324 391.3410006076703 403.8333269546974 438.63475191975283 422.99999415310975 439.3535019396933C442.1666613515221 440.0722519596337 449.83332823088705 396.80350075921785 468.9999954292994 391.05350059969413C488.16666262771173 385.3035004401704 495.83332950707666 413.19100121386043 514.9999967054891 411.7535011739795C534.1666639039015 410.31600113409854 541.8333307832664 381.7097503404681 560.9999979816788 384.1535004082657C580.1666651800912 386.59725047606327 587.8333320594561 425.35225155125306 606.9999992578685 423.48350149940785C626.1666664562807 421.61475144756264 643.4166669348518 385.24600043857515 653.000000534058 375.1835001594087 " transform="rotate(69, 400, 400)"></path><path d="M157.99998641967778 415.20247567897246C167.1666533406576 404.2024753737967 183.6666537984213 360.6149741645376 201.99998764038094 362.4024742141287C220.33332148234058 364.18997426371976 227.66665501912445 422.8199758903067 245.9999888610841 423.7824759170096C264.33332270304373 424.74497594371246 271.6666562398276 367.709974361376 289.99999008178725 367.02247434230253C308.3333239237469 366.33497432322906 315.6666574605308 416.08247570338654 333.99999130249046 420.48247582545685C352.3333251444501 424.88247594752715 359.6666586812339 384.5674748290579 377.99999252319355 388.14247492824006C396.3333263651532 391.71747502742215 403.6666599019371 436.9549762824576 421.99999374389677 437.6424763015311C440.3333275858564 438.3299763206046 447.6666611226403 396.9424751723807 465.9999949645999 391.44247501979277C484.3333288065595 385.94247486720485 491.6666623433434 412.61747560725615 509.9999961853031 411.2424755691092C528.3333300272627 409.8674755309622 535.6666635640465 382.50497477183745 553.9999974060063 384.8424748366873C572.3333312479659 387.17997490153715 579.6666647847499 424.24997592997954 597.9999986267094 422.4624758803885C616.3333324686689 420.6749758307974 632.8333329264326 385.887474865679 641.9999998474125 376.26247459865016 " transform="rotate(66, 400, 400)"></path><path d="M168.99998634338385 414.5114462544111C177.7499865861373 404.011445963107 193.49998702309355 362.40519480881426 210.9999875086005 364.11144485615114C228.4999879941074 365.8176949034881 235.49998818831023 421.78269645613926 252.99998867381714 422.7014464816284C270.49998915932406 423.6201965071175 277.49998935352687 369.17769499670544 294.9999898390338 368.5214449784989C312.4999903245407 367.8651949602924 319.4999905187435 415.35144627771547 336.99999100425043 419.55144639423713C354.49999148975735 423.7514465107588 361.49999168396016 385.26894544312904 378.9999921694671 388.6814455378029C396.49999265497405 392.09394563247673 403.4999928491768 435.2751968304651 420.9999933346837 435.9314468486716C438.4999938201907 436.58769686687816 445.4999940143935 397.08144577084624 462.9999944999004 391.83144562519414C480.4999949854073 386.5814454795421 487.4999951796101 412.04394618595467 504.99999566511707 410.7314461495416C522.4999961506239 409.41894611312864 529.4999963448267 383.3001953885095 546.9999968303338 385.53144545041164C564.4999973158407 387.76269551231377 571.4999975100434 423.1476964940088 588.9999979955503 421.4414464466719C606.4999984810572 419.73519639933494 622.2499989180135 386.5289454780855 630.999999160767 377.3414452231944 " transform="rotate(63, 400, 400)"></path><path d="M179.9999862670899 413.8204397180334C188.33331983161702 403.82043944060086 203.3333202477658 364.19543834127444 219.99998737682003 365.82043838635724C236.66665450587425 367.44543843144004 243.33332135749595 420.7454399101554 259.9999884865502 421.6204399344308C276.6666556156044 422.49543995870613 283.33332246722614 370.6454385202184 299.99998959628033 370.0204385028789C316.6666567253345 369.39543848553933 323.3333235769563 414.620439740228 339.9999907060105 418.620439851201C356.6666578350647 422.62043996217403 363.3333246866864 385.97043894538376 379.9999918157406 389.22043903554936C396.6666589447948 392.4704391257149 403.33332579641655 433.5954402666562 419.9999929254708 434.2204402839958C436.666660054525 434.8454403013353 443.3333269061467 397.2204392574954 459.9999940352009 392.2204391187791C476.6666611642551 387.22043898006285 483.33332801587676 411.4704396528368 499.99999514493106 410.2204396181577C516.6666622739854 408.9704395834786 523.333329125607 384.09543889336516 539.9999962546613 386.22043895231957C556.6666633837156 388.34543901127404 563.3333302353371 422.0454399462217 579.9999973643913 420.4204399011389C596.6666644934455 418.7954398560561 611.6666649095944 387.1704389786757 619.9999984741214 378.42043873592223 " transform="rotate(60, 400, 400)"></path><path d="M190.99998619079594 413.1294141081693C198.9166530770967 403.6294138446084 213.16665347243807 365.9856628002483 228.99998724503956 367.52941284307695C244.83332101764108 369.0731628859056 251.1666545266817 419.70816429068526 266.99998829928325 420.5394143137468C282.8333220718847 421.37066433680843 289.16665558092535 372.11316297024507 304.99998935352687 371.51941295377253C320.83332312612833 370.9256629373 327.166656635169 413.8894141292542 342.9999904077705 417.68941423467857C358.833324180372 421.48941434010294 365.1666576894126 386.6719133741522 380.9999914620141 389.7594134598095C396.8333252346156 392.8469135454668 403.1666587436563 431.915664629361 418.99999251625775 432.50941464583354C434.83332628885927 433.10316466230614 441.1666597978999 397.3594136706582 456.99999357050143 392.60941353887773C472.8333273431029 387.8594134070973 479.1666608521435 410.8969140462325 494.99999462474506 409.7094140132874C510.8333283973466 408.5219139803423 517.1666619063872 384.89066332473453 532.9999956789886 386.9094133807412C548.8333294515903 388.9281634367479 555.1666629606309 420.94316432494816 570.9999967332324 419.3994142821195C586.8333305058338 417.8556642392909 601.0833309011753 387.8119134057795 608.9999977874759 379.4994131751637 " transform="rotate(57, 400, 400)"></path><path d="M201.999986114502 412.4383923130025C209.49998632257638 403.43839206331324 222.99998669711033 367.77589107391947 237.99998711325912 369.23839111449394C252.99998752940792 370.70089115506846 258.99998769586745 418.67089248591236 273.99998811201624 419.45839250776015C288.9999885281651 420.245892529608 294.99998869462456 373.58089123496904 309.9999891107734 373.0183912193635C324.9999895269222 372.45589120375786 330.99998969338174 413.15839233297766 345.99999010953053 416.7583924328534C360.9999905256793 420.3583925327291 366.9999906921388 387.37339161761787 381.99999110828765 390.29839169876686C396.99999152443644 393.2233917799159 402.99999169089597 430.2358928067631 417.99999210704476 430.79839282236867C432.99999252319355 431.36089283797423 438.99999268965314 397.4983918985183 453.99999310580193 392.9983917736737C468.9999935219507 388.498391648829 474.9999936884102 410.32339225432554 489.99999410455905 409.1983922231144C504.9999945207079 408.0733921919032 510.9999946871674 385.6858915708011 525.9999951033162 387.5983916238601C540.9999955194651 389.5108916769191 546.9999956859245 419.84089251837196 561.9999961020733 418.37839247779743C576.9999965182221 416.91589243722296 590.499996892756 388.4533916475806 597.9999971008303 380.57839142910245 " transform="rotate(54, 400, 400)"></path><path d="M212.99998603820805 411.7473667031384C220.08331956805608 403.2473664673208 232.8333199217826 369.5661155328933 246.99998698147868 370.9473655712137C261.16665404117475 372.32861560953404 266.8333208650532 417.63361686644214 280.9999879247493 418.3773668870762C295.16665498444536 419.12111690771025 300.83332180832383 375.0486156849957 314.99998886801995 374.5173656702571C329.166655927716 373.9861156555185 334.83332275159444 412.42736672200385 348.99998981129056 415.82736681633094C363.1666568709866 419.22736691065796 368.83332369486504 388.07486604638626 382.99999075456117 390.83736612302704C397.16665781425723 393.59986619966776 402.8333246381357 428.5561171694679 416.9999916978318 429.08736718420647C431.1666587575279 429.61861719894506 436.8333255814063 397.63736631168115 450.99999264110244 393.3873661937723C465.1666597007985 389.1373660758635 470.8333265246769 409.7498666477213 484.99999358437304 408.6873666182441C499.16666064406917 407.62486658876685 504.8333274679476 386.48111600217044 518.9999945276437 388.2873660522817C533.1666615873398 390.09361610239296 538.8333284112182 418.7386168970985 552.9999954709143 417.3573668587781C567.1666625306103 415.9761168204577 579.9166628843368 389.0948660746844 586.9999964141849 381.65736586834396 " transform="rotate(51, 400, 400)"></path><path d="M223.9999859619141 411.0563468153203C230.6666528135358 403.05634659337426 242.66665314645485 371.35634571391313 255.99998684969822 372.6563457499793C269.3333205529416 373.9563457860456 274.66665403423895 416.5963469690179 287.99998773748234 417.2963469884382C301.3333214407257 417.99634700785845 306.6666549220231 376.5163458570683 319.99998862526644 376.01634584319663C333.33332232850984 375.516345829325 338.6666558098072 411.69634683307595 351.99998951305054 414.8963469218544C365.33332321629393 418.09634701063277 370.6666566975913 388.7763461972006 383.9999904008347 391.37634626933306C397.3333241040781 393.9763463414655 402.66665758537545 426.87634725421856 415.99999128861884 427.37634726809017C429.3333249918621 427.8763472819618 434.66665847315954 397.7763464468899 447.9999921764029 393.77634633591686C461.3333258796463 389.77634622494384 466.6666593609436 409.17634676316294 479.99999306418704 408.1763467354197C493.33332676743044 407.17634670767643 498.6666602487278 387.2763461555857 511.99999395197113 388.97634620274926C525.3333276552146 390.67634624991274 530.666661136512 417.6363469978709 543.9999948397553 416.3363469618047C557.3333285429986 415.0363469257384 569.3333288759177 389.7363462238341 575.9999957275394 382.7363460296313 " transform="rotate(48, 400, 400)"></path><path d="M234.99998588562016 410.3653269275021C241.2499860590155 402.8653267194277 252.49998637112708 373.1465758949329 264.99998671791775 374.36532592874494C277.4999870647084 375.58407596255705 282.49998720342467 415.5590770715936 294.99998755021534 416.2153270898001C307.499987897006 416.87157710800665 312.4999880357223 377.98407602914085 324.999988382513 377.5153260161362C337.49998872930365 377.0465760031316 342.49998886801995 410.96532694414805 354.9999892148106 413.96532702737784C367.4999895616013 416.9653271106076 372.49998970031754 389.4778263480149 384.9999900471082 391.9153264156391C397.4999903938989 394.35282648326324 402.49999053261513 425.19657733896923 414.9999908794058 425.6653273519739C427.49999122619647 426.1340773649785 432.4999913649127 397.9153265820986 444.9999917117034 394.1653264780614C457.49999205849406 390.4153263740242 462.4999921972103 408.6028268786046 474.999992544001 407.6653268525953C487.4999928907917 406.727826826586 492.49999302950795 388.07157630900093 504.9999933762987 389.66532635321676C517.4999937230893 391.2590763974326 522.4999938618056 416.5340770986433 534.9999942085963 415.3153270648312C547.4999945553868 414.09657703101914 558.7499948674986 390.3778263729838 564.9999950408939 383.8153261909187 " transform="rotate(45, 400, 400)"></path><path d="M245.9999858093262 409.6743070396839C251.83331930449518 402.67430684548117 262.33331959579937 374.93680607595263 273.9999865861373 376.0743061075106C285.66665357647526 377.2118061390685 290.33332037261044 414.52180717416934 301.9999873629484 415.13430719116207C313.6666543532864 415.74680720815485 318.3333211494216 379.45180620121346 329.9999881397595 379.0143061890758C341.66665513009747 378.5768061769381 346.33332192623266 410.23430705522014 357.9999889165706 413.03430713290123C369.66665590690855 415.8343072105824 374.3333227030438 390.1793064988292 385.99998969338174 392.4543065619451C397.6666566837197 394.729306625061 402.3333234798548 423.5168074237199 413.9999904701928 423.9543074358576C425.6666574605308 424.39180744799523 430.33332425666595 398.0543067173073 441.99999124700395 394.5543066202059C453.66665823734184 391.0543065231045 458.3333250334771 408.0293069940463 469.999992023815 407.1543069697709C481.66665901415297 406.2793069454956 486.33332581028816 388.86680646241615 497.99999280062616 390.35430650368426C509.6666597909641 391.84180654495236 514.3333265870992 415.4318071994157 525.9999935774372 414.29430716785777C537.6666605677751 413.1568071362998 548.1666608590793 391.01930652213355 553.9999943542483 384.8943063522061 " transform="rotate(42, 400, 400)"></path><path d="M256.99998573303225 408.9832852445171C262.41665254997486 402.48328506418596 272.1666528204716 376.7270343496238 282.9999864543569 377.7832843789276C293.8333200882421 378.83953440823143 298.1666535417962 413.48453536939644 308.99998717568144 414.0532853851754C319.83332080956666 414.6220354009544 324.1666542631208 380.9195344659374 334.999987897006 380.5132844546667C345.8333215308913 380.107034443396 350.1666549844454 409.5032852589436 360.99998861833063 412.10328533107605C371.8333222522159 414.70328540320855 376.16665570577 390.88078474229485 386.99998933965526 392.9932848009025C397.8333229735405 395.1057848595101 402.1666564270946 421.83703560112195 412.9999900609798 422.2432856123927C423.83332369486504 422.6495356236634 428.1666571484192 398.1932849451674 438.9999907823044 394.9432848550018C449.83332441618967 391.6932847648363 454.16665786974374 407.4557852021393 464.999991503629 406.6432851795979C475.8333251375143 405.83078515705654 480.1666585910683 389.6620347084828 490.99999222495364 391.0432847468031C501.83332585883886 392.4245347851235 506.166659312393 414.3295353928395 516.9999929462782 413.2732853635357C527.8333265801634 412.21703533423187 537.5833268506601 391.6607847639346 542.9999936676028 385.97328460614483 " transform="rotate(39, 400, 400)"></path><path d="M267.9999856567383 408.29226154200165C272.99998579545456 402.2922613755421 281.9999860451438 378.5172607159463 291.99998632257643 379.492260742996C301.9999866000089 380.46726077004564 305.99998671098194 412.4472616572749 315.9999869884145 412.9722616718401C325.99998726584704 413.4972616864053 329.99998737682006 382.3872608233127 339.99998765425255 382.01226081290895C349.9999879316851 381.63726080250524 353.9999880426581 408.77226155531844 363.99998832009067 411.17226162190224C373.9999885975232 413.57226168848604 377.9999887084962 391.58226107841193 387.9999889859287 393.5322611325113C397.9999892633613 395.4822611866106 401.9999893743343 420.15726187117536 411.99998965176684 420.5322618815791C421.9999899291994 420.90726189198284 425.9999900401724 398.3322612656789 435.9999903176049 395.3322611824491C445.99999059503745 392.33226109921935 449.99999070601046 406.8822615028837 459.999990983443 406.1322614820763C469.99999126087556 405.3822614612688 473.9999913718486 390.45726104720075 483.9999916492811 391.7322610825734C493.9999919267137 393.00726111794603 497.99999203768664 413.22726167891466 507.9999923151192 412.25226165186496C517.9999925925517 411.2772616248153 526.999992842241 392.302261098387 531.9999929809572 387.05226095273497 " transform="rotate(36, 400, 400)"></path><path d="M279.0000008392334 407.6012397468349C283.58333429972333 402.101239594247 291.8333345286052 380.30748898961747 301.000001449585 381.201239014413C310.1666683705648 382.0949890392085 313.8333351389567 411.409989852502 323.0000020599366 411.89123986585344C332.16666898091637 412.37248987920486 335.83333574930833 383.85498908803663 345.00000267028815 383.5112390784999C354.166669591268 383.16748906896316 357.83333635965994 408.0412397590419 367.00000328063976 410.24123982007706C376.1666702016196 412.4412398811122 379.8333369700115 392.2837393218776 389.0000038909913 394.07123937146866C398.16667081197113 395.85873942105974 401.8333375803631 418.4774900485774 411.0000045013429 418.8212400581142C420.16667142232274 419.16499006765093 423.8333381907147 398.471239493539 433.00000511169446 395.721239417245C442.1666720326743 392.97123934095106 445.83333880106625 406.30873971097674 455.00000572204607 405.6212396919032C464.1666726430259 404.93373967282974 467.8333394114178 391.25248929326733 477.0000063323977 392.4212393256923C486.1666732533775 393.58998935811724 489.83334002176946 412.1249898723384 499.0000069427492 411.2312398475429C508.166673863729 410.33748982274733 516.4166740926108 392.94373934018813 521.0000075531008 388.13123920667374 " transform="rotate(33, 400, 400)"></path><path d="M290.00000076293946 406.91021604431944C294.16666754520304 401.91021590560314 301.66666775327747 382.09771535593995 310.00000131780456 382.9102153784813C318.33333488233166 383.72271540102275 321.6666683081425 410.3727161403805 330.0000018726696 410.81021615251814C338.33333543719675 411.2477161646558 341.6666688630076 385.322715445412 350.0000024275347 385.01021543674216C358.3333359920618 384.6977154280724 361.66666941787264 407.31021605541673 370.0000029823998 409.31021611090324C378.3333365469269 411.31021616638975 381.66666997273774 392.9852156579946 390.00000353726483 394.6102157030774C398.3333371017919 396.2352157481602 401.66667052760283 416.7977163186308 410.0000040921299 417.11021632730063C418.333337656657 417.4227163359704 421.6666710824679 398.61021581405043 430.00000464699497 396.1102157446923C438.3333382115221 393.6102156753342 441.6666716373329 405.7352160117211 450.00000520186006 405.1102159943816C458.3333387663872 404.48521597704206 461.666672192198 392.04771563198534 470.00000575672516 393.1102156614625C478.3333393212523 394.17271569093975 481.6666727470631 411.0227161584136 490.0000063115902 410.21021613587214C498.3333398761173 409.3977161133308 505.8333400841917 393.58521567464055 510.00000686645524 389.2102155532638 " transform="rotate(30, 400, 400)"></path><path d="M301.00000068664554 406.21919615650125C304.75000079068275 401.7191960316566 311.5000009779497 383.8879455369597 319.00000118602406 384.619195557247C326.5000013940985 385.35044557753423 329.5000014773283 409.33544624295615 337.00000168540265 409.7291962538801C344.5000018934771 410.122946264804 347.5000019767068 386.7904456174845 355.00000218478124 386.50919560968174C362.50000239285566 386.22794560187896 365.5000024760854 406.5791961664888 373.00000268415977 408.3791962164267C380.5000028922342 410.17919626636456 383.50000297546393 393.68669580880896 391.00000318353835 395.14919584938343C398.5000033916127 396.61169588995796 401.5000034748425 415.11794640338155 409.00000368291694 415.39919641118433C416.5000038909913 415.6804464189871 419.5000039742211 398.74919594925916 427.00000418229547 396.49919588683684C434.5000043903699 394.2491958244145 437.50000447359963 405.16169612716277 445.00000468167406 404.5991961115572C452.5000048897485 404.0366960959516 455.5000049729782 392.84294578540056 463.00000518105264 393.7991958119301C470.50000538912707 394.75544583845954 473.5000054723568 409.92044625918595 481.0000056804312 409.1891962388987C488.5000058885056 408.4579462186115 495.25000607577255 394.2266958237903 499.0000061798097 390.2891957145512 " transform="rotate(27, 400, 400)"></path><path d="M312.00000061035155 405.52817436133444C315.33333403616246 401.5281742503614 321.3333342026219 385.6781738106309 328.0000010542436 386.328173828664C334.6666679058653 386.9781738466971 337.333334646514 408.29817443818325 344.0000014981357 408.6481744478934C350.6666683497574 408.99817445760357 353.3333350904061 388.25817388220844 360.0000019420278 388.00817387527263C366.6666687936495 387.7581738683368 369.33333553429816 405.8481743702123 376.0000023859198 407.4481744146015C382.6666692375415 409.04817445899073 385.3333359781902 394.3881740522746 392.0000028298119 395.6881740883408C398.6666696814336 396.98817412440707 401.33333642208225 413.4381745807836 408.00000327370395 413.6881745877194C414.6666701253256 413.9381745946552 417.3333368659743 398.88817417711925 424.000003717596 396.88817412163274C430.6666705692177 394.88817406614623 433.33333730986635 404.5881743352558 440.00000416148805 404.08817432138414C446.66667101310975 403.58817430751253 449.3333377537584 393.63817403146714 456.0000046053801 394.48817405504894C462.6666714570018 395.3381740786307 465.3333381976505 408.81817445260975 472.0000050492722 408.16817443457666C478.66667190089385 407.5181744165435 484.6666720673534 394.86817406559135 488.0000054931642 391.36817396849 " transform="rotate(24, 400, 400)"></path><path d="M323.0000005340576 404.8371525661677C325.9166672816421 401.33715246906627 331.1666674272942 387.468402084302 337.0000009224632 388.03715210008096C342.83333441763216 388.60590211586 345.1666678156997 407.26090263341035 351.0000013108687 407.5671526419067C356.8333348060377 407.8734026504031 359.16666820410535 389.7259021469324 365.0000016992743 389.5071521408636C370.8333351944433 389.28840213479475 373.16666859251086 405.11715257393575 379.00000208767983 406.51715261277633C384.8333355828488 407.91715265161685 387.1666689809164 395.0896522957403 393.0000024760854 396.22715232729826C398.83333597125437 397.3646523588562 401.16666936932194 411.75840275818564 407.00000286449097 411.97715276425447C412.83333635965994 412.1959027703233 415.1666697577275 399.02715240497935 421.0000032528965 397.27715235642864C426.83333674806545 395.52715230787794 429.1666701461331 404.0146525433488 435.00000364130204 403.57715253121114C440.833337136471 403.1396525190735 443.16667053453864 394.4334022775338 449.0000040297076 395.1771522981678C454.8333375248766 395.92090231880184 457.16667092294415 407.71590264603356 463.0000044181131 407.14715263025454C468.8333379132821 406.5784026144756 474.0833380589342 395.50965230739246 477.0000048065187 392.4471522224287 " transform="rotate(21, 400, 400)"></path><path d="M334.0000004577637 404.14613077100086C336.5000005271218 401.14613068777106 341.00000065196645 389.2586303579732 346.00000079068275 389.746130371498C351.000000929399 390.2336303850228 353.0000009848855 406.22363082863745 358.0000011236018 406.48613083592005C363.00000126231805 406.74863084320265 365.00000131780456 391.19363041165633 370.0000014565208 391.0061304064545C375.0000015952371 390.8186304012526 377.00000165072356 404.3861307776592 382.00000178943986 405.58613081095115C387.00000192815617 406.786130844243 389.0000019836426 395.79113053920594 394.00000212235886 396.76613056625564C399.00000226107517 397.7411305933053 401.0000023165617 410.0786309355877 406.0000024552779 410.26613094078954C411.0000025939942 410.4536309459914 413.00000264948073 399.16613063283944 418.000002788197 397.66613059122454C423.0000029269132 396.16613054960965 425.0000029823998 403.44113075144185 430.00000312111604 403.06613074103814C435.0000032598323 402.6911307306344 437.00000331531885 395.2286305236004 442.0000034540351 395.8661305412867C447.00000359275134 396.50363055897304 449.00000364823785 406.6136308394573 454.00000378695415 406.1261308259325C459.0000039256704 405.63863081240765 463.50000405051503 396.1511305491935 466.00000411987315 393.5261304763675 " transform="rotate(18, 400, 400)"></path><path d="M344.99999656677244 403.45510897583404C347.08332995790425 400.9551089064759 350.83333006194147 391.0488586316443 354.99999684420504 391.455108642915C359.16666362646856 391.86135865418566 360.833330339374 405.18635902386455 364.99999712163753 405.4051090299334C369.1666639039011 405.6238590360022 370.8333306168065 392.6613586763803 374.9999973990701 392.5051086720454C379.16666418133366 392.34885866771054 380.83333089423905 403.6551089813827 384.99999767650263 404.6551090091259C389.16666445876615 405.6551090368692 390.8333311716716 396.49260878267165 394.9999979539351 397.305108805213C399.1666647361987 398.1176088277544 400.83333144910415 408.3988591129897 404.9999982313677 408.5551091173246C409.16666501363125 408.7113591216595 410.8333317265367 399.30510886069953 414.9999985088002 398.05510882602044C419.1666652910638 396.8051087913414 420.8333320039692 402.8676089595349 424.99999878623277 402.55510895086513C429.16666556849634 402.2426089421953 430.83333228140174 396.02385876966696 434.9999990636653 396.5551087844056C439.1666658459289 397.0863587991442 440.8333325588343 405.5113590328811 444.9999993410978 405.1051090216104C449.1666661233614 404.6988590103397 452.9166662273986 396.7926087909946 454.99999961853035 394.60510873030626 " transform="rotate(15, 400, 400)"></path><path d="M355.9999964904785 402.7640871806672C357.66666320338396 400.7640871251807 360.6666632866137 392.8390869053154 363.99999671242455 393.16408691433196C367.3333301382354 393.48908692334857 368.66666350855974 404.14908721909165 371.9999969343706 404.3240872239467C375.33333036018144 404.4990872288018 376.6666637305058 394.1290869411042 379.9999971563166 394.0040869376363C383.3333305821275 393.8790869341684 384.6666639524518 402.92408718510615 387.9999973782626 403.7240872073007C391.3333308040735 404.52408722949536 392.66666417439785 397.1940870261373 395.99999760020864 397.8440870441704C399.33333102601955 398.49408706220356 400.6666643963439 406.71908729039177 403.9999978221547 406.84408729385973C407.33333124796553 406.96908729732763 408.6666646182899 399.4440870885596 411.9999980441007 398.4440870608164C415.33333146991157 397.4440870330731 416.6666648402359 402.2940871676279 419.99999826604676 402.0440871606921C423.3333316918576 401.79408715375627 424.66666506218195 396.8190870157336 427.9999984879928 397.2440870275245C431.33333191380365 397.66908703931534 432.666665284128 404.4090872263049 435.99999870993884 404.0840872172883C439.33333213574963 403.75908720827175 442.3333322189794 397.4340870327957 443.9999989318849 395.68408698424497 " transform="rotate(12, 400, 400)"></path><path d="M366.9999964141846 402.0730653855004C368.2499964488636 400.57306534388556 370.499996511286 394.6293151789866 372.9999965806441 394.873065185749C375.49999665000223 395.1168151925114 376.49999667774546 403.1118154143187 378.99999674710364 403.24306541796C381.49999681646176 403.37431542160135 382.49999684420504 395.5968152058282 384.9999969135631 395.50306520322727C387.4999969829213 395.40931520062634 388.4999970106645 402.1930653888296 390.9999970800227 402.79306540547555C393.4999971493808 403.39306542212154 394.49999717712404 397.89556526960297 396.99999724648217 398.3830652831278C399.49999731584035 398.87056529665267 400.4999973435836 405.03931546779387 402.9999974129417 405.1330654703948C405.4999974822998 405.2268154729957 406.4999975100431 399.5830653164197 408.9999975794012 398.8330652956123C411.49999764875935 398.0830652748048 412.49999767650263 401.7205653757209 414.99999774586075 401.53306537051907C417.4999978152189 401.3455653653172 418.49999784296216 397.6143152618002 420.9999979123203 397.93306527064334C423.4999979816784 398.2518152794865 424.4999980094217 403.30681541972865 426.9999980787798 403.06306541296624C429.49999814813793 402.8193154062038 431.74999821056025 398.0755652745968 432.99999824523934 396.76306523818374 " transform="rotate(9, 400, 400)"></path><path d="M378.0000001525879 401.38204359033364C378.8333335090406 400.38204356259035 380.3333335506555 396.4195434526577 382.0000002635609 396.582043457166C383.66666697646633 396.74454346167425 384.3333336616285 402.0745436095458 386.0000003745339 402.16204361197333C387.66666708743935 402.24954361440086 388.3333337726015 397.0645434705521 390.0000004855069 397.00204346881816C391.66666719841237 396.9395434670842 392.33333388357454 401.4620435925531 394.00000059647994 401.86204360365036C395.6666673093854 402.26204361474765 396.33333399454756 398.5970435130687 398.00000070745295 398.92204352208523C399.6666674203584 399.2470435311018 400.3333341055206 403.3595436451959 402.000000818426 403.42204364692986C403.6666675313314 403.4845436486638 404.33333421649354 399.7220435442798 406.000000929399 399.2220435304082C407.66666764230445 398.7220435165366 408.33333432746656 401.14704358381397 410.000001040372 401.02204358034606C411.66666775327747 400.8970435768781 412.3333344384396 398.4095435078668 414.00000115134503 398.62204351376226C415.6666678642505 398.8345435196577 416.3333345494126 402.20454361315245 418.00000126231805 402.0420436086442C419.66666797522345 401.8795436041359 421.16666801683834 398.71704351639784 422.00000137329107 397.8420434921225 " transform="rotate(6, 400, 400)"></path><path d="M389.00000007629393 400.6910217951668C389.4166667545203 400.19102178129515 390.1666667753277 398.2097717263289 391.00000013178044 398.291021728583C391.83333348823317 398.37227173083716 392.1666668308143 401.0372718047729 393.00000018726695 401.08102180598667C393.8333335437197 401.12477180720043 394.16666688630073 398.532271735276 395.00000024275346 398.50102173440905C395.8333335992062 398.4697717335421 396.1666669417873 400.73102179627654 397.00000029823997 400.9310218018252C397.8333336546927 401.1310218073738 398.16666699727375 399.29852175653434 399.0000003537265 399.4610217610426C399.8333337101792 399.6235217655509 400.16666705276026 401.67977182259796 401.000000409213 401.71102182346493C401.8333337656657 401.7422718243319 402.16666710824677 399.8610217721399 403.0000004646995 399.6110217652041C403.8333338211522 399.3610217582683 404.1666671637333 400.57352179190696 405.000000520186 400.511021790173C405.83333387663873 400.44852178843905 406.1666672192198 399.2047717539334 407.0000005756725 399.31102175688113C407.83333393212524 399.41727175982885 408.1666672747063 401.1022718065762 409.000000631159 401.02102180432206C409.8333339876117 400.9397718020679 410.5833340084192 399.3585217581989 411.00000068664554 398.92102174606123 " transform="rotate(3, 400, 400)"></path></g></svg>