<svg xmlns="http://www.w3.org/2000/svg" version="1.1" xmlns:xlink="http://www.w3.org/1999/xlink" xmlns:svgjs="http://svgjs.dev/svgjs" width="1500" height="1500" viewBox="0 0 1500 1500"><rect width="1500" height="1500" fill="#ffffff"></rect><g transform="matrix(0.6666666666666666,0,0,0.6666666666666666,249.39393939393938,601.2200272234345)"><svg viewBox="0 0 396 118" data-background-color="#081e1c" preserveAspectRatio="xMidYMid meet" height="446" width="1500" xmlns="http://www.w3.org/2000/svg" xmlns:xlink="http://www.w3.org/1999/xlink"><g id="tight-bounds" transform="matrix(1,0,0,1,0.2400000000000091,0.04496677455628628)"><svg viewBox="0 0 395.52 117.91006645088746" height="117.91006645088746" width="395.52"><g><svg viewBox="0 0 595.6622424266686 177.57527959853644" height="117.91006645088746" width="395.52"><g transform="matrix(1,0,0,1,200.1422424266687,24.541880176064012)"><svg viewBox="0 0 395.5199999999999 128.49151924640842" height="128.49151924640842" width="395.5199999999999"><g id="textblocktransform"><svg viewBox="0 0 395.5199999999999 128.49151924640842" height="128.49151924640842" width="395.5199999999999" id="textblock"><g><svg viewBox="0 0 395.5199999999999 93.1615472998851" height="93.1615472998851" width="395.5199999999999"><g transform="matrix(1,0,0,1,0,0)"><svg width="395.5199999999999" viewBox="4.38 -32.29 181.3 42.71" height="93.1615472998851" data-palette-color="#ffdc00"><path d="M30-31.25L30 1.04 8.13-22.4 8.13 0 4.38 0 4.38-32.29 26.25-8.85 26.25-31.25 30-31.25ZM46.63 0.28L46.63 0.28Q43.78 0.28 41.42-1.16 39.06-2.6 37.65-5.03 36.25-7.47 36.25-10.42L36.25-10.42Q36.25-13.37 37.65-15.8 39.06-18.23 41.42-19.67 43.78-21.11 46.63-21.11L46.63-21.11Q48.78-21.11 50.67-20.31 52.57-19.51 53.96-18.09L53.96-18.09 53.96-20.83 57.43-20.83 57.43 0 53.96 0 53.96-2.74Q52.57-1.35 50.67-0.54 48.78 0.28 46.63 0.28ZM47.12-3.13L47.12-3.13Q49.09-3.13 50.71-4.11 52.32-5.1 53.28-6.75 54.23-8.4 54.23-10.42L54.23-10.42Q54.23-12.43 53.28-14.08 52.32-15.73 50.71-16.72 49.09-17.71 47.12-17.71L47.12-17.71Q45.14-17.71 43.52-16.72 41.91-15.73 40.95-14.08 40-12.43 40-10.42L40-10.42Q40-8.4 40.95-6.75 41.91-5.1 43.52-4.11 45.14-3.13 47.12-3.13ZM67.84 0L64.09 0 64.09-20.83 67.56-20.83 67.56-17.47Q68.71-19.31 70.53-20.28 72.36-21.25 74.47-21.25L74.47-21.25Q76.7-21.25 78.59-20.16 80.48-19.06 81.66-17 82.84-14.93 82.84-11.98L82.84-11.98 82.84 0 79.09 0 79.09-11.46Q79.09-13.92 77.62-15.82 76.14-17.71 73.47-17.71L73.47-17.71Q71.28-17.71 69.56-16.13 67.84-14.55 67.84-11.56L67.84-11.56 67.84 0ZM98.01 0.28L98.01 0.28Q95.17 0.28 92.81-1.16 90.44-2.6 89.04-5.03 87.63-7.47 87.63-10.42L87.63-10.42Q87.63-13.37 89.04-15.8 90.44-18.23 92.81-19.67 95.17-21.11 98.01-21.11L98.01-21.11Q100.17-21.11 102.06-20.31 103.95-19.51 105.34-18.09L105.34-18.09 105.34-20.83 108.81-20.83 108.81 0 105.34 0 105.34-2.74Q103.95-1.35 102.06-0.54 100.17 0.28 98.01 0.28ZM98.5-3.13L98.5-3.13Q100.48-3.13 102.09-4.11 103.71-5.1 104.66-6.75 105.62-8.4 105.62-10.42L105.62-10.42Q105.62-12.43 104.66-14.08 103.71-15.73 102.09-16.72 100.48-17.71 98.5-17.71L98.5-17.71Q96.52-17.71 94.91-16.72 93.29-15.73 92.34-14.08 91.38-12.43 91.38-10.42L91.38-10.42Q91.38-8.4 92.34-6.75 93.29-5.1 94.91-4.11 96.52-3.13 98.5-3.13ZM120.48 0L116.52 0 116.52-31.25 124.26-31.25Q127.35-31.25 129.49-30.31 131.62-29.38 132.94-27.86 134.26-26.35 134.87-24.58 135.48-22.81 135.48-21.11L135.48-21.11Q135.48-19.44 134.89-17.67 134.3-15.9 132.98-14.38 131.66-12.85 129.5-11.91 127.35-10.97 124.26-10.97L124.26-10.97 120.48-10.97 120.48 0ZM120.48-27.71L120.48-14.51 124.05-14.51Q126.87-14.51 128.5-15.5 130.13-16.49 130.82-18 131.52-19.51 131.52-21.11L131.52-21.11Q131.52-22.64 130.84-24.17 130.16-25.69 128.55-26.7 126.93-27.71 124.05-27.71L124.05-27.71 120.48-27.71ZM149.4 0.28L149.4 0.28Q146.55 0.28 144.19-1.16 141.83-2.6 140.42-5.03 139.02-7.47 139.02-10.42L139.02-10.42Q139.02-13.37 140.42-15.8 141.83-18.23 144.19-19.67 146.55-21.11 149.4-21.11L149.4-21.11Q151.55-21.11 153.44-20.31 155.33-19.51 156.72-18.09L156.72-18.09 156.72-20.83 160.2-20.83 160.2 0 156.72 0 156.72-2.74Q155.33-1.35 153.44-0.54 151.55 0.28 149.4 0.28ZM149.88-3.13L149.88-3.13Q151.86-3.13 153.48-4.11 155.09-5.1 156.05-6.75 157-8.4 157-10.42L157-10.42Q157-12.43 156.05-14.08 155.09-15.73 153.48-16.72 151.86-17.71 149.88-17.71L149.88-17.71Q147.9-17.71 146.29-16.72 144.68-15.73 143.72-14.08 142.77-12.43 142.77-10.42L142.77-10.42Q142.77-8.4 143.72-6.75 144.68-5.1 146.29-4.11 147.9-3.13 149.88-3.13ZM170.05 10.42L165.99 10.42 172.76-3.06 163.94-20.83 168.18-20.83 172.62-11.81Q173.21-10.59 173.77-9.41 174.33-8.23 174.88-6.56L174.88-6.56Q175.47-8.23 176.01-9.43 176.55-10.63 177.17-11.81L177.17-11.81 181.69-20.83 185.68-20.83 170.05 10.42Z" opacity="1" transform="matrix(1,0,0,1,0,0)" fill="#000000" class="wordmark-text-0" data-fill-palette-color="primary" id="text-0"></path></svg></g></svg></g><g transform="matrix(1,0,0,1,0,115.15475274025277)"><svg viewBox="0 0 232.20979199999994 13.336766506155644" height="13.336766506155644" width="232.20979199999994"><g transform="matrix(1,0,0,1,0,0)"><svg width="232.20979199999994" viewBox="2.15 -38.05 897.46 51.55" height="13.336766506155644" data-palette-color="#ffffff"><path d="M35.7-24.75L30.25-24.75Q28.8-27.8 26.05-29.48 23.3-31.15 19.65-31.15L19.65-31.15Q16-31.15 13.08-29.48 10.15-27.8 8.47-24.68 6.8-21.55 6.8-17.45L6.8-17.45Q6.8-13.35 8.47-10.25 10.15-7.15 13.08-5.48 16-3.8 19.65-3.8L19.65-3.8Q24.75-3.8 28.05-6.85 31.35-9.9 31.9-15.1L31.9-15.1 18-15.1 18-18.8 36.75-18.8 36.75-15.3Q36.35-11 34.05-7.43 31.75-3.85 28-1.78 24.25 0.3 19.65 0.3L19.65 0.3Q14.8 0.3 10.8-1.98 6.8-4.25 4.48-8.3 2.15-12.35 2.15-17.45L2.15-17.45Q2.15-22.55 4.48-26.63 6.8-30.7 10.8-32.98 14.8-35.25 19.65-35.25L19.65-35.25Q25.2-35.25 29.48-32.5 33.75-29.75 35.7-24.75L35.7-24.75ZM54.7 0.45Q50.85 0.45 47.72-1.3 44.6-3.05 42.82-6.28 41.05-9.5 41.05-13.75L41.05-13.75Q41.05-17.95 42.87-21.18 44.7-24.4 47.85-26.13 51-27.85 54.9-27.85L54.9-27.85Q58.8-27.85 61.95-26.13 65.1-24.4 66.92-21.2 68.75-18 68.75-13.75L68.75-13.75Q68.75-9.5 66.87-6.28 65-3.05 61.8-1.3 58.6 0.45 54.7 0.45L54.7 0.45ZM54.7-3.55Q57.15-3.55 59.3-4.7 61.45-5.85 62.77-8.15 64.1-10.45 64.1-13.75L64.1-13.75Q64.1-17.05 62.8-19.35 61.5-21.65 59.4-22.78 57.3-23.9 54.85-23.9L54.85-23.9Q52.35-23.9 50.27-22.78 48.2-21.65 46.95-19.35 45.7-17.05 45.7-13.75L45.7-13.75Q45.7-10.4 46.92-8.1 48.15-5.8 50.2-4.67 52.25-3.55 54.7-3.55L54.7-3.55ZM92.64-22.3Q94.04-24.75 96.74-26.3 99.44-27.85 102.89-27.85L102.89-27.85Q106.59-27.85 109.54-26.1 112.49-24.35 114.19-21.18 115.89-18 115.89-13.8L115.89-13.8Q115.89-9.65 114.19-6.4 112.49-3.15 109.52-1.35 106.54 0.45 102.89 0.45L102.89 0.45Q99.34 0.45 96.67-1.1 93.99-2.65 92.64-5.05L92.64-5.05 92.64 0 88.09 0 88.09-37 92.64-37 92.64-22.3ZM111.24-13.8Q111.24-16.9 109.99-19.2 108.74-21.5 106.62-22.7 104.49-23.9 101.94-23.9L101.94-23.9Q99.44-23.9 97.32-22.68 95.19-21.45 93.92-19.13 92.64-16.8 92.64-13.75L92.64-13.75Q92.64-10.65 93.92-8.33 95.19-6 97.32-4.78 99.44-3.55 101.94-3.55L101.94-3.55Q104.49-3.55 106.62-4.78 108.74-6 109.99-8.33 111.24-10.65 111.24-13.8L111.24-13.8ZM133.84 0.45Q129.99 0.45 126.87-1.3 123.74-3.05 121.97-6.28 120.19-9.5 120.19-13.75L120.19-13.75Q120.19-17.95 122.02-21.18 123.84-24.4 126.99-26.13 130.14-27.85 134.04-27.85L134.04-27.85Q137.94-27.85 141.09-26.13 144.24-24.4 146.07-21.2 147.89-18 147.89-13.75L147.89-13.75Q147.89-9.5 146.02-6.28 144.14-3.05 140.94-1.3 137.74 0.45 133.84 0.45L133.84 0.45ZM133.84-3.55Q136.29-3.55 138.44-4.7 140.59-5.85 141.92-8.15 143.24-10.45 143.24-13.75L143.24-13.75Q143.24-17.05 141.94-19.35 140.64-21.65 138.54-22.78 136.44-23.9 133.99-23.9L133.99-23.9Q131.49-23.9 129.42-22.78 127.34-21.65 126.09-19.35 124.84-17.05 124.84-13.75L124.84-13.75Q124.84-10.4 126.07-8.1 127.29-5.8 129.34-4.67 131.39-3.55 133.84-3.55L133.84-3.55ZM158.44-22.95Q159.64-25.3 161.86-26.6 164.09-27.9 167.29-27.9L167.29-27.9 167.29-23.2 166.09-23.2Q158.44-23.2 158.44-14.9L158.44-14.9 158.44 0 153.89 0 153.89-27.4 158.44-27.4 158.44-22.95ZM170.84-13.8Q170.84-18 172.54-21.18 174.24-24.35 177.21-26.1 180.19-27.85 183.89-27.85L183.89-27.85Q187.09-27.85 189.84-26.38 192.59-24.9 194.04-22.5L194.04-22.5 194.04-37 198.64-37 198.64 0 194.04 0 194.04-5.15Q192.69-2.7 190.04-1.13 187.39 0.45 183.84 0.45L183.84 0.45Q180.19 0.45 177.21-1.35 174.24-3.15 172.54-6.4 170.84-9.65 170.84-13.8L170.84-13.8ZM194.04-13.75Q194.04-16.85 192.79-19.15 191.54-21.45 189.41-22.68 187.29-23.9 184.74-23.9L184.74-23.9Q182.19-23.9 180.09-22.7 177.99-21.5 176.74-19.2 175.49-16.9 175.49-13.8L175.49-13.8Q175.49-10.65 176.74-8.33 177.99-6 180.09-4.78 182.19-3.55 184.74-3.55L184.74-3.55Q187.29-3.55 189.41-4.78 191.54-6 192.79-8.33 194.04-10.65 194.04-13.75L194.04-13.75ZM231.33-14.75Q231.33-13.45 231.18-12L231.18-12 209.28-12Q209.53-7.95 212.06-5.68 214.58-3.4 218.18-3.4L218.18-3.4Q221.13-3.4 223.11-4.78 225.08-6.15 225.88-8.45L225.88-8.45 230.78-8.45Q229.68-4.5 226.38-2.02 223.08 0.45 218.18 0.45L218.18 0.45Q214.28 0.45 211.21-1.3 208.13-3.05 206.38-6.28 204.63-9.5 204.63-13.75L204.63-13.75Q204.63-18 206.33-21.2 208.03-24.4 211.11-26.13 214.18-27.85 218.18-27.85L218.18-27.85Q222.08-27.85 225.08-26.15 228.08-24.45 229.71-21.48 231.33-18.5 231.33-14.75L231.33-14.75ZM226.63-15.7Q226.63-18.3 225.48-20.18 224.33-22.05 222.36-23.03 220.38-24 217.98-24L217.98-24Q214.53-24 212.11-21.8 209.68-19.6 209.33-15.7L209.33-15.7 226.63-15.7ZM241.88-22.95Q243.08-25.3 245.31-26.6 247.53-27.9 250.73-27.9L250.73-27.9 250.73-23.2 249.53-23.2Q241.88-23.2 241.88-14.9L241.88-14.9 241.88 0 237.33 0 237.33-27.4 241.88-27.4 241.88-22.95ZM255.98-37L260.53-37 260.53 0 255.98 0 255.98-37ZM293.28-14.75Q293.28-13.45 293.13-12L293.13-12 271.23-12Q271.48-7.95 274-5.68 276.53-3.4 280.13-3.4L280.13-3.4Q283.08-3.4 285.05-4.78 287.03-6.15 287.83-8.45L287.83-8.45 292.73-8.45Q291.63-4.5 288.33-2.02 285.03 0.45 280.13 0.45L280.13 0.45Q276.23 0.45 273.15-1.3 270.08-3.05 268.33-6.28 266.58-9.5 266.58-13.75L266.58-13.75Q266.58-18 268.28-21.2 269.98-24.4 273.05-26.13 276.13-27.85 280.13-27.85L280.13-27.85Q284.03-27.85 287.03-26.15 290.03-24.45 291.65-21.48 293.28-18.5 293.28-14.75L293.28-14.75ZM288.58-15.7Q288.58-18.3 287.43-20.18 286.28-22.05 284.3-23.03 282.33-24 279.93-24L279.93-24Q276.48-24 274.05-21.8 271.63-19.6 271.28-15.7L271.28-15.7 288.58-15.7ZM308.97 0.45Q305.82 0.45 303.32-0.63 300.82-1.7 299.37-3.63 297.92-5.55 297.77-8.05L297.77-8.05 302.47-8.05Q302.67-6 304.4-4.7 306.12-3.4 308.92-3.4L308.92-3.4Q311.52-3.4 313.02-4.55 314.52-5.7 314.52-7.45L314.52-7.45Q314.52-9.25 312.92-10.13 311.32-11 307.97-11.85L307.97-11.85Q304.92-12.65 303-13.48 301.07-14.3 299.7-15.93 298.32-17.55 298.32-20.2L298.32-20.2Q298.32-22.3 299.57-24.05 300.82-25.8 303.12-26.83 305.42-27.85 308.37-27.85L308.37-27.85Q312.92-27.85 315.72-25.55 318.52-23.25 318.72-19.25L318.72-19.25 314.17-19.25Q314.02-21.4 312.45-22.7 310.87-24 308.22-24L308.22-24Q305.77-24 304.32-22.95 302.87-21.9 302.87-20.2L302.87-20.2Q302.87-18.85 303.75-17.98 304.62-17.1 305.95-16.57 307.27-16.05 309.62-15.4L309.62-15.4Q312.57-14.6 314.42-13.83 316.27-13.05 317.6-11.5 318.92-9.95 318.97-7.45L318.97-7.45Q318.97-5.2 317.72-3.4 316.47-1.6 314.2-0.58 311.92 0.45 308.97 0.45L308.97 0.45ZM335.07 0.45Q331.92 0.45 329.42-0.63 326.92-1.7 325.47-3.63 324.02-5.55 323.87-8.05L323.87-8.05 328.57-8.05Q328.77-6 330.5-4.7 332.22-3.4 335.02-3.4L335.02-3.4Q337.62-3.4 339.12-4.55 340.62-5.7 340.62-7.45L340.62-7.45Q340.62-9.25 339.02-10.13 337.42-11 334.07-11.85L334.07-11.85Q331.02-12.65 329.1-13.48 327.17-14.3 325.8-15.93 324.42-17.55 324.42-20.2L324.42-20.2Q324.42-22.3 325.67-24.05 326.92-25.8 329.22-26.83 331.52-27.85 334.47-27.85L334.47-27.85Q339.02-27.85 341.82-25.55 344.62-23.25 344.82-19.25L344.82-19.25 340.27-19.25Q340.12-21.4 338.55-22.7 336.97-24 334.32-24L334.32-24Q331.87-24 330.42-22.95 328.97-21.9 328.97-20.2L328.97-20.2Q328.97-18.85 329.85-17.98 330.72-17.1 332.05-16.57 333.37-16.05 335.72-15.4L335.72-15.4Q338.67-14.6 340.52-13.83 342.37-13.05 343.7-11.5 345.02-9.95 345.07-7.45L345.07-7.45Q345.07-5.2 343.82-3.4 342.57-1.6 340.3-0.58 338.02 0.45 335.07 0.45L335.07 0.45ZM396.82-27.4L401.32-27.4 392.77 0 388.07 0 381.47-21.75 374.87 0 370.17 0 361.57-27.4 366.22-27.4 372.52-4.4 379.32-27.4 383.97-27.4 390.62-4.35 396.82-27.4ZM408.16-31.85Q406.86-31.85 405.96-32.75 405.06-33.65 405.06-34.95L405.06-34.95Q405.06-36.25 405.96-37.15 406.86-38.05 408.16-38.05L408.16-38.05Q409.41-38.05 410.29-37.15 411.16-36.25 411.16-34.95L411.16-34.95Q411.16-33.65 410.29-32.75 409.41-31.85 408.16-31.85L408.16-31.85ZM405.81-27.4L410.36-27.4 410.36 0 405.81 0 405.81-27.4ZM430.81-23.65L423.66-23.65 423.66-7.5Q423.66-5.5 424.51-4.67 425.36-3.85 427.46-3.85L427.46-3.85 430.81-3.85 430.81 0 426.71 0Q422.91 0 421.01-1.75 419.11-3.5 419.11-7.5L419.11-7.5 419.11-23.65 415.56-23.65 415.56-27.4 419.11-27.4 419.11-34.3 423.66-34.3 423.66-27.4 430.81-27.4 430.81-23.65ZM449.91-27.9Q453.01-27.9 455.51-26.58 458.01-25.25 459.43-22.6 460.86-19.95 460.86-16.15L460.86-16.15 460.86 0 456.36 0 456.36-15.5Q456.36-19.6 454.31-21.78 452.26-23.95 448.71-23.95L448.71-23.95Q445.11-23.95 442.98-21.7 440.86-19.45 440.86-15.15L440.86-15.15 440.86 0 436.31 0 436.31-37 440.86-37 440.86-23.5Q442.21-25.6 444.58-26.75 446.96-27.9 449.91-27.9L449.91-27.9ZM479.95-13.8Q479.95-18 481.65-21.18 483.35-24.35 486.33-26.1 489.3-27.85 493-27.85L493-27.85Q496.2-27.85 498.95-26.38 501.7-24.9 503.15-22.5L503.15-22.5 503.15-37 507.75-37 507.75 0 503.15 0 503.15-5.15Q501.8-2.7 499.15-1.13 496.5 0.45 492.95 0.45L492.95 0.45Q489.3 0.45 486.33-1.35 483.35-3.15 481.65-6.4 479.95-9.65 479.95-13.8L479.95-13.8ZM503.15-13.75Q503.15-16.85 501.9-19.15 500.65-21.45 498.53-22.68 496.4-23.9 493.85-23.9L493.85-23.9Q491.3-23.9 489.2-22.7 487.1-21.5 485.85-19.2 484.6-16.9 484.6-13.8L484.6-13.8Q484.6-10.65 485.85-8.33 487.1-6 489.2-4.78 491.3-3.55 493.85-3.55L493.85-3.55Q496.4-3.55 498.53-4.78 500.65-6 501.9-8.33 503.15-10.65 503.15-13.75L503.15-13.75ZM517.8-31.85Q516.5-31.85 515.6-32.75 514.7-33.65 514.7-34.95L514.7-34.95Q514.7-36.25 515.6-37.15 516.5-38.05 517.8-38.05L517.8-38.05Q519.05-38.05 519.93-37.15 520.8-36.25 520.8-34.95L520.8-34.95Q520.8-33.65 519.93-32.75 519.05-31.85 517.8-31.85L517.8-31.85ZM515.45-27.4L520-27.4 520 0 515.45 0 515.45-27.4ZM539.05-27.85Q542.6-27.85 545.27-26.3 547.95-24.75 549.25-22.4L549.25-22.4 549.25-27.4 553.85-27.4 553.85 0.6Q553.85 4.35 552.25 7.28 550.65 10.2 547.67 11.85 544.7 13.5 540.75 13.5L540.75 13.5Q535.35 13.5 531.75 10.95 528.15 8.4 527.5 4L527.5 4 532 4Q532.75 6.5 535.1 8.03 537.45 9.55 540.75 9.55L540.75 9.55Q544.5 9.55 546.87 7.2 549.25 4.85 549.25 0.6L549.25 0.6 549.25-5.15Q547.9-2.75 545.25-1.15 542.6 0.45 539.05 0.45L539.05 0.45Q535.4 0.45 532.42-1.35 529.45-3.15 527.75-6.4 526.05-9.65 526.05-13.8L526.05-13.8Q526.05-18 527.75-21.18 529.45-24.35 532.42-26.1 535.4-27.85 539.05-27.85L539.05-27.85ZM549.25-13.75Q549.25-16.85 548-19.15 546.75-21.45 544.62-22.68 542.5-23.9 539.95-23.9L539.95-23.9Q537.4-23.9 535.3-22.7 533.2-21.5 531.95-19.2 530.7-16.9 530.7-13.8L530.7-13.8Q530.7-10.65 531.95-8.33 533.2-6 535.3-4.78 537.4-3.55 539.95-3.55L539.95-3.55Q542.5-3.55 544.62-4.78 546.75-6 548-8.33 549.25-10.65 549.25-13.75L549.25-13.75ZM563.9-31.85Q562.6-31.85 561.7-32.75 560.8-33.65 560.8-34.95L560.8-34.95Q560.8-36.25 561.7-37.15 562.6-38.05 563.9-38.05L563.9-38.05Q565.15-38.05 566.02-37.15 566.9-36.25 566.9-34.95L566.9-34.95Q566.9-33.65 566.02-32.75 565.15-31.85 563.9-31.85L563.9-31.85ZM561.55-27.4L566.1-27.4 566.1 0 561.55 0 561.55-27.4ZM586.54-23.65L579.39-23.65 579.39-7.5Q579.39-5.5 580.24-4.67 581.09-3.85 583.19-3.85L583.19-3.85 586.54-3.85 586.54 0 582.44 0Q578.64 0 576.74-1.75 574.84-3.5 574.84-7.5L574.84-7.5 574.84-23.65 571.29-23.65 571.29-27.4 574.84-27.4 574.84-34.3 579.39-34.3 579.39-27.4 586.54-27.4 586.54-23.65ZM590.34-13.8Q590.34-18 592.04-21.18 593.74-24.35 596.71-26.1 599.69-27.85 603.34-27.85L603.34-27.85Q606.94-27.85 609.59-26.3 612.24-24.75 613.54-22.4L613.54-22.4 613.54-27.4 618.14-27.4 618.14 0 613.54 0 613.54-5.1Q612.19-2.7 609.51-1.13 606.84 0.45 603.29 0.45L603.29 0.45Q599.64 0.45 596.69-1.35 593.74-3.15 592.04-6.4 590.34-9.65 590.34-13.8L590.34-13.8ZM613.54-13.75Q613.54-16.85 612.29-19.15 611.04-21.45 608.91-22.68 606.79-23.9 604.24-23.9L604.24-23.9Q601.69-23.9 599.59-22.7 597.49-21.5 596.24-19.2 594.99-16.9 594.99-13.8L594.99-13.8Q594.99-10.65 596.24-8.33 597.49-6 599.59-4.78 601.69-3.55 604.24-3.55L604.24-3.55Q606.79-3.55 608.91-4.78 611.04-6 612.29-8.33 613.54-10.65 613.54-13.75L613.54-13.75ZM625.84-37L630.39-37 630.39 0 625.84 0 625.84-37ZM656.03-22.35Q657.38-24.7 660.06-26.28 662.73-27.85 666.28-27.85L666.28-27.85Q669.93-27.85 672.91-26.1 675.88-24.35 677.58-21.18 679.28-18 679.28-13.8L679.28-13.8Q679.28-9.65 677.58-6.4 675.88-3.15 672.91-1.35 669.93 0.45 666.28 0.45L666.28 0.45Q662.78 0.45 660.11-1.13 657.43-2.7 656.03-5.05L656.03-5.05 656.03 13 651.48 13 651.48-27.4 656.03-27.4 656.03-22.35ZM674.63-13.8Q674.63-16.9 673.38-19.2 672.13-21.5 670.01-22.7 667.88-23.9 665.33-23.9L665.33-23.9Q662.83-23.9 660.71-22.68 658.58-21.45 657.31-19.13 656.03-16.8 656.03-13.75L656.03-13.75Q656.03-10.65 657.31-8.33 658.58-6 660.71-4.78 662.83-3.55 665.33-3.55L665.33-3.55Q667.88-3.55 670.01-4.78 672.13-6 673.38-8.33 674.63-10.65 674.63-13.8L674.63-13.8ZM683.58-13.8Q683.58-18 685.28-21.18 686.98-24.35 689.95-26.1 692.93-27.85 696.58-27.85L696.58-27.85Q700.18-27.85 702.83-26.3 705.48-24.75 706.78-22.4L706.78-22.4 706.78-27.4 711.38-27.4 711.38 0 706.78 0 706.78-5.1Q705.43-2.7 702.75-1.13 700.08 0.45 696.53 0.45L696.53 0.45Q692.88 0.45 689.93-1.35 686.98-3.15 685.28-6.4 683.58-9.65 683.58-13.8L683.58-13.8ZM706.78-13.75Q706.78-16.85 705.53-19.15 704.28-21.45 702.15-22.68 700.03-23.9 697.48-23.9L697.48-23.9Q694.93-23.9 692.83-22.7 690.73-21.5 689.48-19.2 688.23-16.9 688.23-13.8L688.23-13.8Q688.23-10.65 689.48-8.33 690.73-6 692.83-4.78 694.93-3.55 697.48-3.55L697.48-3.55Q700.03-3.55 702.15-4.78 704.28-6 705.53-8.33 706.78-10.65 706.78-13.75L706.78-13.75ZM737.98-27.4L742.68-27.4 726.18 12.9 721.48 12.9 726.88-0.3 715.83-27.4 720.88-27.4 729.48-5.2 737.98-27.4ZM780.17-27.9Q783.37-27.9 785.87-26.58 788.37-25.25 789.82-22.6 791.27-19.95 791.27-16.15L791.27-16.15 791.27 0 786.77 0 786.77-15.5Q786.77-19.6 784.75-21.78 782.72-23.95 779.27-23.95L779.27-23.95Q775.72-23.95 773.62-21.68 771.52-19.4 771.52-15.1L771.52-15.1 771.52 0 767.02 0 767.02-15.5Q767.02-19.6 765-21.78 762.97-23.95 759.52-23.95L759.52-23.95Q755.97-23.95 753.87-21.68 751.77-19.4 751.77-15.1L751.77-15.1 751.77 0 747.22 0 747.22-27.4 751.77-27.4 751.77-23.45Q753.12-25.6 755.4-26.75 757.67-27.9 760.42-27.9L760.42-27.9Q763.87-27.9 766.52-26.35 769.17-24.8 770.47-21.8L770.47-21.8Q771.62-24.7 774.27-26.3 776.92-27.9 780.17-27.9L780.17-27.9ZM823.72-14.75Q823.72-13.45 823.57-12L823.57-12 801.67-12Q801.92-7.95 804.45-5.68 806.97-3.4 810.57-3.4L810.57-3.4Q813.52-3.4 815.5-4.78 817.47-6.15 818.27-8.45L818.27-8.45 823.17-8.45Q822.07-4.5 818.77-2.02 815.47 0.45 810.57 0.45L810.57 0.45Q806.67 0.45 803.6-1.3 800.52-3.05 798.77-6.28 797.02-9.5 797.02-13.75L797.02-13.75Q797.02-18 798.72-21.2 800.42-24.4 803.5-26.13 806.57-27.85 810.57-27.85L810.57-27.85Q814.47-27.85 817.47-26.15 820.47-24.45 822.1-21.48 823.72-18.5 823.72-14.75L823.72-14.75ZM819.02-15.7Q819.02-18.3 817.87-20.18 816.72-22.05 814.75-23.03 812.77-24 810.37-24L810.37-24Q806.92-24 804.5-21.8 802.07-19.6 801.72-15.7L801.72-15.7 819.02-15.7ZM843.07-27.9Q848.07-27.9 851.17-24.88 854.27-21.85 854.27-16.15L854.27-16.15 854.27 0 849.77 0 849.77-15.5Q849.77-19.6 847.72-21.78 845.67-23.95 842.12-23.95L842.12-23.95Q838.52-23.95 836.39-21.7 834.27-19.45 834.27-15.15L834.27-15.15 834.27 0 829.72 0 829.72-27.4 834.27-27.4 834.27-23.5Q835.62-25.6 837.94-26.75 840.27-27.9 843.07-27.9L843.07-27.9ZM874.42-23.65L867.27-23.65 867.27-7.5Q867.27-5.5 868.12-4.67 868.97-3.85 871.07-3.85L871.07-3.85 874.42-3.85 874.42 0 870.32 0Q866.52 0 864.62-1.75 862.72-3.5 862.72-7.5L862.72-7.5 862.72-23.65 859.17-23.65 859.17-27.4 862.72-27.4 862.72-34.3 867.27-34.3 867.27-27.4 874.42-27.4 874.42-23.65ZM889.61 0.45Q886.46 0.45 883.96-0.63 881.46-1.7 880.01-3.63 878.56-5.55 878.41-8.05L878.41-8.05 883.11-8.05Q883.31-6 885.04-4.7 886.76-3.4 889.56-3.4L889.56-3.4Q892.16-3.4 893.66-4.55 895.16-5.7 895.16-7.45L895.16-7.45Q895.16-9.25 893.56-10.13 891.96-11 888.61-11.85L888.61-11.85Q885.56-12.65 883.64-13.48 881.71-14.3 880.34-15.93 878.96-17.55 878.96-20.2L878.96-20.2Q878.96-22.3 880.21-24.05 881.46-25.8 883.76-26.83 886.06-27.85 889.01-27.85L889.01-27.85Q893.56-27.85 896.36-25.55 899.16-23.25 899.36-19.25L899.36-19.25 894.81-19.25Q894.66-21.4 893.09-22.7 891.51-24 888.86-24L888.86-24Q886.41-24 884.96-22.95 883.51-21.9 883.51-20.2L883.51-20.2Q883.51-18.85 884.39-17.98 885.26-17.1 886.59-16.57 887.91-16.05 890.26-15.4L890.26-15.4Q893.21-14.6 895.06-13.83 896.91-13.05 898.24-11.5 899.56-9.95 899.61-7.45L899.61-7.45Q899.61-5.2 898.36-3.4 897.11-1.6 894.84-0.58 892.56 0.45 889.61 0.45L889.61 0.45Z" opacity="1" transform="matrix(1,0,0,1,0,0)" fill="#000000" class="slogan-text-1" data-fill-palette-color="secondary" id="text-1"></path></svg></g></svg></g></svg></g></svg></g><g><svg viewBox="0 0 178.14903698630104 177.57527959853644" height="177.57527959853644" width="178.14903698630104"><g><svg xmlns="http://www.w3.org/2000/svg" xmlns:xlink="http://www.w3.org/1999/xlink" version="1.1" x="0" y="0" viewBox="16.156 16.265 67.68799999999999 67.47" enable-background="new 0 0 100 100" xml:space="preserve" height="177.57527959853644" width="178.14903698630104" class="icon-icon-0" data-fill-palette-color="accent" id="icon-0"><path fill="#000000" d="M77.588 31.672h6.256v-0.65h-6.219c0.004-0.109 0.016-0.215 0.016-0.325 0-4.951-3.943-8.989-8.855-9.16v-5.183h-0.646v5.183c-4.908 0.175-8.85 4.211-8.85 9.16 0 0.109 0.014 0.215 0.018 0.325h-1.102c-0.26-4.352-3.639-7.873-7.932-8.342v-6.326h-0.65v6.287c-0.107-0.004-0.215-0.017-0.324-0.017-4.816 0-8.744 3.833-8.916 8.607h-8.949V16.265h-0.648v14.968H16.791v0.65h13.994v8.7c-4.516 0.328-8.104 4.017-8.268 8.575h-6.361v0.65h6.361c0.164 4.557 3.752 8.247 8.268 8.574v0.781c-4.801 0.169-8.666 4.035-8.836 8.834h-5.793v0.65h5.793c0.17 4.8 4.035 8.666 8.836 8.835v6.252h0.648v-6.252c4.801-0.169 8.666-4.035 8.836-8.835h0.771c0.25 4.59 3.973 8.262 8.582 8.429v6.659h0.65v-6.659c4.666-0.168 8.424-3.926 8.592-8.591h9.273v15.25h0.646v-15.25h14.988v-0.649H68.785v-8.543c0.111 0.003 0.219 0.016 0.33 0.016 5.061 0 9.178-4.117 9.178-9.176 0-0.11-0.016-0.215-0.018-0.324h5.498v-0.65h-5.535c-0.488-4.603-4.393-8.202-9.123-8.202-0.111 0-0.219 0.013-0.33 0.017v-1.116C73.371 39.698 77.111 36.17 77.588 31.672zM49.299 23.925c4.209 0 7.633 3.424 7.633 7.634 0 4.208-3.424 7.633-7.633 7.633-4.207 0-7.635-3.425-7.635-7.633C41.664 27.349 45.092 23.925 49.299 23.925zM40.383 31.883c0.172 4.775 4.1 8.608 8.916 8.608 0.109 0 0.217-0.013 0.324-0.017v8.684h-9.275c-0.172-4.774-4.1-8.608-8.914-8.608v-8.667H40.383zM49.623 59.245c-4.719 0.171-8.514 4.012-8.6 8.753H40.27c-0.17-4.799-4.035-8.666-8.836-8.834v-0.748c4.814 0 8.742-3.833 8.914-8.606h9.275V59.245zM23.801 49.483c0-4.208 3.424-7.633 7.633-7.633s7.633 3.425 7.633 7.633-3.424 7.633-7.633 7.633S23.801 53.691 23.801 49.483zM49.949 75.794c-4.211 0-7.633-3.424-7.633-7.634 0-4.208 3.422-7.633 7.633-7.633 4.207 0 7.633 3.425 7.633 7.633C57.582 72.37 54.156 75.794 49.949 75.794zM68.139 67.836h-9.273c-0.168-4.666-3.926-8.423-8.592-8.591v-9.436h9.682c-0.004 0.108-0.016 0.214-0.016 0.324 0 4.729 3.596 8.632 8.199 9.123V67.836zM59.992 49.158h-9.719v-8.723c4.432-0.483 7.895-4.219 7.951-8.763h1.117c0.477 4.495 4.215 8.022 8.797 8.185v1.152C63.855 41.466 60.447 44.877 59.992 49.158z" data-fill-palette-color="accent"></path></svg></g></svg></g></svg></g><defs></defs></svg><rect width="395.52" height="117.91006645088746" fill="none" stroke="none" visibility="hidden"></rect></g></svg></g></svg>