<svg id="SvgjsSvg1426" width="360" height="360" xmlns="http://www.w3.org/2000/svg" version="1.1" xmlns:xlink="http://www.w3.org/1999/xlink" xmlns:svgjs="http://svgjs.com/svgjs"><defs id="SvgjsDefs1427"></defs><g id="SvgjsG1428" transform="matrix(1,0,0,1,0,0)"><svg xmlns="http://www.w3.org/2000/svg" fill-rule="evenodd" stroke-linejoin="round" stroke-miterlimit="2" clip-rule="evenodd" viewBox="0 0 3000 2161" width="360" height="360"><g transform="matrix(2 0 0 2 -19200 .8)"><rect width="1500" height="1080" x="9600" fill="none"></rect><g transform="translate(-492.062 21.368) scale(1.04517)"><path fill="#e1e3ee" d="M-2881.67,3521.07L-3015.18,3521.07L-3015.18,3670.4L-2934.29,3670.4C-2931.59,3670.4 -2928.36,3669.21 -2925.39,3667.13C-2922.42,3665.05 -2919.99,3662.26 -2918.69,3659.46C-2907.5,3635.29 -2881.67,3521.07 -2881.67,3521.07Z" transform="matrix(1.32681 -.76603 1.46941 .84837 9264.62 -4563.6)" class="colore1e3ee svgShape"></path><g transform="translate(7841.09 -202.31) scale(1.08323)"><rect width="60.225" height="86.925" x="1081.74" y="2413.54" fill="#ffbf66" transform="matrix(6.36212 3.67317 0 2.24106 -4659.39 -8900.61)" class="color7887da svgShape"></rect><path fill="#ffbf66" d="M984.146,2342.84C996.099,2340.68 1008.55,2339.37 1014.08,2341.39C1079.94,2365.39 1112.43,2383.36 1171.27,2413.54L687.423,2413.54C774.097,2387.69 888.457,2360.19 984.146,2342.84Z" transform="matrix(.7919 .4572 0 2.93504 1678.38 -6916.44)" class="color7887da svgShape"></path><g transform="translate(117.609 49.565) scale(.95074)"><path fill="#e1e3ee" d="M2727.03,279.563C2754.15,295.171 2763.41,358.122 2735.55,386.181L2613.13,327.207C2613.13,327.207 2604.83,282.433 2646.51,271.378C2688.18,260.322 2699.9,263.954 2727.03,279.563Z" transform="translate(425.806 197.387) scale(.80614)" class="colore1e3ee svgShape"></path><path fill="#f2f3f7" d="M2921.34,-932.769L2590.65,-932.769C2560.64,-921.249 2549.68,-891.314 2548.09,-863.706C2539.81,-720.286 2573.8,-582.414 2587.27,-511.159L2917.96,-511.159C2903.28,-607.56 2869.56,-735.011 2880.49,-876.292C2882.29,-899.504 2890.83,-923.531 2921.34,-932.769Z" transform="matrix(.86603 .5 -.16666 1.12069 -61.234 7.424)" class="colorf2f3f7 svgShape"></path><path fill="#e1e3ee" d="M956.55,3185.06C944.344,3298.6 943.384,3412.98 944.672,3527.05C944.693,3528.88 943.315,3529.91 941.647,3528.98C843.371,3473.75 747.006,3415.21 648.694,3360.05C646.938,3359.07 645.619,3356.85 645.608,3354.83C644.97,3242.9 644.116,3130.83 653.819,3019.2C653.98,3017.35 655.472,3016.01 657.281,3016.99C756.307,3070.85 854.835,3125.62 953.852,3179.5C955.721,3180.51 956.772,3183 956.55,3185.06ZM949.906,3185.54C853.017,3132.82 756.614,3079.21 659.716,3026.5C650.404,3135.68 651.079,3245.29 651.721,3354.76C747.923,3408.76 842.329,3465.89 938.496,3519.95C937.287,3408.41 938.278,3296.59 949.906,3185.54Z" transform="matrix(.729 0 0 .70002 1827.7 -1691.08)" class="colore1e3ee svgShape"></path><path fill="#e1e3ee" d="M934.172,4155.04C934.65,4263.04 935.241,4371.05 935.868,4479.06C935.892,4483.14 935.819,4487.7 934.21,4491.53C933.999,4492.03 933.75,4492.52 933.433,4492.97C933.223,4493.26 932.98,4493.54 932.694,4493.76C930.806,4495.24 928.818,4492.94 927.823,4491.5C828.461,4347.83 731.316,4202.63 634.635,4057.15C632.164,4053.43 630.755,4048.96 629.596,4044.68C627.501,4036.96 626.317,4028.88 626.286,4020.87C625.876,3914.65 625.432,3808.43 625.043,3702.2C625.028,3698.19 625.126,3693.77 626.627,3689.98C626.85,3689.42 627.116,3688.87 627.463,3688.37C627.674,3688.07 627.916,3687.78 628.204,3687.55C630.147,3685.99 632.198,3688.46 633.195,3689.94C729.819,3833.41 826.863,3976.61 925.886,4118.44C928.396,4122.04 929.756,4126.5 930.88,4130.69C932.999,4138.59 934.136,4146.85 934.172,4155.04ZM917.925,4156.42C824.516,4022.24 732.857,3886.85 641.618,3751.19C641.852,3812.89 642.104,3874.6 642.356,3936.31C642.439,3956.68 642.522,3977.05 642.604,3997.42C642.621,4001.48 642.637,4005.54 642.654,4009.6C642.67,4013.66 644.109,4017.97 642.703,4021.78C733.985,4158.84 825.719,4295.62 919.355,4431.09C918.835,4339.54 918.342,4247.98 917.925,4156.42Z" transform="matrix(.27342 0 0 .10288 2260.94 350.459)" class="colore1e3ee svgShape"></path><path fill="#e1e3ee" d="M935.696,3073.26C918.288,3131.13 909.552,3191.19 906.095,3251.43C903.052,3304.45 904.023,3357.56 905.257,3410.62C905.282,3411.74 903.934,3412.24 903.051,3412.47C900.607,3413.09 897.9,3412.82 895.452,3412.37C797.995,3394.68 700.508,3377.15 602.947,3360.05C600.233,3359.58 597.393,3358.78 595.058,3357.27C594.25,3356.75 593.09,3355.91 593.07,3354.83C592.078,3300.41 590.652,3245.95 593.313,3191.55C596.156,3133.4 603.724,3075.37 619.35,3019.2C619.663,3018.08 620.977,3017.51 621.987,3017.2C624.673,3016.38 627.692,3016.53 630.429,3016.99C729.262,3033.79 828.076,3050.7 926.883,3067.65C929.438,3068.09 932.217,3068.86 934.292,3070.49C935.099,3071.12 936.032,3072.14 935.696,3073.26ZM914.555,3073.72C822.454,3057.92 730.347,3042.16 638.222,3026.5C626.452,3069.62 619.332,3113.88 615.496,3158.38C612.003,3198.91 611.207,3239.62 611.465,3280.28C611.589,3299.87 611.955,3319.46 612.333,3339.04C612.401,3342.54 612.469,3346.04 612.536,3349.54C612.569,3351.28 610.938,3354.37 612.635,3354.76C703.609,3370.72 794.52,3387.03 885.405,3403.49C884.208,3350.7 883.326,3297.86 886.456,3245.12C889.892,3187.21 898.243,3129.48 914.555,3073.72Z" transform="matrix(.22778 0 0 .70002 2163.25 -1691.08)" class="colore1e3ee svgShape"></path><path fill="#e1e3ee" d="M950.898,3124.22C932.425,3182.15 922.709,3242.47 918.643,3303.05C915.044,3356.66 915.783,3410.43 917.414,3464.1C917.448,3465.22 916.117,3465.74 915.225,3465.98C912.787,3466.62 910.076,3466.34 907.631,3465.89C809.739,3448.07 711.866,3430.14 613.963,3412.37C611.223,3411.87 608.361,3411.05 606.008,3409.51C605.191,3408.98 604.021,3408.13 603.996,3407.04C602.787,3354.02 601.798,3300.94 604.802,3247.96C608.215,3187.74 616.883,3127.7 634.217,3069.83C634.554,3068.7 635.885,3068.15 636.905,3067.84C639.611,3067.02 642.641,3067.18 645.393,3067.65C744.316,3084.62 843.232,3101.63 942.152,3118.62C944.698,3119.06 947.475,3119.82 949.536,3121.46C950.339,3122.1 951.253,3123.11 950.898,3124.22ZM929.684,3124.68C837.472,3108.84 745.264,3092.97 653.05,3077.15C636.667,3132.91 628.251,3190.65 624.772,3248.59C621.603,3301.36 622.466,3354.25 623.685,3407.07C714.975,3423.62 806.241,3440.3 897.522,3456.9C895.96,3403.51 895.328,3350.03 899.024,3296.71C903.06,3238.47 912.349,3180.5 929.684,3124.68Z" transform="matrix(.22778 0 0 .70002 2227.37 -1691.08)" class="colore1e3ee svgShape"></path><path fill="#e1e3ee" d="M956.55,3711.06C954.72,3826.85 953.148,3942.65 951.799,4058.46C951.746,4062.95 951.656,4067.51 950.999,4071.96C950.85,4072.97 950.693,4074.03 950.308,4074.99C950.203,4075.25 950.023,4075.71 949.695,4075.76C949.42,4075.79 949.219,4075.48 949.099,4075.28C948.755,4074.7 948.566,4074.01 948.39,4073.36C848.948,3705.61 752.421,3337.07 652.922,2969.32C651.647,2964.61 651.29,2959.6 650.894,2954.76C650.262,2947.03 649.981,2939.25 650.05,2931.49C651.088,2815.15 652.333,2698.81 653.819,2582.47C653.877,2577.94 653.974,2573.34 654.643,2568.85C654.796,2567.83 654.956,2566.76 655.346,2565.8C655.453,2565.53 655.635,2565.07 655.967,2565.02C656.244,2564.97 656.447,2565.28 656.568,2565.49C656.915,2566.08 657.105,2566.76 657.281,2567.41C756.825,2935.82 854.346,3304.77 953.852,3673.19C955.128,3677.91 955.465,3682.94 955.839,3687.79C956.435,3695.53 956.673,3703.3 956.55,3711.06ZM949.906,3714.33C852.53,3353.76 757.13,2992.66 659.716,2632.1C658.479,2730.75 657.415,2829.41 656.501,2928.06C753.873,3288.16 848.576,3648.98 945.897,4009.1C947.065,3910.84 948.394,3812.58 949.906,3714.33Z" transform="matrix(.729 0 0 .10288 1827.7 156.74)" class="colore1e3ee svgShape"></path><g transform="translate(1346.59 -3320.22) scale(1.22485)"><path fill="#10243e" fill-rule="nonzero" d="M825.119 3044.36C826.071 3037.09 827.115 3029.84 828.26 3022.61 829.485 3023.26 830.711 3023.9 831.936 3024.55 830.788 3031.78 829.741 3039.03 828.787 3046.29 827.564 3045.64 826.342 3045 825.119 3044.36zM832.318 3048.15C833.275 3040.89 834.325 3033.65 835.475 3026.42 836.668 3027.05 837.86 3027.68 839.052 3028.32 840.767 3034.47 842.521 3040.61 844.313 3046.74 845 3041.91 845.73 3037.08 846.504 3032.26 847.643 3032.86 848.781 3033.46 849.92 3034.06 848.758 3041.28 847.697 3048.51 846.728 3055.75 845.501 3055.1 844.275 3054.46 843.048 3053.81 841.237 3047.81 839.461 3041.8 837.722 3035.78 837.015 3040.5 836.35 3045.22 835.725 3049.95 834.589 3049.35 833.453 3048.75 832.318 3048.15zM855.242 3060.24C854.052 3051.89 852.95 3043.52 851.944 3035.14 853.273 3035.84 854.602 3036.54 855.931 3037.24 856.603 3043.41 857.328 3049.56 858.103 3055.71 860.354 3051.13 862.652 3046.57 864.999 3042.04 866.299 3042.73 867.599 3043.42 868.899 3044.11 865.566 3050.13 862.321 3056.2 859.158 3062.31 857.852 3061.62 856.547 3060.93 855.242 3060.24zM868.317 3055.65C868.58 3053.89 869.008 3052.05 869.997 3050.54 870.556 3049.7 871.287 3048.98 872.162 3048.47 872.973 3048.01 873.891 3047.74 874.831 3047.77 876.262 3047.81 877.646 3048.33 878.897 3049 881.551 3050.4 883.606 3052.64 884.852 3055.36 886.213 3058.34 886.462 3061.66 885.976 3064.87 885.59 3067.42 884.738 3070.38 882.385 3071.8 880.222 3073.1 877.681 3072.49 875.578 3071.38 872.915 3069.97 870.821 3067.75 869.539 3065.03 868.162 3062.1 867.842 3058.83 868.317 3055.65zM872.123 3057.5C871.807 3059.62 871.869 3061.85 872.734 3063.83 873.426 3065.42 874.534 3066.82 876.085 3067.64 877.322 3068.29 878.746 3068.48 879.955 3067.66 881.479 3066.62 881.939 3064.45 882.195 3062.76 882.509 3060.68 882.515 3058.46 881.681 3056.5 881.004 3054.9 879.868 3053.56 878.327 3052.74 877.077 3052.08 875.61 3051.83 874.371 3052.66 872.844 3053.67 872.376 3055.82 872.123 3057.5zM887.167 3077.1C888.165 3069.89 889.257 3062.69 890.45 3055.51 891.675 3056.16 892.901 3056.81 894.126 3057.46 892.931 3064.64 891.836 3071.83 890.836 3079.04 889.613 3078.39 888.39 3077.75 887.167 3077.1zM907.109 3079.09C908.228 3080.16 909.348 3081.23 910.468 3082.31 909.778 3083.89 908.709 3085.54 906.982 3086.11 905.273 3086.68 903.44 3086.09 901.913 3085.28 899.406 3083.96 897.55 3081.76 896.378 3079.2 895.049 3076.3 894.754 3073.07 895.232 3069.94 895.629 3067.33 896.501 3064.28 898.899 3062.82 901.014 3061.52 903.482 3062.01 905.566 3063.11 907.762 3064.27 909.503 3066.09 910.603 3068.31 911.365 3069.85 911.698 3071.56 911.817 3073.26 910.55 3072.96 909.283 3072.66 908.016 3072.37 907.98 3071.19 907.681 3070.03 907.094 3069.01 906.542 3068.05 905.747 3067.24 904.763 3066.72 903.625 3066.12 902.31 3065.95 901.2 3066.71 899.718 3067.72 899.316 3069.98 899.065 3071.61 898.741 3073.73 898.6 3076.08 899.433 3078.1 900.027 3079.54 901.011 3080.8 902.405 3081.54 903.236 3081.97 904.198 3082.16 905.082 3081.76 906.134 3081.29 906.718 3080.11 907.109 3079.09zM912.658 3090.56C913.676 3083.37 914.786 3076.19 915.999 3069.03 920.499 3071.41 924.999 3073.79 929.499 3076.17 929.292 3077.38 929.088 3078.59 928.887 3079.8 925.613 3078.07 922.34 3076.34 919.067 3074.61 918.805 3076.19 918.548 3077.78 918.296 3079.37 921.34 3080.98 924.384 3082.59 927.428 3084.19 927.236 3085.4 927.046 3086.61 926.858 3087.82 923.815 3086.21 920.772 3084.6 917.73 3083 917.429 3084.95 917.136 3086.9 916.85 3088.86 920.233 3090.64 923.617 3092.43 927.001 3094.21 926.822 3095.42 926.646 3096.63 926.473 3097.84 921.868 3095.41 917.263 3092.98 912.658 3090.56z" class="color10243e svgShape"></path></g></g><path fill="#abb3db" d="M539.809,3098.58C539.809,3098.58 703.207,3362.75 747.435,3434.25C753.868,3444.65 766.52,3449.39 778.2,3445.76C838.309,3427.12 1014.33,3372.54 1014.33,3372.54C1014.34,3373.05 1022.71,3682.8 1022.71,3682.8C1022.71,3702.59 997.286,3715.45 986.814,3711.37C941.567,3693.74 820.617,3631.13 742.225,3585.23C680.743,3549.24 595.564,3496.99 561.596,3468.89C546.699,3456.57 538.414,3436.42 538.414,3416.62L539.055,3106.6C539.055,3103.69 539.316,3101.01 539.809,3098.58Z" transform="translate(1788.19 -2015.85) scale(.80614)" class="colorabb3db svgShape"></path></g><g transform="translate(9494.23 -269.615) scale(1.42681)"><g transform="translate(-169.25 -2.377) scale(.97792)"><path fill="#e1e3ee" d="M-571.141,1064.45C-525.753,1062.68 -507.043,1075.53 -513.537,1113.28C-518.51,1142.19 -469.011,1151.64 -488.834,1170.1C-549.18,1226.31 -568.147,1157.31 -568.147,1122.32C-568.147,1087.33 -612.437,1066.06 -571.141,1064.45Z" transform="matrix(.66388 -.38329 .88074 .5085 62.216 37.297)" class="colore1e3ee svgShape"></path><path fill="#10243e" d="M736.698,792.702C736.698,792.702 770.343,791.121 784.212,786.797C798.081,782.472 802.68,797.544 785.638,809.198C768.596,820.852 747.003,827.8 741.229,821.767C735.455,815.735 736.698,792.702 736.698,792.702Z" transform="matrix(.9355 0 0 .91353 39.548 76.576)" class="color10243e svgShape"></path><g transform="translate(1.803 24.372)"><path fill="#52cc99" d="M734.631,606.133C734.631,606.133 759.675,729.247 761.565,775.326C761.565,775.326 740.975,801.029 707.097,785.557C707.097,785.557 694.729,651.511 680.982,614.273C680.982,614.273 698.619,595.352 734.631,606.133Z" class="color4b61dc svgShape"></path><clipPath id="a"><path d="M734.631,606.133C734.631,606.133 759.675,729.247 761.565,775.326C761.565,775.326 740.975,801.029 707.097,785.557C707.097,785.557 694.729,651.511 680.982,614.273C680.982,614.273 698.619,595.352 734.631,606.133Z" fill="#000000" class="color000 svgShape"></path></clipPath><g clip-path="url(#a)"><path fill="#10243e" d="M740.096,629.336L742.722,646.246C742.722,646.246 718.723,684.02 686.1,670.931L682.786,649.636L740.096,629.336Z" transform="translate(-1.803 -24.372)" class="color10243e svgShape"></path></g></g></g><g transform="rotate(14.561 677.35 -278.978) scale(.97792)"><path fill="#10243e" d="M736.698,792.702C736.698,792.702 770.343,791.121 784.212,786.797C798.081,782.472 802.68,797.544 785.638,809.198C768.596,820.852 747.003,827.8 741.229,821.767C735.455,815.735 736.698,792.702 736.698,792.702Z" transform="rotate(-7.243 1475.532 236.879) scale(.88992)" class="color10243e svgShape"></path><g transform="translate(1.803 24.372)"><path fill="#52cc99" d="M734.631,606.133C734.631,606.133 756.723,723.535 758.855,769.276C758.855,769.276 742.938,792.467 705.489,787.466C705.489,787.466 694.729,651.511 680.982,614.273C680.982,614.273 698.619,595.352 734.631,606.133Z" class="color4b61dc svgShape"></path><clipPath id="b"><path d="M734.631,606.133C734.631,606.133 756.723,723.535 758.855,769.276C758.855,769.276 742.938,792.467 705.489,787.466C705.489,787.466 694.729,651.511 680.982,614.273C680.982,614.273 698.619,595.352 734.631,606.133Z" fill="#000000" class="color000 svgShape"></path></clipPath><g clip-path="url(#b)"><path fill="#10243e" d="M743.106,647.163L750.057,663.377C750.057,663.377 727.369,711.027 683.138,682.84L682.786,649.636L743.106,647.163Z" transform="translate(-1.803 -24.372)" class="color10243e svgShape"></path></g></g></g><path fill="#ffbf66" d="M693.584,496.165C707.105,505.453 707.503,524.39 707.619,543.332C707.71,558.206 695.072,585.398 695.072,585.398L707.072,643.897C707.072,643.897 601.273,681.601 536.374,599.787L564.548,544.804L589.13,466.608C589.13,466.608 676.039,484.115 693.584,496.165Z" transform="rotate(-15.912 787.356 689.262) scale(.8613)" class="color7887da svgShape"></path><g transform="rotate(15.876 592.135 475.75)"><path fill="#10243e" d="M2702.31,562.67C2702.31,562.67 2681.77,601.212 2678.26,608.693C2676.39,612.68 2674.73,619.656 2676.69,620.869C2678.41,621.932 2683.45,616.839 2685.18,614.039C2687.69,609.986 2709.56,566.856 2709.56,566.856C2709.56,566.856 2711.12,557.621 2702.31,562.67Z" transform="rotate(-159.547 1543.736 678.586) scale(.90656)" class="color10243e svgShape"></path><path fill="#00c6ff" d="M824.522,573.568C824.522,573.568 808.385,572.911 803.05,559.667C803.05,559.667 805.525,541.764 814.434,532.422C817.357,529.357 824.996,524.123 834.824,527.304C838.167,528.386 836.743,534.666 836.743,534.666C836.743,534.666 840.721,538.014 844.093,541.416C850.129,547.505 841.811,555.505 841.811,555.505C841.811,555.505 846.528,563.786 836.829,566.027C836.829,566.027 835.54,572.233 824.522,573.568Z" transform="rotate(-15.287 815.293 693.792) scale(.8613)" class="color88daff svgShape"></path><path fill="#10243e" d="M775.296,568.868C775.296,568.868 756.371,562.73 748.445,558.944C742.082,555.904 730.574,549.711 726.153,545.683C726.153,545.683 733.199,578.264 752.284,583.353C777.615,590.106 775.296,568.868 775.296,568.868Z" transform="matrix(1.04768 .33755 -.26413 .8198 -76.159 -152.289)" class="color10243e svgShape"></path><path fill="#ffbf66" d="M555.223,522.837C555.223,522.837 591.787,523.594 607.073,521.614C614.689,520.627 631.104,497.418 632.228,476.87C632.228,476.87 644.389,465.446 660.364,475.064C670.447,481.134 679.398,492.429 670.457,512.274C670.457,512.274 662.727,539.487 632.691,555.887C611.782,567.304 580.334,562.339 554.981,556.241C554.981,556.241 542.576,537.252 555.223,522.837Z" transform="rotate(34.001 575.143 507.805)" class="color7887da svgShape"></path></g><g transform="rotate(-9.169 556.754 714.627)"><circle cx="542.636" cy="465.485" r="45.128" fill="#00c6ff" transform="translate(7.65 -17.564) scale(.9943)" class="color88daff svgShape"></circle><path fill="#00c6ff" d="M779.395,423.19C779.395,423.19 790.293,417.298 795.504,422.034C800.715,426.77 782.333,440.987 782.333,440.987L779.395,423.19Z" transform="translate(-12.034 114.412) scale(.76696)" class="color88daff svgShape"></path><path fill="#10243e" d="M504.311,430.453C504.311,430.453 494.596,435.101 490.798,448.802C487,462.503 482.597,474.879 470.846,476.147C459.094,477.415 447.309,494.953 452.832,507.667C452.832,507.667 431.48,509.052 433.18,535.61C434.88,562.167 458.539,566.525 471.146,561.393C471.146,561.393 482.584,586.726 507.678,573.487C507.678,573.487 540.378,585.777 548.454,561.317C548.454,561.317 581.069,555.081 569.71,528.304C569.71,528.304 586.94,518.056 577.724,500.542C568.509,483.028 571.741,474.765 571.741,474.765C571.741,474.765 582.382,467.847 580.542,453.899C580.542,453.899 610.945,440.503 603.154,418.315C595.362,396.127 568.123,389.755 557.558,411.353C553.526,399.624 514.802,396.321 504.311,430.453Z" transform="translate(-17.674 -24.023)" class="color10243e svgShape"></path></g></g><g transform="translate(9791.92 -7.449) scale(.94315)"><rect width="183.983" height="76.747" x="-569.548" y="1136.04" fill="#00c6ff" transform="matrix(.78546 -.45348 1.53776 .88783 -710.925 -399.168)" class="color88daff svgShape"></rect><rect width="167.991" height="63.273" x="814.884" y="1165.91" fill="#40c3fd" transform="matrix(.86016 -.49661 0 1.65359 5.763 -587.386)" class="color40c3fd svgShape"></rect><rect width="135.14" height="90.61" x="679.744" y="457.128" fill="#40c3fd" transform="matrix(.87331 .5042 0 1.1547 -4.954 -2.86)" class="color40c3fd svgShape"></rect><rect width="135.14" height="90.61" x="679.744" y="457.128" fill="#e1e3ee" transform="matrix(.1817 .1049 0 .52736 511.9 582.319)" class="colore1e3ee svgShape"></rect><rect width="27.95" height="28.186" x="-527.846" y="1088.9" fill="#f2f3f7" transform="matrix(5.17024 -2.98504 .85878 .49582 2429.72 -1220.64)" class="colorf2f3f7 svgShape"></rect></g><g transform="translate(8940.97 -823.512) scale(1.94208)"><ellipse cx="877.721" cy="889.003" fill="#e1e3ee" rx="21.115" ry="9.004" transform="translate(4.004 -.434)" class="colore1e3ee svgShape"></ellipse><ellipse cx="877.721" cy="889.003" fill="#e1e3ee" rx="21.115" ry="9.004" transform="matrix(1.34909 0 0 1.24436 -277.504 -211.137)" class="colore1e3ee svgShape"></ellipse><g transform="rotate(-11.347 897.93 876.108)"><path fill="#52cc99" d="M838.433,898.119C833.162,887.161 815.313,861.946 826.27,847.845C836.404,834.805 850.049,852.676 852.971,867.264C852.971,867.264 844.283,804.651 865.345,803.464C886.407,802.277 879.17,842.957 875.433,859.855C875.433,859.855 893.722,826.362 906.47,838.374C919.218,850.386 877.53,902.745 877.53,902.745C874.744,907.718 867.016,913.537 857.893,913.593C850.348,913.639 842.025,905.587 838.433,898.119Z" transform="translate(12.374 -23.201)" class="color4b61dc svgShape"></path><path fill="#f2f3f7" d="M878.738,795.336C878.775,794.743 879.287,794.293 879.879,794.331C880.471,794.368 880.921,794.879 880.884,795.471C880.884,795.471 876.527,864.212 869.915,890.957C869.773,891.533 869.19,891.885 868.614,891.743C868.038,891.6 867.686,891.017 867.828,890.441C874.413,863.803 878.738,795.336 878.738,795.336Z" class="colorf2f3f7 svgShape"></path><path fill="#f2f3f7" d="M851.167 841.899C851.041 841.32 851.409 840.747 851.989 840.621 852.569 840.495 853.142 840.863 853.268 841.443 853.268 841.443 855.421 851.349 860.07 860.615 863.096 866.647 867.16 872.44 872.452 874.865 872.992 875.113 873.229 875.751 872.982 876.291 872.735 876.83 872.096 877.067 871.557 876.82 865.866 874.212 861.402 868.065 858.148 861.579 853.376 852.068 851.167 841.899 851.167 841.899zM874.738 862.478C874.186 862.696 873.561 862.426 873.342 861.875 873.123 861.323 873.393 860.698 873.945 860.479 873.945 860.479 896.89 851.407 905.683 833.186 905.941 832.651 906.584 832.427 907.119 832.685 907.653 832.943 907.878 833.586 907.62 834.12 898.498 853.021 874.738 862.478 874.738 862.478z" class="colorf2f3f7 svgShape"></path></g><g transform="translate(3.166 5.108)"><path fill="#10243e" d="M890.496,864.055C903.226,863.912 899.717,872.701 907.727,877.88C915.065,882.625 914.901,892.996 903.139,895.137C891.378,897.278 881.4,896.939 873.266,894.478C858.592,890.037 861.515,879.578 870.899,876.523C878.665,873.996 881.049,864.16 890.496,864.055Z" transform="translate(8.56 .309)" class="color10243e svgShape"></path><ellipse cx="901.391" cy="872.661" fill="#e1e3ee" rx="1.934" ry="1.863" transform="translate(-466.967 -452.088) scale(1.51916)" class="colore1e3ee svgShape"></ellipse><ellipse cx="906.34" cy="878.462" fill="#e1e3ee" rx="1.007" ry="1.354" transform="matrix(1.46885 0 0 1 -424.468 0)" class="colore1e3ee svgShape"></ellipse></g></g><g transform="rotate(-120 5715.658 -1299.804) scale(2.4798)"><path fill="#10243e" d="M951.129,3178.53L947.585,3172.39L963.798,3163.03L963.817,3163.05C972.64,3158.46 984.566,3159.4 997.686,3166.98C1024.83,3182.65 1046.88,3220.83 1046.88,3252.18C1046.88,3267.85 1041.37,3278.86 1032.47,3284L1016.89,3293L1013.22,3286.65C1008.34,3285.71 1003.11,3283.71 997.686,3280.58C981.301,3271.12 991.027,3242.66 982.086,3223.25C976.212,3210.5 948.496,3207.81 948.496,3195.38C948.496,3188.95 949.423,3183.31 951.129,3178.53Z" transform="rotate(120 773.511 1229.587) scale(.46125)" class="color10243e svgShape"></path><ellipse cx="-377.844" cy="1079.29" fill="#52cc99" rx="26.198" ry="22.689" transform="rotate(-30 -5.266 88.186) skewX(30)" class="color4b61dc svgShape"></ellipse><path fill="#f2f3f7" d="M957.191,3238.57C954.319,3235.7 954.314,3231.05 957.18,3228.17C960.046,3225.3 964.705,3225.3 967.576,3228.16L979.499,3240.06L1004.03,3216.25C1006.94,3213.43 1011.6,3213.49 1014.43,3216.41C1017.25,3219.32 1017.18,3223.97 1014.27,3226.8L984.548,3255.65C981.667,3258.45 977.076,3258.41 974.235,3255.58L957.191,3238.57Z" transform="scale(-.56491 -.32615) rotate(-45 -7072.596 3059.81)" class="colorf2f3f7 svgShape"></path></g><g transform="rotate(-30 6158.757 -13621.803) scale(1.3091)"><circle cx="2144.31" cy="280.09" r="73.208" fill="#52cc99" transform="translate(-18.874 -21.204)" class="color4b61dc svgShape"></circle><path fill="#52cc99" d="M2121.8,306.453C2123.12,303.438 2125.69,301.556 2128.48,301.556C2131.27,301.556 2133.84,303.438 2135.16,306.453C2144.91,328.716 2161.89,367.49 2161.89,367.49L2095.06,367.49C2095.06,367.49 2112.05,328.716 2121.8,306.453Z" transform="matrix(-1 0 0 -.81615 4253.92 599.916)" class="color4b61dc svgShape"></path><g transform="translate(1.751 -1.3)"><path fill="#f2f3f7" d="M625.306,2910.34C625.306,2906.49 621.975,2903.37 617.871,2903.37L548.92,2903.37C544.816,2903.37 541.485,2906.49 541.485,2910.34L541.485,2988.27C541.485,2992.12 544.816,2995.24 548.92,2995.24L617.871,2995.24C621.975,2995.24 625.306,2992.12 625.306,2988.27L625.306,2910.34Z" transform="matrix(.63295 .36543 -.39004 .67558 2904.79 -1945.48)" class="colorf2f3f7 svgShape"></path><path fill="#52cc99" fill-rule="nonzero" d="M2044.57,1642.41L2044.57,1619.85L2046.97,1619.85L2046.97,1642.41L2044.57,1642.41ZM2045.43,1639.82C2044.09,1639.82 2042.8,1639.64 2041.57,1639.28C2040.34,1638.92 2039.35,1638.45 2038.59,1637.87L2039.91,1634.94C2040.63,1635.46 2041.49,1635.88 2042.47,1636.2C2043.45,1636.53 2044.45,1636.7 2045.46,1636.7C2046.23,1636.7 2046.85,1636.62 2047.32,1636.47C2047.79,1636.32 2048.14,1636.11 2048.36,1635.83C2048.59,1635.56 2048.7,1635.25 2048.7,1634.9C2048.7,1634.45 2048.52,1634.09 2048.17,1633.83C2047.82,1633.57 2047.35,1633.35 2046.78,1633.18C2046.2,1633.01 2045.57,1632.85 2044.87,1632.7C2044.17,1632.55 2043.48,1632.36 2042.78,1632.14C2042.09,1631.91 2041.45,1631.62 2040.87,1631.27C2040.3,1630.92 2039.83,1630.46 2039.47,1629.88C2039.11,1629.31 2038.93,1628.57 2038.93,1627.67C2038.93,1626.71 2039.19,1625.84 2039.71,1625.05C2040.23,1624.25 2041.01,1623.62 2042.06,1623.15C2043.11,1622.68 2044.43,1622.44 2046.01,1622.44C2047.07,1622.44 2048.11,1622.57 2049.13,1622.81C2050.15,1623.06 2051.06,1623.43 2051.84,1623.93L2050.64,1626.88C2049.86,1626.43 2049.07,1626.1 2048.29,1625.88C2047.51,1625.67 2046.74,1625.56 2045.99,1625.56C2045.23,1625.56 2044.62,1625.65 2044.14,1625.83C2043.66,1626 2043.31,1626.23 2043.11,1626.51C2042.9,1626.79 2042.79,1627.11 2042.79,1627.48C2042.79,1627.91 2042.97,1628.26 2043.32,1628.53C2043.67,1628.79 2044.14,1629 2044.71,1629.16C2045.29,1629.32 2045.93,1629.48 2046.62,1629.64C2047.32,1629.8 2048.01,1629.99 2048.71,1630.19C2049.41,1630.4 2050.04,1630.68 2050.62,1631.03C2051.19,1631.38 2051.66,1631.85 2052.02,1632.42C2052.38,1633 2052.56,1633.73 2052.56,1634.61C2052.56,1635.55 2052.3,1636.42 2051.77,1637.2C2051.24,1637.99 2050.45,1638.62 2049.41,1639.1C2048.36,1639.58 2047.03,1639.82 2045.43,1639.82Z" transform="rotate(30 4313.923 1327.993) scale(.9288)" class="color4b61dc svgShape"></path><path fill="#52cc99" d="M611.923,2929.51C611.923,2927.03 610.736,2925.02 609.274,2925.02L558.745,2925.02C557.283,2925.02 556.096,2927.03 556.096,2929.51C556.096,2931.99 557.283,2934 558.745,2934L609.274,2934C610.736,2934 611.923,2931.99 611.923,2929.51Z" transform="matrix(.71061 .41027 -.24214 .4194 2428.2 -1225.66)" class="color4b61dc svgShape"></path><path fill="#52cc99" d="M611.923,2929.51C611.923,2927.03 609.847,2925.02 607.29,2925.02L560.729,2925.02C558.172,2925.02 556.096,2927.03 556.096,2929.51C556.096,2931.99 558.172,2934 560.729,2934L607.29,2934C609.847,2934 611.923,2931.99 611.923,2929.51Z" transform="matrix(.40635 .2346 -.24214 .4194 2594.09 -1118.74)" class="color4b61dc svgShape"></path><path fill="#52cc99" d="M611.923,2929.51C611.923,2927.03 609.847,2925.02 607.29,2925.02L560.729,2925.02C558.172,2925.02 556.096,2927.03 556.096,2929.51C556.096,2931.99 558.172,2934 560.729,2934L607.29,2934C609.847,2934 611.923,2931.99 611.923,2929.51Z" transform="matrix(.40635 .2346 -.24214 .4194 2589.52 -1110.82)" class="color4b61dc svgShape"></path><path fill="#52cc99" d="M611.923,2929.51C611.923,2927.03 609.847,2925.02 607.29,2925.02L560.729,2925.02C558.172,2925.02 556.096,2927.03 556.096,2929.51C556.096,2931.99 558.172,2934 560.729,2934L607.29,2934C609.847,2934 611.923,2931.99 611.923,2929.51Z" transform="matrix(.40635 .2346 -.24214 .4194 2584.94 -1102.89)" class="color4b61dc svgShape"></path><path fill="#52cc99" d="M611.923,2929.51C611.923,2927.03 607.539,2925.02 602.138,2925.02L565.882,2925.02C560.481,2925.02 556.096,2927.03 556.096,2929.51C556.096,2931.99 560.481,2934 565.882,2934L602.138,2934C607.539,2934 611.923,2931.99 611.923,2929.51Z" transform="matrix(.19239 .11107 -.24214 .4194 2740.49 -1034.21)" class="color4b61dc svgShape"></path><path fill="#52cc99" d="M611.923,2929.51C611.923,2927.03 607.539,2925.02 602.138,2925.02L565.882,2925.02C560.481,2925.02 556.096,2927.03 556.096,2929.51C556.096,2931.99 560.481,2934 565.882,2934L602.138,2934C607.539,2934 611.923,2931.99 611.923,2929.51Z" transform="matrix(.19239 .11107 -.24214 .4194 2735.92 -1026.3)" class="color4b61dc svgShape"></path></g></g></g></g></svg></g></svg>